<?xml version="1.0" encoding="UTF-8"?>
<!DOCTYPE svg PUBLIC "-//W3C//DTD SVG 1.1//EN" "http://www.w3.org/Graphics/SVG/1.1/DTD/svg11.dtd">
<!-- Creator: CorelDRAW 2018 (64-Bit) -->
<svg xmlns="http://www.w3.org/2000/svg" xml:space="preserve" width="1.64333in" height="1.28666in" version="1.1" style="shape-rendering:geometricPrecision; text-rendering:geometricPrecision; image-rendering:optimizeQuality; fill-rule:evenodd; clip-rule:evenodd"
viewBox="0 0 1643.33 1286.66"
 xmlns:xlink="http://www.w3.org/1999/xlink">
 <defs>
  <style type="text/css">
   <![CDATA[
    .fil31 {fill:#02CCC0;fill-rule:nonzero}
    .fil40 {fill:#040744;fill-rule:nonzero}
    .fil29 {fill:#04B2A1;fill-rule:nonzero}
    .fil42 {fill:#06052D;fill-rule:nonzero}
    .fil11 {fill:#07085B;fill-rule:nonzero}
    .fil17 {fill:#1E1E1E;fill-rule:nonzero}
    .fil34 {fill:#224887;fill-rule:nonzero}
    .fil18 {fill:#282828;fill-rule:nonzero}
    .fil16 {fill:#333333;fill-rule:nonzero}
    .fil37 {fill:#3660AC;fill-rule:nonzero}
    .fil19 {fill:#424444;fill-rule:nonzero}
    .fil41 {fill:#444444;fill-rule:nonzero}
    .fil30 {fill:#4D5296;fill-rule:nonzero}
    .fil28 {fill:#54A9D4;fill-rule:nonzero}
    .fil7 {fill:#74BDC1;fill-rule:nonzero}
    .fil36 {fill:#818B90;fill-rule:nonzero}
    .fil35 {fill:#8E9394;fill-rule:nonzero}
    .fil6 {fill:#8FD0D6;fill-rule:nonzero}
    .fil5 {fill:#9CDEDC;fill-rule:nonzero}
    .fil8 {fill:#A2E0E0;fill-rule:nonzero}
    .fil33 {fill:#C4205B;fill-rule:nonzero}
    .fil32 {fill:#CAF0FF;fill-rule:nonzero}
    .fil1 {fill:#CBEFEF;fill-rule:nonzero}
    .fil39 {fill:#CCF6FE;fill-rule:nonzero}
    .fil27 {fill:#CE205F;fill-rule:nonzero}
    .fil10 {fill:#CFE4FF;fill-rule:nonzero}
    .fil26 {fill:#E03268;fill-rule:nonzero}
    .fil2 {fill:#E0F5F5;fill-rule:nonzero}
    .fil21 {fill:#E8EFF9;fill-rule:nonzero}
    .fil46 {fill:#ECF9F9;fill-rule:nonzero}
    .fil47 {fill:#EF4673;fill-rule:nonzero}
    .fil43 {fill:#EF9D30;fill-rule:nonzero}
    .fil25 {fill:#F3FDFF;fill-rule:nonzero}
    .fil24 {fill:#F4A640;fill-rule:nonzero}
    .fil3 {fill:#F5FCFC;fill-rule:nonzero}
    .fil20 {fill:#F7B5B2;fill-rule:nonzero}
    .fil15 {fill:#F99893;fill-rule:nonzero}
    .fil4 {fill:#F9FDFD;fill-rule:nonzero}
    .fil38 {fill:#FBF9EB;fill-rule:nonzero}
    .fil14 {fill:#FC8D84;fill-rule:nonzero}
    .fil22 {fill:#FCB4B1;fill-rule:nonzero}
    .fil44 {fill:#FDA8A3;fill-rule:nonzero}
    .fil23 {fill:#FEB546;fill-rule:nonzero}
    .fil9 {fill:#FF5B7E;fill-rule:nonzero}
    .fil13 {fill:#FFC0BB;fill-rule:nonzero}
    .fil12 {fill:#FFD0CF;fill-rule:nonzero}
    .fil45 {fill:#FFF6F5;fill-rule:nonzero}
    .fil0 {fill:white;fill-rule:nonzero}
   ]]>
  </style>
 </defs>
 <g id="Layer_x0020_1">
  <metadata id="CorelCorpID_0Corel-Layer"/>
  <g id="_2671404899296">
   <polygon class="fil0" points="-0.62,1286.24 1643.95,1286.24 1643.95,0.42 -0.62,0.42 "/>
   <path class="fil1" d="M1571.57 1057.48c-16.14,-123.35 45.35,-253.3 2.6,-370.19 -13.56,-37.11 -36.83,-69.8 -55.8,-104.5 -28.62,-52.39 -47.59,-109.99 -55.67,-169.09 -5.29,-38.66 -5.99,-78.03 -14.79,-116.05 -24.44,-105.47 -115.98,-192.32 -222.94,-211.51 -86.2,-15.47 -178.3,4.34 -253.47,49.17 -337.62,201.36 -497.25,106.11 -615.05,175.58 -73.83,43.55 -115.03,124.52 -142.48,205.46 -27.45,80.95 -21.63,257.24 -85.14,314.68 -17.02,15.39 -36.43,28.18 -52.2,44.84 -51.94,54.82 -54.27,142.97 -24.06,212.07 27.5,62.93 91.99,147.74 155.19,179.55 2.26,1.14 4.56,2.2 6.9,3.2l179.03 0c19.66,-3.61 52.78,-2.88 82.43,-2.15 21.41,0.52 41.01,1.05 52.43,-0.06 53.29,-5.15 100.1,-4.55 145.11,-3.94 44.98,0.61 88.16,1.22 134.21,-3.92 133.51,-14.9 267.98,-7.31 402.54,0.28 83.59,4.72 167.22,9.44 250.68,8.76 31.87,-0.26 66.28,-1.35 91.5,-20.75 26.89,-20.68 36.22,-57.47 34.87,-91.28 -1.35,-33.81 -11.5,-66.62 -15.9,-100.18z"/>
   <path class="fil0" d="M149.76 1225.22c-25.11,-23.88 -48.41,-52.93 -67.12,-81.78 0.08,-0.04 0.16,-0.09 0.24,-0.15 18.69,28.8 41.94,57.82 67.02,81.69 -0.05,0.07 -0.09,0.15 -0.14,0.23zm-41.45 -377.06c-0.03,-0.03 -0.06,-0.05 -0.09,-0.07 6.91,-5.52 13.8,-11.04 20.34,-16.96 28,-25.32 42.52,-73.73 52.36,-126.89 0.09,0.01 0.17,0.03 0.26,0.05 -9.84,53.1 -24.36,101.44 -52.33,126.74 -6.6,5.97 -13.57,11.56 -20.54,17.12z"/>
   <path class="fil2" d="M149.9 1224.99c-25.07,-23.87 -48.33,-52.89 -67.02,-81.69 15.99,-9.57 31.16,-22.17 37.36,-39.64 10.02,-28.26 -4.89,-64.42 14.81,-87.02 17.76,-20.37 55.89,-18.44 66.25,-43.41 5.09,-12.24 0.82,-26.36 -5.27,-38.14 -3.45,-6.67 -7.69,-13.27 -14.03,-17.31 -15.98,-10.19 -42.35,-2.87 -51.63,-19.4 -5.41,-9.63 -1.03,-22.15 -5.02,-32.45 -2.79,-7.19 -9.23,-12.23 -15.51,-16.71 -0.51,-0.36 -1.03,-0.72 -1.54,-1.07 6.97,-5.57 13.93,-11.15 20.54,-17.12 27.97,-25.3 42.5,-73.65 52.33,-126.74 10.21,2.04 20.12,5.14 29.44,9.94 18.87,9.72 34.92,30.02 30.44,50.77 -4.17,19.33 -24.06,31.63 -30.56,50.31 -9.39,26.95 12.33,54.94 36.19,70.6 15.44,10.13 32.82,18.22 47.62,29 -2.16,-0.62 -4.2,-1 -6.02,-1 -0.68,0 -1.32,0.05 -1.93,0.16 -20.95,3.67 -31.31,27.86 -19.17,45.31 1.39,2.01 2.94,3.98 4.65,5.89 6.69,7.46 14.17,12.07 20.17,15.78 1.36,0.83 2.64,1.63 3.77,2.36 16.49,10.78 28.19,29.61 30.54,49.17 0.09,0.8 0.18,1.64 0.26,2.5 -4.79,9.77 -12.46,17.91 -20.42,25.37 -22.72,21.31 -48.99,38.83 -77.4,51.63 -17.31,7.79 -36.24,14.44 -48.31,29.1 -15.57,18.91 -15.54,45.81 -23.63,68.93 -1.8,5.14 -4.14,10.14 -6.93,14.88z"/>
   <path class="fil2" d="M1398.99 424.67c-11.59,0 -23.2,-0.84 -34.76,-1.8 -46.93,-3.91 -93.88,-9.84 -140.81,-14.19 -0.63,-25.83 -2.09,-49.13 -4.96,-66.94 4.79,0.09 9.56,0.15 14.33,0.15 27.65,0 54.99,-1.92 81.33,-10.13 31.56,-9.83 60.15,-28.33 92.41,-35.48 12.96,-2.87 26.26,-3.85 39.55,-4.9 0.55,2.11 1.08,4.24 1.57,6.37 8.71,37.61 9.5,76.53 14.62,114.79 -13.27,5.57 -27.3,9.33 -41.61,10.98 -7.2,0.83 -14.41,1.16 -21.65,1.16zm-465.33 -9.02c-2.35,-0.08 -4.7,-0.19 -7.06,-0.33 -11.38,-0.68 -22.88,-2.22 -34.17,-4.72l-12.22 -59.3 -69.1 14.24c-2.13,-2.49 -4.17,-5.07 -6.09,-7.77 -11.6,-16.28 -18.63,-35.78 -20.08,-55.72 -0.52,-7.09 -0.24,-14.6 3.34,-20.75 3.21,-5.52 8.72,-9.28 14.23,-12.52 34.77,-20.43 75.94,-27.11 116.24,-28.81 10.55,-0.44 21.1,-0.57 31.67,-0.57 0.62,0 1.25,0 1.87,0 0,0.08 0,0.16 0,0.24 0,1.3 0.07,2.57 0.19,3.83l256.91 0c-3.24,-14.08 -15.84,-24.59 -30.91,-24.59 -2.76,0 -5.44,0.35 -8,1.02 -1.77,-3.82 -4.07,-7.36 -6.77,-10.53 5.3,-2.14 10.56,-4.38 15.77,-6.74 8.65,-3.91 17.5,-8.39 23.12,-16.04 5.61,-7.64 6.86,-19.33 0.29,-26.18 -3.71,-3.86 -9.14,-5.55 -13.23,-8.99 -7.48,-6.31 -9.09,-17.79 -5.67,-26.96 3.42,-9.17 10.97,-16.24 19.26,-21.46 10.78,-6.76 22.67,-11.2 35.21,-13.93 44.06,10.42 85.02,32.24 119.17,61.93 -5.77,1.89 -10.95,4.85 -14.7,9.67 -6.13,7.9 -6.6,18.63 -9.14,28.31 -5.8,22.26 -23.17,39.95 -42.74,52.02 -37.46,23.07 -82.79,28.48 -127.07,28.48 -4.41,0 -8.82,-0.05 -13.2,-0.15 -27.07,-0.59 -54.33,-2.54 -81.41,-2.54 -21.29,0 -42.47,1.21 -63.39,5.22 -10.95,2.11 -22.17,5.19 -30.61,12.46 -8.45,7.27 -13.31,19.78 -8.72,29.94 3.08,6.82 9.65,11.35 16.26,14.85 10.79,5.72 22.09,9.54 33.74,11.99 -3.38,18.47 -4.63,43.33 -4.83,69.63 -17.17,1.99 -34.34,3.8 -51.53,4.55 -5.59,-13.39 -10.57,-22.07 -14.29,-22.07 -0.04,0 -0.09,0 -0.13,0 -12.18,0.67 -12.71,14.98 -12.19,22.24zm125.08 -9.92c-2.26,-22.51 -4.89,-43.86 -8.17,-60.67 2.91,0.09 5.82,0.13 8.74,0.13 8.04,0 16.15,-0.31 24.28,-0.76 -1.21,18.39 -1.87,38.92 -2.26,59.67 -5.38,0.29 -10.76,0.65 -16.14,1.08 -2.15,0.17 -4.31,0.36 -6.46,0.55zm107.58 -1.3c-11.71,-0.61 -23.42,-1.04 -35.12,-1.22 -1.86,-21.54 -3.96,-42.79 -6.48,-61.63 5.99,-0.39 11.94,-0.71 17.83,-0.92 5.59,-0.2 11.2,-0.28 16.82,-0.28 5.98,0 11.98,0.09 17.98,0.22 -4.78,17.46 -8.27,40.01 -11.03,63.81z"/>
   <path class="fil2" d="M1556 986.36c-39.61,0 -78.34,-3.07 -114.14,-19.4 -27.7,-12.63 -51.51,-32.46 -78.39,-46.78 -9.25,-4.93 -18.76,-9.16 -28.46,-12.84 -4.63,-8.56 -13.46,-14.86 -24.41,-15.4 -0.16,-0.01 -0.33,-0.01 -0.48,-0.01 -3.37,0 -7.51,1.66 -11.74,4.04 -34.33,-8.68 -70.19,-13.17 -105.49,-19.42 -0.78,-17.83 -1.43,-30.8 -1.81,-35.06 0,0 46.48,-32.13 63.89,-80.75 5.1,-14.23 12.45,-31.44 20.55,-48.87 2.33,0 4.64,0.02 6.96,0.02 19.57,0 39.1,-0.52 58.48,-3.17 34.16,-4.67 68.52,-16.69 93.04,-40.93 12.51,-12.37 23.25,-28.33 40.15,-33.25 4.02,-1.17 8.12,-1.63 12.26,-1.63 7.47,0 15.07,1.48 22.44,2.98 15.12,3.06 30.24,6.24 45.37,9.33 7.49,13.63 14.34,27.55 19.67,42.15 6.69,18.29 10.83,36.91 13.11,55.76 -8.21,-0.07 -16.43,-0.15 -24.63,-0.22 -0.82,-0 -1.63,-0.01 -2.44,-0.01 -4.3,0 -8.61,0.19 -12.67,1.54 -5.49,1.83 -10.07,5.61 -14.58,9.2 -16.92,13.46 -35.93,25.74 -57.39,28.39 -3.31,0.41 -6.61,0.58 -9.92,0.58 -12.02,0 -24.07,-2.28 -36.03,-3.91 -21.5,-2.91 -43.19,-3.7 -64.9,-3.7 -12.79,0 -25.59,0.28 -38.37,0.54 -9.13,0.2 -19.27,0.83 -25.57,7.43 -6.84,7.16 -6.21,19.2 -0.87,27.53 5.36,8.34 14.33,13.63 23.36,17.66 49.67,22.17 108.28,15.11 158.72,35.47 17.51,7.07 33.59,17.29 50.95,24.72 14.67,6.28 30.01,10.48 45.66,13.55 -3.8,28.11 -7.5,56.3 -9.05,84.34 -4.43,0.06 -8.85,0.1 -13.26,0.1z"/>
   <path class="fil3" d="M993.25 239.65c-7.14,0 -14.28,-0.06 -21.43,-0.12 -6.52,-0.06 -13.04,-0.11 -19.55,-0.11 0.13,-21.69 17.76,-39.24 39.48,-39.24 6.97,0 13.51,1.81 19.19,4.98 8.03,-22.1 29.21,-37.88 54.08,-37.88 20.91,0 39.2,11.15 49.28,27.83 4.39,-1.37 9.06,-2.1 13.89,-2.1 14.21,0 26.95,6.36 35.5,16.39 -39.53,15.91 -81.52,25.69 -124.01,28.84 -15.46,1.15 -30.94,1.42 -46.43,1.42z"/>
   <path class="fil4" d="M1209.38 243.48l-256.91 0c-0.12,-1.26 -0.19,-2.54 -0.19,-3.83 0,-0.08 0,-0.16 0,-0.24 6.51,0.01 13.03,0.06 19.55,0.11 7.14,0.06 14.28,0.12 21.43,0.12 15.5,0 30.98,-0.28 46.43,-1.42 42.5,-3.15 84.48,-12.93 124.01,-28.84 2.7,3.17 5,6.71 6.77,10.53 2.57,-0.67 5.24,-1.02 8,-1.02 15.07,0 27.67,10.5 30.91,24.59z"/>
   <path class="fil5" d="M1276.16 1232.95c-2.65,2.57 -4.89,7.67 -7.24,13.06 -1.91,4.39 -3.97,9.08 -6.7,13.72l-69.57 0c1.88,-1.18 3.81,-2.3 5.81,-3.31 4.5,-2.29 9.06,-4.07 13.09,-5.65 5.94,-2.31 11.56,-4.5 14.43,-7.38 2.63,-2.63 4.83,-7.67 7.15,-13.01 3.42,-7.81 7.66,-17.54 15.84,-25.47 11.03,-10.71 25.06,-14.28 36.34,-17.16 7.89,-2.01 15.35,-3.92 18.82,-7.41 1.88,-1.89 3.77,-5.42 5.77,-9.16 1.27,-2.35 2.58,-4.79 4.13,-7.33 12.79,-20.96 34.93,-35.68 59.22,-39.35 1.38,-0.21 2.66,-0.37 3.91,-0.53 1.98,-0.25 20.39,-4 26.54,0.21 11.54,7.93 11.12,25.24 -0.93,32.36 -1.38,0.82 -2.85,1.57 -4.39,2.25 -6.05,2.64 -11.78,3.35 -16.4,3.93 -1.03,0.13 -2.02,0.26 -2.89,0.39 -12.83,1.94 -24.98,10.02 -31.73,21.08 -0.98,1.61 -1.98,3.47 -3.04,5.44 -0.34,0.62 -0.69,1.26 -1.03,1.91l-17.2 0.58 12.41 7.48c-1.87,2.8 -4.06,5.62 -6.69,8.27 -11.07,11.14 -25.38,14.79 -36.87,17.71 -7.83,2 -15.22,3.88 -18.79,7.35z"/>
   <path class="fil6" d="M1266.41 1172.71c-2.7,3.98 -4.19,11.06 -5.77,18.56 -2.35,11.16 -5.01,23.82 -12.94,35.88 -8.77,13.34 -21.24,21.44 -31.27,27.94 -2.44,1.59 -4.81,3.13 -6.98,4.64l-64.61 0c6.66,-14.16 16.48,-26.81 28.74,-36.63 5.13,-4.1 10.47,-7.58 15.19,-10.64 6.97,-4.52 13.54,-8.79 16.46,-13.21 2.65,-4.03 4.13,-11.04 5.68,-18.46 2.29,-10.86 5.14,-24.37 13.45,-36.63 11.24,-16.56 28.2,-24.82 41.8,-31.45 9.53,-4.64 18.52,-9.03 22.04,-14.41 1.89,-2.9 3.37,-7.89 4.94,-13.18 1,-3.34 2.02,-6.78 3.32,-10.43 6,-16.76 16.21,-31.79 29.25,-43.75l11.64 18.38 -5.12 -23.9c8.84,-6.94 18.74,-12.56 29.35,-16.48 1.69,-0.63 3.3,-1.17 4.83,-1.7 2.49,-0.85 24.96,-10.48 33.89,-6.72 12.3,5.17 17.74,18.46 14.47,30.01l-23.13 1.95 17.54 7.97c-0.48,0.53 -1,1.05 -1.55,1.55 -1.55,1.41 -3.22,2.76 -5.01,4.02 -7.01,4.96 -14.13,7.38 -19.84,9.33 -1.29,0.44 -2.51,0.85 -3.6,1.25 -15.83,5.85 -29.18,19.34 -34.88,35.22 -0.83,2.31 -1.61,4.95 -2.43,7.74 -1.3,4.35 -2.76,9.28 -4.85,14.39l-26.17 5.04 21.86 3.86c-0.62,1.09 -1.27,2.17 -1.97,3.24 -11.19,17.12 -28.45,25.53 -42.32,32.3 -9.45,4.61 -18.39,8.95 -22.02,14.31z"/>
   <path class="fil7" d="M1285.98 1023.95c0.5,8.33 1.1,18.45 -0.76,29.24 -13.45,7.57 -39.72,22.37 -36.72,20.78 2.81,-1.49 22.17,-5.99 33.52,-8.55 -6.75,19.08 -20.19,32.97 -31.24,44.39 -8.53,8.83 -16.6,17.17 -18.46,24.49 -1.37,5.44 -0.19,13.81 1.07,22.67 1.87,13.2 3.99,28.15 0.1,44.55 -4.3,18.15 -14.76,32 -23.17,43.13 -3.42,4.53 -6.66,8.81 -9.1,12.83 -0.45,0.73 -0.88,1.48 -1.29,2.25l-63.18 0c2.9,-11.62 7.52,-22.83 13.78,-33.11 3.99,-6.55 8.48,-12.49 12.43,-17.74 5.85,-7.74 11.37,-15.05 12.79,-21.06 1.3,-5.48 0.12,-13.76 -1.11,-22.52 -1.83,-12.83 -4.08,-28.8 0.17,-45.58 5.73,-22.65 21.04,-38.47 33.34,-51.18 8.6,-8.89 16.73,-17.29 18.44,-24.6 0.93,-3.94 0.56,-10.01 0.18,-16.44 -0.25,-4.06 -0.5,-8.25 -0.52,-12.77 -0.16,-34.89 14.62,-69.22 39.82,-93.25l11.6 5.12 -5.73 -10.37c1.44,-1.21 2.83,-2.33 4.19,-3.41 2.38,-1.91 23.19,-21.45 34.5,-20.89 21.23,1.06 34.5,23.79 24.61,42.6 -1.13,2.17 -2.43,4.31 -3.89,6.42 -5.72,8.24 -12.57,13.73 -18.07,18.15 -1.24,1 -2.41,1.94 -3.44,2.81 -15.04,12.72 -24.32,32.87 -24.24,52.56 0.01,2.87 0.2,6.07 0.41,9.46z"/>
   <path class="fil5" d="M362.63 1248.23c2.95,2.22 5.78,7.01 8.79,12.07 2.44,4.11 5.06,8.52 8.35,12.79l69.04 -8.58c-2.02,-0.94 -4.07,-1.81 -6.17,-2.57 -4.74,-1.72 -9.5,-2.93 -13.69,-3.98 -6.19,-1.57 -12.03,-3.05 -15.24,-5.55 -2.93,-2.28 -5.73,-7.01 -8.7,-12.02 -4.35,-7.34 -9.76,-16.46 -18.85,-23.33 -12.27,-9.26 -26.65,-11.08 -38.19,-12.55 -8.08,-1.02 -15.71,-1.99 -19.6,-5.04 -2.1,-1.64 -4.41,-4.91 -6.86,-8.37 -1.54,-2.18 -3.14,-4.44 -4.99,-6.76 -15.28,-19.23 -39.07,-31.1 -63.63,-31.74 -1.39,-0.04 -2.69,-0.04 -3.94,-0.04 -2.01,0 -20.74,-1.46 -26.31,3.48 -10.47,9.28 -7.92,26.42 4.91,32 1.48,0.65 3.02,1.21 4.64,1.69 6.33,1.87 12.1,1.87 16.75,1.88 1.05,0 2.04,0 2.93,0.02 12.96,0.33 26.02,6.85 34.08,17 1.17,1.48 2.4,3.2 3.69,5.03 0.41,0.58 0.83,1.17 1.26,1.77l17.13 -1.55 -11.39 8.95c2.2,2.55 4.72,5.08 7.66,7.38 12.37,9.69 27.01,11.54 38.77,13.03 8.02,1.02 15.59,1.97 19.56,4.97z"/>
   <path class="fil6" d="M364.87 1187.25c3.17,3.61 5.52,10.45 8.02,17.7 3.71,10.8 7.92,23.03 17.27,34.02 10.35,12.17 23.72,18.66 34.47,23.87 2.62,1.27 5.15,2.51 7.5,3.74l64.12 -7.97c-8.35,-13.22 -19.66,-24.57 -33.04,-32.8 -5.59,-3.44 -11.33,-6.23 -16.39,-8.69 -7.47,-3.63 -14.52,-7.05 -17.96,-11.08 -3.13,-3.68 -5.45,-10.45 -7.92,-17.61 -3.61,-10.5 -8.1,-23.56 -17.87,-34.7 -13.2,-15.05 -31.03,-21.15 -45.36,-26.05 -10.02,-3.43 -19.49,-6.67 -23.65,-11.58 -2.24,-2.65 -4.33,-7.42 -6.54,-12.47 -1.39,-3.19 -2.83,-6.49 -4.58,-9.94 -8.02,-15.89 -20,-29.55 -34.42,-39.81l-9.28 19.68 2.14 -24.36c-9.63,-5.8 -20.15,-10.15 -31.16,-12.73 -1.76,-0.42 -3.41,-0.76 -5.01,-1.09 -2.56,-0.53 -26.05,-7.32 -34.44,-2.49 -11.57,6.65 -15.33,20.51 -10.67,31.57l23.19 -0.92 -16.43 10.07c0.55,0.47 1.12,0.92 1.73,1.35 1.71,1.21 3.53,2.34 5.46,3.37 7.57,4.06 14.93,5.58 20.85,6.81 1.33,0.28 2.6,0.54 3.72,0.8 16.43,3.85 31.35,15.6 38.95,30.65 1.11,2.19 2.21,4.71 3.37,7.38 1.81,4.15 3.88,8.87 6.58,13.68l26.6 1.77 -21.23 6.54c0.75,1 1.54,1.98 2.36,2.97 13.22,15.61 31.38,21.83 45.98,26.82 9.95,3.41 19.35,6.62 23.62,11.49z"/>
   <path class="fil7" d="M327.09 1042.03c0.53,8.33 1.18,18.45 4.36,28.93 14.28,5.85 42.17,17.3 39.01,16.09 -2.97,-1.13 -22.74,-3.2 -34.32,-4.34 9.06,18.1 24.1,30.23 36.48,40.2 9.56,7.7 18.6,14.99 21.35,22.02 2.04,5.23 1.89,13.68 1.74,22.63 -0.23,13.33 -0.49,28.43 5.39,44.22 6.51,17.47 18.6,29.93 28.32,39.94 3.96,4.08 7.7,7.93 10.61,11.62 0.54,0.67 1.06,1.37 1.56,2.07l62.7 -7.79c-4.32,-11.18 -10.28,-21.72 -17.76,-31.16 -4.76,-6.01 -9.95,-11.35 -14.53,-16.07 -6.75,-6.95 -13.13,-13.52 -15.29,-19.32 -1.97,-5.28 -1.82,-13.63 -1.67,-22.49 0.22,-12.95 0.5,-29.09 -5.79,-45.21 -8.49,-21.77 -25.63,-35.58 -39.4,-46.68 -9.63,-7.76 -18.74,-15.09 -21.34,-22.13 -1.4,-3.8 -1.79,-9.86 -2.2,-16.29 -0.26,-4.06 -0.52,-8.25 -1.06,-12.73 -4.15,-34.65 -23.05,-66.89 -51.02,-87.62l-10.88 6.5 4.4 -11c-1.59,-1.03 -3.11,-1.97 -4.57,-2.87 -2.6,-1.6 -25.67,-18.41 -36.81,-16.46 -20.95,3.67 -31.31,27.86 -19.17,45.31 1.39,2.01 2.94,3.98 4.65,5.89 6.69,7.46 14.17,12.07 20.17,15.78 1.36,0.83 2.64,1.63 3.77,2.36 16.49,10.78 28.19,29.61 30.54,49.17 0.34,2.85 0.54,6.06 0.76,9.44z"/>
   <path class="fil8" d="M978.78 829.45l-53.08 0 -105.4 -418.37 -449.73 113.3 -13.45 -65.26 94.37 -19.45 113.74 0c-2.07,-9.03 -8.4,-16.44 -16.76,-19.99l331.75 -68.39 79.13 383.9c1.65,21.49 4,39.08 7.51,47.77 1.47,3.64 3.04,7.4 4.66,11.26l7.26 35.23z"/>
   <polygon class="fil0" points="1002,1132.28 484.08,1262.75 302.39,541.55 820.3,411.08 "/>
   <path class="fil9" d="M423.9 789.69l97.06 -24.45 -24.45 -97.06 -97.06 24.45 24.45 97.06zm109.88 -16.79l-117.54 29.61 -29.61 -117.54 117.54 -29.61 29.61 117.54z"/>
   <path class="fil9" d="M468.51 963.87l95.69 -24.1 -24.11 -95.69 -95.69 24.11 24.11 95.68zm110.22 -15.41l-118.91 29.95 -29.95 -118.91 118.91 -29.96 29.96 118.92z"/>
   <path class="fil9" d="M512.61 1138.9l95.69 -24.1 -24.11 -95.69 -95.69 24.11 24.11 95.69zm110.22 -15.42l-118.91 29.95 -29.96 -118.91 118.91 -29.95 29.95 118.91z"/>
   <polygon class="fil10" points="823,623.12 550.73,691.71 547.98,680.79 820.25,612.19 "/>
   <polygon class="fil10" points="832.59,661.17 560.31,729.76 557.56,718.83 829.83,650.24 "/>
   <polygon class="fil10" points="867.1,798.16 594.83,866.74 592.07,855.82 864.34,787.23 "/>
   <polygon class="fil10" points="876.69,836.2 604.41,904.79 601.66,893.87 873.93,825.28 "/>
   <polygon class="fil10" points="911.19,973.19 638.92,1041.78 636.17,1030.85 908.44,962.26 "/>
   <polygon class="fil10" points="920.78,1011.24 648.51,1079.83 645.76,1068.9 918.02,1000.31 "/>
   <path class="fil11" d="M504.44 615.06l-35.76 -46.74 9.55 -2.41 18.15 24.41c6.73,9.08 9.63,13.48 11.37,16.27l0.15 -0.04c0.14,-2.86 0.92,-8.15 2.28,-18.97l4.69 -30.9 9.27 -2.34 -9.71 58.2 -9.99 2.52z"/>
   <path class="fil11" d="M543.15 577.05c2.76,10.95 11.63,18.96 23.95,15.86 12.28,-3.09 15.93,-14.16 13.24,-24.86 -2.65,-10.48 -11.38,-18.62 -23.91,-15.46 -11.74,2.96 -15.94,13.93 -13.28,24.47zm46.32 -11.46c3.72,14.75 -3.02,29.99 -20.95,34.51 -17.1,4.31 -30.62,-5.19 -34.49,-20.55 -3.65,-14.52 3.97,-29.87 21.02,-34.17 17.11,-4.31 30.77,5.72 34.42,20.21z"/>
   <polygon class="fil11" points="608.62,540.72 589,545.66 587.19,538.46 635.1,526.39 636.92,533.59 617.33,538.52 628.72,583.75 620.01,585.94 "/>
   <polygon class="fil11" points="690.48,542.81 659.57,550.6 663.77,567.27 697.94,558.66 698.65,566.13 656.91,576.65 643.7,524.22 684.93,513.83 686.74,521.03 654.18,529.23 657.76,543.41 688.68,535.62 "/>
   <polygon class="fil11" points="462.78,768.62 427.24,749.02 432.69,739.15 457.13,752.64 485.88,682.22 496.31,686.48 "/>
   <polygon class="fil11" points="531.48,866.78 520,859.91 500.48,892.57 467.81,873.06 460.95,884.55 493.62,904.06 474.1,936.72 485.59,943.59 505.1,910.93 537.77,930.44 544.63,918.95 511.97,899.44 "/>
   <path class="fil12" d="M934.14 419.81c0,0 14.11,127.25 18.31,156.66 4.2,29.41 1.8,175.27 14.41,206.48 12.6,31.21 32.41,70.83 30.01,112.24 -2.41,41.42 -3,191.48 -3,191.48l207.08 -4.8c0,0 -8.06,-219.97 -9.87,-240.38 0,0 46.48,-32.13 63.89,-80.75 17.41,-48.62 61.23,-132.05 70.84,-139.86 9.59,-7.8 39.01,-21.61 36.61,-31.81 -2.41,-10.2 -28.82,-28.81 -79.83,10.2 -51.03,39.02 -44.43,60.03 -58.24,51.62 -13.8,-8.4 19.52,-344.54 -23.71,-344.54 -43.22,0 -37.67,244.9 -52.3,243.3 -14.62,-1.6 -14.03,-280.52 -47.04,-275.11 -31.26,5.11 -13.81,272.51 -25.81,273.71 -5.98,0.6 -9.28,-59.28 -14.57,-119.16 -5.34,-60.32 -12.69,-120.64 -26.85,-119.14 -40,4.26 -12,247.9 -21.61,249.1 -4.8,0.6 -17.43,-41.11 -30.87,-82.83 -13.42,-41.64 -27.66,-83.29 -35.75,-82.83 -16.35,0.91 -11.71,26.41 -11.71,26.41z"/>
   <path class="fil13" d="M812.41 577.11l-0.48 -18.43 -26.22 5.4 -1.55 12.15c2,2 12.67,11.45 28.24,0.87z"/>
   <path class="fil14" d="M812.34 574.64l-0.41 -15.96 -26.61 8.27 -0.74 5.98c5.9,2.14 17.12,4.74 27.76,1.71z"/>
   <path class="fil15" d="M830.06 525.38c-1.51,4.61 0.35,9.29 4.15,10.46 3.8,1.17 8.11,-1.61 9.62,-6.22 1.51,-4.61 -0.34,-9.29 -4.15,-10.46 -3.81,-1.17 -8.11,1.61 -9.63,6.21z"/>
   <path class="fil13" d="M830.87 551.58c0.99,-2.01 1.79,-4.13 2.39,-6.32 1.74,-5.91 2.35,-12.09 2.45,-17.44 0.02,-1.15 0.11,-2.3 0.22,-3.44 0.45,-4.62 0.04,-9.45 -1.47,-14.34 -4.87,-15.71 -20.1,-26.67 -37.04,-26.59 -22.81,0.11 -40.13,18.88 -38.37,40.33 -2.51,-1.11 -5.24,-1.2 -7.54,0.01 -4.4,2.33 -5.54,8.54 -2.54,13.87 3,5.33 9.01,7.77 13.41,5.45 0.62,-0.32 1.16,-0.73 1.64,-1.19 3.42,18.1 20,31 38.49,29.29 9.04,-0.84 16.94,-5.03 22.64,-11.24 0.38,-0.37 0.78,-0.79 1.2,-1.28 1.83,-2.15 3.31,-4.56 4.52,-7.1z"/>
   <path class="fil16" d="M796.39 524.82c0.18,1.8 -1.18,3.39 -3.03,3.56 -1.85,0.17 -3.5,-1.14 -3.68,-2.94 -0.18,-1.8 1.18,-3.39 3.03,-3.56 1.85,-0.17 3.5,1.15 3.68,2.94z"/>
   <path class="fil16" d="M822.83 523.54c0.17,1.79 -1.19,3.39 -3.04,3.56 -1.85,0.17 -3.5,-1.15 -3.67,-2.94 -0.18,-1.79 1.17,-3.39 3.03,-3.56 1.85,-0.17 3.5,1.14 3.68,2.94z"/>
   <path class="fil16" d="M799.8 518c-1.7,-0.5 -3.33,-0.89 -4.94,-1.1 -1.6,-0.21 -3.18,-0.22 -4.71,0 -1.53,0.24 -3.05,0.6 -4.5,1.3l-0.56 0.23c-0.19,0.08 -0.35,0.2 -0.54,0.28l-1.1 0.57c-0.74,0.4 -1.42,0.89 -2.24,1.29 0.42,-0.75 0.9,-1.49 1.46,-2.18 0.63,-0.6 1.21,-1.32 2,-1.8 1.44,-1.11 3.28,-1.78 5.13,-2.05 1.87,-0.27 3.79,-0.06 5.52,0.55 1.72,0.62 3.3,1.56 4.47,2.89z"/>
   <path class="fil16" d="M810.82 516.97c1.04,-1.43 2.54,-2.5 4.19,-3.27 1.67,-0.75 3.56,-1.12 5.44,-1.02 1.88,0.11 3.76,0.61 5.3,1.6 0.83,0.41 1.47,1.07 2.16,1.62 0.63,0.63 1.17,1.33 1.67,2.04 -0.86,-0.33 -1.58,-0.76 -2.35,-1.09l-1.15 -0.48c-0.2,-0.07 -0.37,-0.17 -0.57,-0.23l-0.58 -0.18c-1.5,-0.57 -3.06,-0.81 -4.6,-0.91 -1.54,-0.09 -3.12,0.06 -4.69,0.41 -1.58,0.35 -3.16,0.87 -4.81,1.52z"/>
   <path class="fil0" d="M819.17 545.19c-1.13,4 -6.06,6.95 -11.92,6.85 -5.85,-0.1 -10.67,-3.22 -11.66,-7.26l23.57 0.41z"/>
   <polygon class="fil17" points="713.98,805.47 691.57,1265.68 739.36,1270.54 821.96,798.18 "/>
   <path class="fil0" d="M774.57 584.32c0,0 -5.36,235.72 -3.72,235.69 1.63,-0.03 47.04,8.55 47.04,8.55l14.15 -19.44 -2.49 -216.69 -23.34 -8.1 -8.07 -2.29 -10.44 0.08 -13.13 2.21z"/>
   <polygon class="fil18" points="814.6,768.06 800,593.76 795.24,593.75 781.2,768.06 797.91,787.38 "/>
   <path class="fil19" d="M792.89 592.57l1.15 0.97c2.16,1.85 5.32,1.91 7.56,0.15l1.98 -1.57 -5.3 -8.65 -3.72 0.86 -1.67 8.25z"/>
   <path class="fil20" d="M1008.06 479.06c0.15,0.72 1.04,1 1.56,0.48 4.05,-4.03 16.88,-16.64 18.14,-15.85 1.5,0.95 -9.69,12.5 -8.96,13.97 0.73,1.47 11.36,-10.06 12.8,-8.79 1.44,1.27 -8.6,11.47 -8.19,12.22 0.42,0.75 11.08,-8 12.38,-7.76 1.3,0.24 -8.95,10.96 -8.7,12.01 0.25,1.05 9.79,-3.99 10.31,-3.22 0.52,0.77 1,1.19 -17.2,18.69l-7.46 6.59 -9 2.09 -6.35 -9.11c0,0 5.17,-32.09 6.39,-32.65 1.17,-0.53 1.99,0.2 4.28,11.33z"/>
   <path class="fil21" d="M812.39 575.95c0,0 -7.45,4.31 -14.23,6.07 -6.78,-1.75 -14.23,-6.07 -14.23,-6.07l-9.37 8.37c1.41,7.67 16.7,13.26 16.7,13.26l6.72 -13.3 5.32 13.3c0,0 11.54,-3.2 18.64,-10.6l-9.57 -11.03z"/>
   <path class="fil18" d="M1017.48 509.48c0,0 -5.67,-14.48 -25.11,-16 0,0 -37.83,97.3 -174.48,88.8 0.83,33.08 4.72,186.41 7.13,233.38 24,-2.69 44.76,-5.61 44.76,-5.61 0,0 -10.8,-129.34 -3.24,-164.44 0,0 120.16,1.26 150.94,-136.13z"/>
   <path class="fil18" d="M776.49 582.57c-17.63,4.02 -127.04,30.46 -148.37,71.14 -23.22,44.28 38.34,127.45 64.8,131.77 0,0 10.53,-10.26 15.93,-35.64 0,0 -27,-29.7 -30.51,-69.4 0,0 27.27,-12.42 39.15,-15.93l-9.8 162.8c0,0 28.56,11.89 53.94,14.05 4.1,0.35 9.75,0.33 16.33,0.06l-1.48 -258.85z"/>
   <polygon class="fil19" points="776.49,582.57 739.64,615.91 758.06,628.87 739.64,649.39 776.49,819.83 "/>
   <polygon class="fil19" points="817.89,582.29 854.75,615.37 836.32,628.33 854.75,648.85 825.02,815.67 "/>
   <path class="fil22" d="M994.15 592.6c0,0 54.74,-17.15 116.56,-17.15 26.75,0 54.83,3.21 80.38,12.41 0,0 -31.84,-2.53 -76.44,-2.53 -35.31,0 -78.63,1.59 -120.5,7.27z"/>
   <polygon class="fil23" points="983,1261.39 1199.68,1261.39 1199.68,1161.01 983,1161.01 "/>
   <path class="fil22" d="M1111 799.87c-19.41,-41.96 -116.86,-126.78 -116.86,-126.78 63.62,19.41 118.2,77.15 118.2,77.15 28.88,-52.33 93.4,-80.31 93.4,-80.31 -42.41,34.29 -94.74,129.94 -94.74,129.94z"/>
   <path class="fil22" d="M1070.22 841.5c-65.39,0 -72.47,-46.32 -72.47,-46.32 22.95,34.41 87.54,45.57 87.54,45.57 -5.34,0.52 -10.35,0.76 -15.07,0.76z"/>
   <path class="fil24" d="M990.75 1068.16c30.77,0.54 113.65,1.65 211,-0.02 6.94,-0.12 12.76,5.24 13.19,12.17l5.52 85.56c0.5,7.5 -5.47,13.85 -12.98,13.85l-219.95 0c-7.37,0 -13.26,-6.11 -13,-13.46l2.98 -85.54c0.25,-7.09 6.14,-12.69 13.24,-12.56z"/>
   <path class="fil25" d="M1192.75 1123.93c0,9.61 -7.8,17.4 -17.41,17.4 -9.62,0 -17.41,-7.79 -17.41,-17.4 0,-9.61 7.79,-17.41 17.41,-17.41 9.61,0 17.41,7.8 17.41,17.41z"/>
   <polygon class="fil9" points="787.88,1261.27 1001.77,1261.27 1001.77,829.45 787.88,829.45 "/>
   <polygon class="fil26" points="729.36,1261.27 787.88,1261.27 787.88,829.45 729.36,859.05 "/>
   <polygon class="fil27" points="715.46,866 729.36,866 729.36,859.05 722.41,857.93 "/>
   <path class="fil28" d="M945.49 790.22l-6.47 0 0 -21.96c2.48,-1.27 3.54,-4.29 2.34,-6.83l-6.19 -13.19c-1.2,1.25 -2.63,2.31 -4.3,3.1 -1.67,0.78 -3.4,1.2 -5.12,1.31l6.19 13.19c0.78,1.67 2.35,2.72 4.05,2.95l0 21.43 -44.73 0 0 -24.52c3.69,-1.78 5.26,-6.22 3.52,-9.94l-8.94 -19.04c-1.72,1.81 -3.79,3.34 -6.2,4.47 -2.4,1.13 -4.91,1.74 -7.4,1.91l8.93 19.04c1.32,2.8 4.14,4.42 7.06,4.32l0 23.76 -37.64 0 0 -10.26c1.97,-1.01 2.81,-3.41 1.86,-5.43l-4.91 -10.47c-0.94,1 -2.09,1.84 -3.41,2.46 -1.31,0.62 -2.69,0.96 -4.07,1.05l4.92 10.48c0.52,1.12 1.48,1.89 2.59,2.21l0 9.97 -8.35 0c-8.67,0 -15.69,7.03 -15.69,15.69l85.29 -2.69 52.37 2.69c0,-8.67 -7.03,-15.69 -15.7,-15.69z"/>
   <polygon class="fil26" points="787.88,829.45 1016.56,829.45 1016.56,801.2 787.88,801.2 "/>
   <polygon class="fil27" points="715.46,866 787.88,829.45 787.88,801.2 715.46,839.68 "/>
   <path class="fil23" d="M891.8 712.71c5.42,11.55 0.45,25.3 -11.1,30.72 -11.55,5.42 -25.3,0.45 -30.71,-11.09 -5.42,-11.55 -0.45,-25.3 11.09,-30.72 11.55,-5.41 25.3,-0.45 30.72,11.1z"/>
   <path class="fil23" d="M850.81 750.85c2.98,6.35 0.25,13.91 -6.1,16.89 -6.35,2.98 -13.91,0.24 -16.89,-6.11 -2.98,-6.35 -0.24,-13.91 6.1,-16.9 6.35,-2.98 13.92,-0.24 16.89,6.11z"/>
   <path class="fil23" d="M939.29 731.6c3.76,8 0.31,17.52 -7.68,21.28 -8,3.75 -17.52,0.31 -21.28,-7.69 -3.75,-8 -0.31,-17.52 7.69,-21.27 8,-3.76 17.52,-0.31 21.27,7.68z"/>
   <polygon class="fil13" points="589.62,1248.82 589.62,1239.22 578.63,1236.17 576.19,1237.25 575.77,1248.82 579.23,1258.9 "/>
   <path class="fil29" d="M579.96 936.87c0,0 -14.41,17.12 -48.35,20.15 -33.94,3.02 -8.53,20.94 -8.53,20.94 0,0 40.9,5.89 55.19,-3.7 14.29,-9.6 1.69,-37.38 1.69,-37.38z"/>
   <polygon class="fil17" points="565.73,1051.91 573.52,1241.87 591.68,1241.87 607.67,1098.29 586.7,1033.96 "/>
   <polygon class="fil13" points="659.81,1248.82 659.81,1239.22 648.82,1236.17 646.38,1237.25 645.96,1248.82 649.42,1258.9 "/>
   <path class="fil18" d="M514.71 927.52l-86.3 20.32c-3.39,0.8 -5.49,4.19 -4.69,7.58l29.58 125.62c0.8,3.39 4.2,5.49 7.59,4.7l86.3 -20.32c3.39,-0.8 5.49,-4.19 4.69,-7.59l-29.59 -125.62c-0.8,-3.39 -4.19,-5.49 -7.58,-4.69z"/>
   <polygon class="fil0" points="515.14,934.37 431.08,954.17 458.78,1071.76 542.83,1051.96 "/>
   <path class="fil30" d="M452.86 952.24l45.51 -10.72 -0.64 -2.72c-1.45,-6.17 -7.63,-9.99 -13.8,-8.54l-23.17 5.46c-6.17,1.45 -9.99,7.63 -8.54,13.8l0.64 2.72z"/>
   <polygon class="fil10" points="473.22,961.99 510.44,953.23 509.67,949.95 472.44,958.71 "/>
   <polygon class="fil10" points="476.06,974.04 513.28,965.28 512.5,961.99 475.28,970.76 "/>
   <polygon class="fil10" points="478.89,986.09 516.11,977.32 515.34,974.04 478.12,982.81 "/>
   <polygon class="fil10" points="481.73,998.13 518.95,989.37 518.18,986.09 480.96,994.86 "/>
   <polygon class="fil10" points="484.57,1010.19 521.79,1001.42 521.02,998.13 483.8,1006.91 "/>
   <polygon class="fil10" points="487.41,1022.23 524.63,1013.47 523.85,1010.19 486.63,1018.95 "/>
   <polygon class="fil10" points="490.24,1034.28 527.46,1025.52 526.69,1022.23 489.47,1031 "/>
   <polygon class="fil10" points="493.08,1046.33 530.3,1037.56 529.53,1034.28 492.31,1043.04 "/>
   <polygon class="fil10" points="448.6,989.72 469.71,984.76 464.05,960.69 442.94,965.66 "/>
   <polygon class="fil10" points="456.09,1021.5 477.2,1016.53 471.53,992.46 450.42,997.43 "/>
   <polygon class="fil10" points="463.57,1053.28 484.68,1048.31 479.01,1024.24 457.9,1029.21 "/>
   <path class="fil13" d="M517.64 1001.39c0.32,0.28 0.2,0.81 -0.21,0.92 -3.2,0.87 -13.27,3.67 -13.24,4.54 0.04,1.03 9.1,-1.25 9.63,-0.46 0.53,0.8 -8.36,2.8 -8.14,3.89 0.22,1.09 8.27,-1 8.52,-0.57 0.26,0.43 -7.24,3.26 -7.49,3.98 -0.26,0.72 8.11,-1.32 8.57,-0.89 0.46,0.43 -4.85,3.76 -4.61,4.25 0.23,0.48 0.31,0.85 14.4,-3.23l5.48 -1.85 3.66 -3.92 -2.74 -5.84c0,0 -17.65,-6.71 -18.28,-6.26 -0.6,0.43 -0.48,1.06 4.46,5.44z"/>
   <path class="fil18" d="M573.52 1052.31l71.11 189.56 17.41 -1.42c0,0 -21.68,-173.79 -34.65,-190.32 -12.97,-16.52 -41.41,-12.96 -41.41,-12.96l-12.46 15.15z"/>
   <path class="fil11" d="M613.2 904.64c0,0 3.78,-19.61 -7.27,-26.51 -11.05,-6.9 -22.43,-5.67 -30.04,-1.03 -7.61,4.64 -11.69,20.02 -7.87,28.59l25.49 -9.22 19.69 8.17z"/>
   <path class="fil13" d="M581.42 937.05c0,0 8.78,5.2 15.63,0l-1.61 -12.71 -13.61 -2.8 -0.4 15.52z"/>
   <path class="fil14" d="M581.6 929.82l0.21 -8.29 13.81 4.3 0.39 3.11c-3.07,1.11 -8.89,2.46 -14.41,0.89z"/>
   <path class="fil15" d="M572.4 904.24c0.79,2.39 -0.18,4.82 -2.15,5.43 -1.98,0.61 -4.21,-0.83 -5,-3.23 -0.79,-2.39 0.18,-4.83 2.15,-5.43 1.98,-0.61 4.21,0.84 5,3.23z"/>
   <path class="fil13" d="M571.98 917.85c-0.52,-1.05 -0.93,-2.15 -1.24,-3.29 -0.9,-3.07 -1.22,-6.28 -1.27,-9.06 -0.01,-0.59 -0.06,-1.19 -0.11,-1.78 -0.23,-2.4 -0.02,-4.91 0.77,-7.44 2.52,-8.16 10.43,-13.85 19.22,-13.81 11.85,0.06 20.84,9.81 19.93,20.94 1.31,-0.57 2.72,-0.63 3.91,0 2.29,1.21 2.88,4.43 1.31,7.2 -1.56,2.77 -4.67,4.04 -6.96,2.83 -0.31,-0.17 -0.6,-0.38 -0.85,-0.62 -1.78,9.4 -10.39,16.1 -19.98,15.21 -4.69,-0.44 -8.8,-2.62 -11.76,-5.84 -0.2,-0.19 -0.41,-0.41 -0.63,-0.67 -0.95,-1.12 -1.72,-2.37 -2.35,-3.68z"/>
   <path class="fil16" d="M589.89 903.95c-0.09,0.93 0.61,1.76 1.57,1.85 0.96,0.08 1.81,-0.6 1.91,-1.53 0.09,-0.93 -0.61,-1.76 -1.57,-1.85 -0.96,-0.09 -1.81,0.59 -1.91,1.52z"/>
   <path class="fil16" d="M576.16 903.28c-0.09,0.93 0.61,1.76 1.57,1.85 0.96,0.09 1.81,-0.59 1.91,-1.53 0.09,-0.93 -0.61,-1.76 -1.57,-1.85 -0.96,-0.09 -1.81,0.59 -1.91,1.52z"/>
   <path class="fil11" d="M588.11 900.41c0.89,-0.26 1.73,-0.46 2.56,-0.57 0.83,-0.11 1.65,-0.11 2.45,0 0.79,0.12 1.58,0.31 2.33,0.68l0.29 0.12c0.1,0.04 0.19,0.1 0.28,0.15l0.57 0.3c0.39,0.2 0.74,0.46 1.17,0.67 -0.22,-0.39 -0.47,-0.78 -0.76,-1.13 -0.33,-0.31 -0.63,-0.69 -1.04,-0.93 -0.75,-0.58 -1.7,-0.92 -2.67,-1.06 -0.97,-0.14 -1.97,-0.03 -2.87,0.28 -0.89,0.32 -1.72,0.81 -2.32,1.5z"/>
   <path class="fil11" d="M582.39 899.87c-0.54,-0.74 -1.32,-1.3 -2.18,-1.7 -0.86,-0.39 -1.85,-0.58 -2.83,-0.53 -0.97,0.06 -1.95,0.32 -2.75,0.83 -0.43,0.21 -0.76,0.56 -1.12,0.84 -0.32,0.33 -0.61,0.69 -0.86,1.06 0.44,-0.17 0.82,-0.39 1.22,-0.57l0.6 -0.25c0.1,-0.04 0.19,-0.09 0.29,-0.12l0.3 -0.09c0.78,-0.3 1.59,-0.42 2.39,-0.47 0.8,-0.05 1.62,0.03 2.44,0.21 0.82,0.18 1.64,0.45 2.5,0.79z"/>
   <path class="fil15" d="M585.13 899.83c0.27,1.2 0.33,2.42 0.24,3.65 -0.04,0.61 -0.14,1.23 -0.3,1.85 -0.18,0.62 -0.41,1.24 -0.91,1.82l-0.21 0.2 -0.19 0.17c-0.08,0.09 -0.19,0.15 -0.25,0.24 -0.15,0.17 -0.26,0.35 -0.31,0.55 -0.14,0.4 0,0.86 0.26,1.3 0.56,0.88 1.67,1.46 2.85,1.85 -1.24,0.08 -2.65,-0.24 -3.6,-1.31 -0.46,-0.52 -0.77,-1.29 -0.61,-2.07 0.04,-0.19 0.1,-0.38 0.19,-0.56 0.08,-0.19 0.2,-0.33 0.31,-0.49 0.11,-0.16 0.27,-0.26 0.4,-0.4 0.09,-0.07 0.1,-0.09 0.14,-0.14l0.12 -0.11c0.31,-0.35 0.54,-0.86 0.73,-1.38 0.2,-0.52 0.32,-1.09 0.46,-1.66 0.25,-1.14 0.45,-2.32 0.68,-3.52z"/>
   <path class="fil0" d="M579.72 913.82c0.59,2.08 3.15,3.61 6.19,3.56 3.04,-0.05 5.54,-1.67 6.05,-3.77l-12.24 0.21z"/>
   <path class="fil11" d="M608.76 904.02c1.14,-1.07 2.06,-1.03 2.06,-1.03l-0.78 -6.27 -2.1 -3.71c0,0 -8.05,-9.89 -8.33,-10.14 -0.28,-0.24 -6.25,-3.3 -6.61,-3.46 -0.37,-0.15 -8.5,1.4 -8.5,1.4 0,0 -14.5,-2.38 -11.78,5.05 2.72,7.43 13.38,10.96 13.91,10.61 -1.77,-1.62 -2.13,-6.41 -2.13,-6.41 7.76,7.77 22.05,13.15 24.28,13.95z"/>
   <path class="fil31" d="M528.59 995.04c6.96,1.66 23.34,0.83 35.75,-0.14 0.1,-10.26 0.49,-19.81 1.39,-26.52 3.2,-23.81 14.23,-31.52 14.23,-31.52 11,1.31 18.64,-4.56 18.64,-4.56 14.75,0.18 23.28,8.17 23.28,8.17 22.66,19.55 5.51,59.54 5.51,59.54l6.22 52.83c-14.04,4.8 -71.44,1.91 -71.44,1.91 0,0 2.81,-16.82 2.39,-33.94 -18.19,-1.02 -35.98,-3.91 -35.98,-3.91 -0.71,-3.92 0,-21.86 0,-21.86z"/>
   <path class="fil32" d="M604.35 959.44c0.04,7.91 -3.43,15.53 -8.9,20.96 -2.73,2.73 -5.91,5.02 -9.33,6.83 -3.43,1.81 -7.04,3.3 -10.8,4.33 -0.47,0.14 -0.93,0.3 -1.4,0.42l-1.42 0.35c-0.95,0.22 -1.89,0.48 -2.85,0.69l-2.88 0.54 -1.44 0.27 -1.45 0.2c-1.94,0.28 -3.87,0.57 -5.83,0.71l-2.93 0.27c-0.98,0.07 -1.96,0.11 -2.94,0.17 -7.84,0.41 -15.72,0.26 -23.6,-0.14 7.82,1.02 15.73,1.59 23.65,1.39 7.91,-0.22 15.87,-1.06 23.54,-3.33 3.83,-1.09 7.56,-2.63 11.07,-4.54 3.49,-1.95 6.78,-4.35 9.51,-7.3 1.39,-1.44 2.59,-3.06 3.68,-4.74 1.05,-1.72 1.94,-3.51 2.66,-5.37 0.67,-1.88 1.18,-3.82 1.48,-5.78 0.3,-1.96 0.41,-3.96 0.19,-5.92z"/>
   <path class="fil32" d="M528.59 1016.9c8.59,1.92 17.33,3.2 26.11,3.98 8.78,0.78 17.63,1.01 26.46,0.46 8.8,-0.6 17.67,-1.91 26.01,-5.02 4.16,-1.54 8.17,-3.57 11.72,-6.27 3.52,-2.7 6.56,-6.08 8.51,-10.04 -2.27,3.77 -5.37,6.97 -8.97,9.41 -3.58,2.48 -7.56,4.32 -11.68,5.72 -4.12,1.4 -8.37,2.41 -12.68,3.13 -4.3,0.73 -8.65,1.2 -13.02,1.46 -8.73,0.57 -17.51,0.41 -26.26,-0.11 -4.38,-0.27 -8.75,-0.64 -13.12,-1.09 -4.37,-0.43 -8.72,-1 -13.08,-1.65z"/>
   <path class="fil16" d="M770.59 471.86c0,0 12.37,-9.15 38.53,-5.35 26.15,3.8 30.02,18.38 29.89,38.73l-2.07 16.63c0,0 -7.64,-0.49 -14.92,-21.32 0,0 -16.08,15.84 -22.33,13.29 -6.25,-2.55 3.57,-14.1 3.57,-14.1 0,0 -26.56,25.54 -44.21,24.04 0,0 -12.41,-33.33 1.63,-43.69 0,0 -9.92,-0.33 -10.29,-2.38 -0.36,-2.05 5.12,-4.62 14.53,-2.7 0,0 -5.67,-14.23 -1.78,-15.34 3.9,-1.11 7.46,12.19 7.46,12.19z"/>
   <path class="fil15" d="M810.22 521.5c1.08,1.66 2.01,3.4 2.87,5.18 0.85,1.78 1.6,3.61 2.2,5.52 0.28,0.96 0.53,1.94 0.63,2.99 0.01,0.27 0.02,0.54 -0.01,0.83 -0.01,0.15 -0.05,0.3 -0.07,0.45 -0.06,0.16 -0.1,0.32 -0.2,0.48 -0.06,0.08 -0.12,0.17 -0.18,0.24l-0.16 0.14c-0.09,0.09 -0.19,0.19 -0.3,0.27 -0.21,0.15 -0.42,0.31 -0.64,0.44 -0.87,0.56 -1.79,0.96 -2.72,1.32 -0.94,0.34 -1.88,0.63 -2.85,0.82 1.76,-0.89 3.52,-1.77 5.02,-2.91 0.19,-0.14 0.35,-0.3 0.52,-0.45l0.24 -0.24 0.11 -0.12 0.03 -0.06c0.11,-0.2 0.11,-0.69 0.06,-1.11 -0.11,-0.9 -0.36,-1.83 -0.64,-2.75 -0.56,-1.85 -1.25,-3.67 -1.91,-5.51 -0.68,-1.83 -1.36,-3.67 -1.99,-5.55z"/>
   <path class="fil23" d="M898.89 1059.78l0 0c-25.88,0 -46.86,-20.98 -46.86,-46.85l0 -182.93 93.72 0 0 182.93c0,25.88 -20.98,46.85 -46.85,46.85z"/>
   <polygon class="fil26" points="675.68,1261.86 1091.33,1261.86 1091.33,1203.14 675.68,1203.14 "/>
   <polygon class="fil33" points="675.68,1261.86 787.88,1261.86 787.88,1203.14 675.68,1203.14 "/>
   <path class="fil11" d="M1212.88 918.65c0,0 7.76,-7.48 -1.17,-15.6 0,0 5.47,-9.95 -5.6,-12.94 0,0 -1.87,-16.72 -17.38,-11.8 0,0 -12.12,-12.39 -22.05,-4.11 0,0 -10.69,-3.2 -14.8,9.13 0,0 -11.15,4.09 -6.67,17.81 0,0 -9.71,9.73 -2.14,21.75 0,0 -2.53,15.76 14.93,14.55 0.94,4.26 7.35,5.47 11.19,4.6 0,0 5.59,5.82 15.21,-0.15 1.22,1.02 7.62,5.99 11.6,1.59 0,0 13.07,2.46 11.68,-8.98 0,0 8.73,-5.62 5.19,-15.84z"/>
   <polygon class="fil13" points="1145.09,1099.32 1147.43,1248.25 1151.23,1259 1162.64,1248.25 1173.46,1095.51 "/>
   <path class="fil13" d="M1213.22 1104.37l-28.56 0c0,0 13.44,142.99 13.34,143.88 -0.09,0.89 4.82,7.31 4.82,7.31l10.39 -7.31 0 -143.88z"/>
   <polygon class="fil13" points="1145.09,1099.32 1147.43,1248.25 1151.23,1259 1162.64,1248.25 1173.46,1095.51 "/>
   <path class="fil13" d="M1213.22 1104.37l-28.56 0c0,0 13.44,142.99 13.34,143.88 -0.09,0.89 4.82,7.31 4.82,7.31l10.39 -7.31 0 -143.88z"/>
   <path class="fil18" d="M1138.26 1225.57c8.11,3.24 20.72,6.5 34.63,3.53l2.59 -118.93 1.93 -20.94c1.46,1.27 2.32,1.88 2.32,1.88l6.95 135.88c0,0 15.43,5.63 34.28,2.15 0.07,-8.17 -5,-132.91 -5.06,-138.7 -0.37,-41.83 -13.3,-47.95 -13.3,-47.95l-22.02 -5.57 -4.83 0.84c-7.69,-2.54 -21.61,-5.41 -27.34,4.19 -8.13,13.61 -7.65,55.56 -7.65,55.56 0,0 -2.57,122.31 -2.51,128.07z"/>
   <path class="fil13" d="M1155.58 999.96l-20.65 -9.56 1.89 21.86c0,0 -39.09,-17.74 -41.07,-19.53 -0.66,-0.6 -1.41,-2.16 -2.13,-3.98 -0.76,-1.93 -1.27,-3.92 -1.72,-5.94 -0.69,-3.03 -3.28,-5.46 -4.16,-6.26 -0.38,-0.34 -1.48,-2.41 -1.74,-3.35 -0.18,-0.64 -1.13,-0.59 -1.24,0.06l-0.2 1.37c-0.2,1.34 0.26,2.72 0.56,3.46l-0.54 -0.2 -0.9 9.19 1.1 8.04 6.18 4.66c0,0 54.46,39.2 59.45,34.08 5.35,-5.5 5.17,-33.91 5.17,-33.91z"/>
   <path class="fil34" d="M1150.88 953.71c0,0 -4.22,1 -10.35,8.58 -6.11,7.57 -11.56,28.5 -11.56,28.5l19.53 10.67 12.7 -25.28 -10.33 -22.46z"/>
   <path class="fil35" d="M1181.16 1085.97l1.15 -0.65c1.91,-1.09 3.82,-2.13 5.77,-3.12 1.95,-1 3.91,-1.97 5.91,-2.91 1.98,-0.93 3.99,-1.8 6.03,-2.63 1.02,-0.41 2.04,-0.81 3.07,-1.18 1.03,-0.39 2.08,-0.72 3.11,-1.06 -2.06,0.76 -4.08,1.57 -6.1,2.44 -2,0.87 -3.99,1.8 -5.96,2.74 -1.96,0.95 -3.92,1.93 -5.86,2.94 -1.56,0.82 -3.13,1.65 -4.67,2.5 1.02,-0.18 2.05,-0.31 3.08,-0.42 1.46,-0.15 2.93,-0.21 4.38,-0.21 0.04,0 0.08,0 0.11,0 1.42,0 2.85,0.08 4.25,0.26l1.09 0.14 1.07 0.19 0.54 0.1 0.53 0.13 1.06 0.26 -1.07 -0.2 -0.54 -0.11 -0.54 -0.07 -1.08 -0.15 -1.07 -0.1c-0.37,-0.04 -0.73,-0.06 -1.09,-0.08 -0.36,-0.01 -0.73,-0.04 -1.09,-0.05l-1.09 -0.02c-0.07,-0.01 -0.15,-0.01 -0.21,-0.01 -0.29,0 -0.58,0.02 -0.87,0.02 -1.44,0.03 -2.89,0.13 -4.34,0.29 -1.43,0.16 -2.88,0.38 -4.28,0.69l-1.29 0.29z"/>
   <path class="fil35" d="M1173.46 1085.14l-1.3 -0.29c-1.4,-0.31 -2.84,-0.53 -4.27,-0.69 -1.45,-0.16 -2.89,-0.26 -4.34,-0.29 -0.29,0 -0.58,-0.01 -0.87,-0.01 -0.08,0 -0.15,0 -0.21,0l-1.09 0.02c-0.36,0.01 -0.72,0.04 -1.09,0.05 -0.36,0.02 -0.73,0.04 -1.09,0.08l-1.07 0.1 -1.09 0.15 -0.54 0.08 -0.53 0.1 -1.07 0.2 1.05 -0.26 0.54 -0.13 0.54 -0.09 1.07 -0.19 1.07 -0.15c1.43,-0.17 2.84,-0.25 4.26,-0.25 0.04,0 0.08,0 0.11,0 1.47,0 2.93,0.07 4.37,0.21 1.04,0.1 2.06,0.24 3.09,0.42 -1.55,-0.85 -3.11,-1.67 -4.67,-2.49 -1.94,-1.01 -3.89,-1.99 -5.86,-2.94 -1.98,-0.94 -3.96,-1.87 -5.96,-2.74 -2.02,-0.87 -4.05,-1.69 -6.1,-2.45 1.04,0.34 2.08,0.67 3.11,1.06 1.03,0.37 2.05,0.77 3.08,1.18 2.02,0.83 4.04,1.7 6.03,2.63 1.97,0.94 3.95,1.91 5.89,2.9 1.96,1 3.88,2.04 5.78,3.12l1.15 0.66z"/>
   <path class="fil36" d="M1176.76 1051.74c-0.77,0 -1.54,-0 -2.31,-0.02 -3.63,-0.09 -7.26,-0.32 -10.87,-0.7 -1.8,-0.19 -3.61,-0.41 -5.4,-0.67 -1.8,-0.27 -3.59,-0.56 -5.37,-0.91 1.8,0.31 3.59,0.57 5.38,0.8 1.8,0.23 3.61,0.44 5.41,0.61 3.61,0.35 7.24,0.58 10.86,0.65 0.91,0.02 1.83,0.03 2.74,0.03 0.91,0 1.81,-0 2.7,-0.03 1.82,-0.05 3.63,-0.15 5.44,-0.29 1.81,-0.16 3.61,-0.37 5.39,-0.65 1.8,-0.29 3.57,-0.66 5.33,-1.12 -1.75,0.49 -3.51,0.89 -5.3,1.22 -1.78,0.31 -3.59,0.53 -5.41,0.71 -1.8,0.17 -3.62,0.26 -5.44,0.33 -1.05,0.03 -2.09,0.04 -3.15,0.04z"/>
   <path class="fil25" d="M1193.69 1056.19c0.08,0.21 0.19,0.41 0.29,0.61l0.31 0.6 0.63 1.19 1.06 1.97 3.02 5.24c0.42,0.8 4.39,7.69 5.31,9.23 -1.17,-1.39 -2.57,-2.77 -3.52,-4.3 -0.47,-0.77 -0.93,-1.56 -1.38,-2.33 -0.44,-0.78 -0.87,-1.57 -1.3,-2.37 -0.83,-1.59 -1.63,-3.2 -2.39,-4.83 -0.38,-0.82 -0.74,-1.64 -1.1,-2.47 -0.17,-0.41 -0.34,-0.83 -0.5,-1.24 -0.16,-0.43 -0.34,-0.84 -0.44,-1.28z"/>
   <path class="fil37" d="M1232.11 978.08c-8.88,-10.71 -19.14,-22.34 -28.11,-26.87 -3.44,-1.73 -11.58,-2.08 -16.31,-2.85 0,0 -12.35,-1.52 -24.54,0.09 -6.57,2.4 -18.04,6.47 -18.19,10.37 -0.75,19.44 -0.96,34.35 -0.87,45.78 0,0.04 -0.32,41.44 -0.02,50.28 0,0 45.01,9.7 68.02,3.87 0,0 3.8,-54.15 -1.66,-68.78l2.33 2.96c0,0 9.26,-2.11 19.34,-14.85z"/>
   <path class="fil13" d="M1230.74 979.77c-6.1,7.43 -12.86,11.37 -16.24,12.61l21.77 26.07 -39.82 42.92 7.01 12.21c5.54,-2.69 6.79,-12.87 6.79,-12.87 0,0 49.27,-32.95 49.27,-40.83 0,-10.56 -28.78,-40.11 -28.78,-40.11z"/>
   <path class="fil38" d="M1231.09 979.25c-0.34,0.38 -0.64,0.79 -1,1.16l-1.06 1.12 -0.52 0.57 -0.55 0.54 -1.11 1.06c-0.37,0.35 -0.76,0.68 -1.14,1.02 -0.75,0.69 -1.59,1.28 -2.38,1.93 -1.65,1.22 -3.36,2.33 -5.16,3.3l-0.67 0.36c-0.22,0.12 -0.46,0.22 -0.69,0.33 -0.45,0.22 -0.92,0.43 -1.39,0.63 -0.24,0.11 -0.47,0.19 -0.71,0.28 -0.23,0.1 -0.47,0.19 -0.7,0.27 -0.33,0.11 -0.66,0.23 -0.99,0.33l-2.37 -2.86 -2.71 -3.17c-1.8,-2.13 -3.63,-4.22 -5.46,-6.33 -1.85,-2.09 -3.69,-4.18 -5.56,-6.24 -1.87,-2.07 -3.76,-4.13 -5.7,-6.14 1.66,2.24 3.36,4.43 5.08,6.63 1.72,2.19 3.46,4.35 5.21,6.52 1.77,2.15 3.52,4.31 5.31,6.44l2.68 3.2 2.71 3.18 0.29 0.35 0.43 -0.11c0.57,-0.15 1.06,-0.31 1.57,-0.5 0.5,-0.19 1,-0.39 1.48,-0.61 0.49,-0.22 0.98,-0.44 1.44,-0.69 0.22,-0.12 0.47,-0.24 0.7,-0.37l0.7 -0.39c1.84,-1.05 3.54,-2.29 5.17,-3.61l1.18 -1.04c0.39,-0.34 0.75,-0.71 1.13,-1.08 0.36,-0.37 0.74,-0.73 1.09,-1.11l1.03 -1.17 0.52 -0.59 0.48 -0.6 0.95 -1.23c0.61,-0.82 1.16,-1.7 1.74,-2.54l-1.02 1.17z"/>
   <path class="fil13" d="M1167.82 948.02c0,0 8.93,5.29 15.89,0l-1.63 -12.94 -13.86 -2.85 -0.4 15.78z"/>
   <path class="fil14" d="M1168.01 940.66l0.21 -8.43 14.06 4.36 0.39 3.17c-3.12,1.13 -9.05,2.51 -14.67,0.9z"/>
   <path class="fil15" d="M1157.91 911.16c0.37,2.54 -1.01,4.8 -3.1,5.07 -2.07,0.27 -4.07,-1.56 -4.45,-4.1 -0.37,-2.53 1.02,-4.8 3.09,-5.07 2.09,-0.28 4.09,1.56 4.46,4.09z"/>
   <path class="fil13" d="M1155.14 924.73c-0.33,-1.14 -0.56,-2.31 -0.69,-3.5 -0.37,-3.24 -0.13,-6.51 0.3,-9.3 0.09,-0.6 0.15,-1.2 0.19,-1.81 0.18,-2.45 0.82,-4.93 2.05,-7.33 3.93,-7.75 12.85,-12.09 21.65,-10.54 11.87,2.1 19.22,13.43 16.39,24.43 1.4,-0.35 2.84,-0.16 3.91,0.67 2.09,1.61 2.13,4.94 0.09,7.44 -2.04,2.52 -5.39,3.25 -7.48,1.64 -0.28,-0.22 -0.53,-0.48 -0.74,-0.77 -3.4,9.12 -13.19,14.36 -22.65,11.82 -4.64,-1.25 -8.39,-4.13 -10.8,-7.88 -0.17,-0.22 -0.34,-0.48 -0.52,-0.78 -0.75,-1.29 -1.31,-2.67 -1.72,-4.1z"/>
   <path class="fil16" d="M1176.85 913.87c-0.25,0.92 0.31,1.87 1.27,2.12 0.95,0.26 1.92,-0.28 2.17,-1.2 0.26,-0.91 -0.31,-1.86 -1.27,-2.12 -0.94,-0.26 -1.92,0.28 -2.17,1.2z"/>
   <path class="fil16" d="M1161.83 910.84c-0.25,0.92 0.31,1.87 1.27,2.13 0.94,0.25 1.92,-0.28 2.17,-1.2 0.25,-0.92 -0.31,-1.87 -1.26,-2.13 -0.95,-0.25 -1.93,0.28 -2.19,1.2z"/>
   <path class="fil11" d="M1175.68 910.01c0.94,-0.11 1.81,-0.16 2.68,-0.13 0.85,0.03 1.67,0.17 2.46,0.43 0.76,0.26 1.52,0.59 2.21,1.08l0.28 0.17c0.09,0.06 0.17,0.13 0.25,0.19l0.52 0.4c0.35,0.28 0.66,0.59 1.06,0.87 -0.15,-0.43 -0.33,-0.86 -0.57,-1.27 -0.27,-0.37 -0.5,-0.8 -0.87,-1.11 -0.66,-0.71 -1.55,-1.22 -2.49,-1.52 -0.95,-0.31 -1.98,-0.37 -2.93,-0.21 -0.95,0.17 -1.86,0.52 -2.59,1.11z"/>
   <path class="fil11" d="M1168.67 908.5c-0.4,-0.84 -1.1,-1.53 -1.88,-2.07 -0.8,-0.54 -1.76,-0.91 -2.75,-1.02 -0.99,-0.11 -2.02,-0.02 -2.9,0.35 -0.47,0.14 -0.87,0.43 -1.27,0.66 -0.38,0.27 -0.73,0.59 -1.06,0.91 0.48,-0.1 0.9,-0.26 1.32,-0.36l0.65 -0.14c0.1,-0.03 0.2,-0.06 0.31,-0.08l0.31 -0.04c0.83,-0.17 1.66,-0.15 2.48,-0.06 0.82,0.09 1.61,0.31 2.41,0.63 0.79,0.32 1.57,0.73 2.37,1.22z"/>
   <path class="fil15" d="M1171.43 908.93c0.07,1.25 -0.09,2.48 -0.39,3.7 -0.15,0.61 -0.35,1.2 -0.62,1.8 -0.29,0.58 -0.63,1.17 -1.22,1.67l-0.25 0.17 -0.21 0.14c-0.1,0.07 -0.22,0.11 -0.29,0.2 -0.19,0.14 -0.32,0.31 -0.41,0.5 -0.21,0.38 -0.15,0.87 0.03,1.35 0.42,0.98 1.43,1.75 2.54,2.34 -1.24,-0.13 -2.61,-0.69 -3.37,-1.93 -0.38,-0.61 -0.56,-1.43 -0.26,-2.19 0.07,-0.19 0.16,-0.37 0.28,-0.52 0.11,-0.17 0.26,-0.3 0.41,-0.44 0.13,-0.14 0.3,-0.22 0.46,-0.33 0.1,-0.06 0.12,-0.09 0.17,-0.12l0.14 -0.09c0.37,-0.3 0.69,-0.77 0.97,-1.26 0.29,-0.49 0.5,-1.04 0.75,-1.58 0.45,-1.11 0.85,-2.25 1.29,-3.41z"/>
   <path class="fil0" d="M1163.61 922.03c0.24,2.18 2.54,4.16 5.58,4.63 3.06,0.47 5.85,-0.73 6.73,-2.74l-12.31 -1.89z"/>
   <polygon class="fil25" points="1077.7,856 1091.56,1167.43 1094.35,1167.35 1080.5,855.98 "/>
   <path class="fil13" d="M1079.21 986.41c-0.03,-0.44 0.1,-1.85 0.16,-2.15 0.17,-0.83 0.8,-1.5 1.65,-1.76l0.95 -0.29 0.09 2.15c-0.09,1.64 -0.12,1.52 2.16,2.51 3.24,1.41 1.89,3.1 1.89,3.1 0,0 -0.9,1.21 -4.87,-0.77 0,0 -1.91,-1 -2.03,-2.79z"/>
   <path class="fil13" d="M1078.87 988.25c-0.03,-0.42 0.09,-1.76 0.15,-2.04 0.17,-0.8 0.77,-1.44 1.57,-1.69l0.91 -0.27 0.08 2.04 0 0.01c-0.08,1.56 -0.11,1.44 2.06,2.39 3.08,1.34 1.79,2.96 1.79,2.96 0,0 -0.85,1.15 -4.63,-0.74 0,0 -1.81,-0.95 -1.93,-2.65z"/>
   <path class="fil13" d="M1079.37 990.7c-0.02,-0.35 0.08,-1.48 0.13,-1.72 0.14,-0.67 0.65,-1.22 1.32,-1.42l0.77 -0.24 0.07 1.73c-0.06,1.33 -0.09,1.23 1.74,2.03 2.61,1.13 1.52,2.5 1.52,2.5 0,0 -0.72,0.97 -3.91,-0.63 0,0 -1.54,-0.8 -1.63,-2.25z"/>
   <path class="fil13" d="M1079.91 983.77c-0.03,-0.44 0.1,-1.84 0.16,-2.15 0.17,-0.83 0.81,-1.51 1.65,-1.76l0.96 -0.29 0.09 2.15 0 0c-0.08,1.63 -0.11,1.52 2.16,2.51 3.24,1.41 1.89,3.11 1.89,3.11 0,0 -0.9,1.21 -4.86,-0.78 0,0 -1.9,-1 -2.03,-2.78z"/>
   <path class="fil15" d="M1082.76 981.72c0,0.36 -0.01,0.73 0.05,1.07 0.06,0.35 0.38,0.56 0.71,0.71 0.66,0.31 1.36,0.54 2.04,0.89 0.16,0.09 0.33,0.18 0.49,0.28 0.15,0.11 0.31,0.21 0.45,0.35 0.3,0.24 0.54,0.57 0.67,0.95 0.13,0.38 0.09,0.81 -0.07,1.18 -0.04,0.09 -0.09,0.18 -0.15,0.27 -0.08,0.11 -0.17,0.16 -0.26,0.22 -0.19,0.11 -0.39,0.16 -0.59,0.2 -0.4,0.05 -0.79,0.03 -1.17,-0.04 -0.38,-0.06 -0.75,-0.17 -1.11,-0.28 -0.72,-0.24 -1.4,-0.55 -2.06,-0.91 -0.64,-0.41 -1.2,-0.94 -1.56,-1.6 -0.17,-0.34 -0.28,-0.7 -0.32,-1.06 -0.03,-0.19 0,-0.37 0.01,-0.55l0.04 -0.54 0.01 0.54c0.01,0.18 -0.01,0.36 0.03,0.54 0.07,0.35 0.2,0.68 0.39,0.98 0.37,0.61 0.93,1.1 1.54,1.46 0.65,0.3 1.33,0.62 2.03,0.84 0.69,0.2 1.43,0.37 2.11,0.27 0.17,-0.03 0.33,-0.07 0.47,-0.15 0.06,-0.04 0.14,-0.09 0.16,-0.12 0.04,-0.06 0.08,-0.13 0.12,-0.21 0.13,-0.3 0.17,-0.63 0.06,-0.94 -0.1,-0.31 -0.3,-0.6 -0.57,-0.83 -0.11,-0.13 -0.28,-0.22 -0.41,-0.33 -0.14,-0.1 -0.3,-0.19 -0.45,-0.29 -0.63,-0.35 -1.33,-0.61 -1.99,-0.97 -0.17,-0.09 -0.33,-0.19 -0.47,-0.33 -0.13,-0.14 -0.22,-0.33 -0.25,-0.52 -0.04,-0.37 0.01,-0.72 0.05,-1.09z"/>
   <path class="fil15" d="M1085.59 987.68c0.45,0.33 0.85,0.82 0.88,1.42 0,0.3 -0.07,0.59 -0.22,0.85 -0.03,0.06 -0.09,0.15 -0.16,0.19 -0.06,0.05 -0.13,0.1 -0.2,0.13 -0.14,0.07 -0.28,0.12 -0.43,0.15 -0.6,0.12 -1.2,0.04 -1.77,-0.09 -0.56,-0.14 -1.12,-0.33 -1.65,-0.56 -0.27,-0.11 -0.52,-0.24 -0.78,-0.37 -0.27,-0.13 -0.51,-0.3 -0.74,-0.48 -0.45,-0.37 -0.85,-0.8 -1.11,-1.33 -0.14,-0.26 -0.22,-0.54 -0.28,-0.82 -0.01,-0.14 -0.04,-0.28 -0.03,-0.42l0.02 -0.43c0.05,-0.56 0.11,-1.11 0.24,-1.66 -0.04,0.56 -0.07,1.11 -0.06,1.67l0 0.41c0,0.14 0.04,0.26 0.06,0.4 0.07,0.26 0.16,0.51 0.3,0.74 0.27,0.46 0.65,0.86 1.08,1.2 0.22,0.16 0.44,0.32 0.69,0.43 0.26,0.12 0.51,0.24 0.77,0.35 0.51,0.23 1.04,0.42 1.58,0.56 0.54,0.14 1.09,0.22 1.63,0.15 0.25,-0.04 0.53,-0.14 0.65,-0.32 0.14,-0.22 0.23,-0.48 0.24,-0.74 0.01,-0.26 -0.06,-0.53 -0.19,-0.76 -0.13,-0.24 -0.31,-0.45 -0.52,-0.65z"/>
   <path class="fil15" d="M1085.6 990.3c0.19,0.36 0.19,0.81 0.02,1.2 -0.04,0.09 -0.09,0.19 -0.19,0.28 -0.09,0.08 -0.19,0.14 -0.29,0.18 -0.2,0.09 -0.42,0.13 -0.63,0.16 -0.87,0.07 -1.69,-0.18 -2.47,-0.46 -0.38,-0.16 -0.76,-0.32 -1.13,-0.51 -0.39,-0.19 -0.72,-0.44 -1.02,-0.73 -0.3,-0.29 -0.56,-0.62 -0.74,-0.99 -0.18,-0.37 -0.29,-0.77 -0.28,-1.18 0.13,0.8 0.62,1.46 1.21,1.96 0.31,0.25 0.63,0.48 0.99,0.63 0.37,0.18 0.73,0.33 1.11,0.48 0.37,0.14 0.75,0.28 1.14,0.37 0.38,0.1 0.78,0.16 1.17,0.15 0.19,-0.01 0.39,-0.03 0.56,-0.09 0.09,-0.03 0.17,-0.07 0.24,-0.12 0.07,-0.05 0.11,-0.13 0.16,-0.21 0.2,-0.33 0.24,-0.74 0.14,-1.12z"/>
   <path class="fil15" d="M1084.75 991.95c0.28,0.24 0.48,0.59 0.48,0.99 0,0.2 -0.05,0.39 -0.13,0.57l-0.07 0.13 -0.13 0.12c-0.08,0.06 -0.18,0.11 -0.28,0.15 -0.39,0.13 -0.8,0.12 -1.18,0.07 -0.39,-0.05 -0.75,-0.15 -1.11,-0.28 -0.36,-0.13 -0.7,-0.27 -1.04,-0.44 -0.16,-0.09 -0.34,-0.15 -0.5,-0.27 -0.17,-0.1 -0.31,-0.22 -0.46,-0.35 -0.56,-0.5 -0.98,-1.21 -0.96,-1.95 0.12,0.72 0.6,1.31 1.15,1.74 0.14,0.11 0.28,0.21 0.44,0.3 0.14,0.09 0.31,0.15 0.48,0.23 0.33,0.15 0.67,0.29 1.01,0.4 0.34,0.12 0.7,0.22 1.04,0.28 0.35,0.07 0.71,0.09 1.03,0 0.08,-0.02 0.15,-0.05 0.22,-0.09l0.08 -0.06 0.06 -0.09c0.09,-0.13 0.15,-0.3 0.17,-0.46 0.02,-0.17 0,-0.34 -0.05,-0.51 -0.06,-0.17 -0.15,-0.32 -0.26,-0.47z"/>
   <path class="fil9" d="M1137.2 878.66c0,33.79 -24.6,61.19 -54.95,61.19 -30.34,0 -54.94,-27.4 -54.94,-61.19 0,-33.8 24.6,-61.19 54.94,-61.19 30.35,0 54.95,27.39 54.95,61.19z"/>
   <path class="fil39" d="M1132.61 878.66c0,30.97 -22.55,56.08 -50.35,56.08 -27.81,0 -50.35,-25.11 -50.35,-56.08 0,-30.97 22.54,-56.08 50.35,-56.08 27.81,0 50.35,25.11 50.35,56.08z"/>
   <polygon class="fil13" points="1076.22,934.15 1089.31,934.15 1089.31,919.59 1076.22,919.59 "/>
   <path class="fil15" d="M1089.31 928.32l0 -8.73 -13.09 0 0 7.43c2.81,1.69 6.99,2.65 13.09,1.3z"/>
   <path class="fil13" d="M1109.95 893.54c-1.36,-0.75 -2.95,-0.62 -4.38,0.19 0.49,-14.37 -10.04,-26.45 -23.31,-25.94 -13.27,-0.51 -23.81,11.57 -23.31,25.94 -1.44,-0.81 -3.02,-0.94 -4.39,-0.19 -2.62,1.43 -3.43,5.56 -1.82,9.19 1.62,3.65 5.05,5.43 7.67,4 0.36,-0.2 0.69,-0.46 0.98,-0.75 1.5,11.87 10.41,20.78 20.87,20.61 10.46,0.17 19.37,-8.74 20.87,-20.61 0.3,0.3 0.61,0.55 0.98,0.75 2.63,1.43 6.06,-0.35 7.67,-4 1.62,-3.64 0.8,-7.76 -1.82,-9.19z"/>
   <path class="fil16" d="M1066.31 862.1c0,0 6.57,-6.2 21.5,-5.2 14.93,1 17.78,9.69 18.63,22.08l-0.87 14.75c0,0 -3.88,-4.44 -8.93,-16.75 0,0 -8.35,10.44 -12,9.21 -3.64,-1.24 1.38,-8.76 1.38,-8.76 0,0 -17.04,16.32 -27.07,16.3 0,0 -5.31,-19.11 2.14,-26.12 0,0 -5.61,0.3 -5.91,-0.93 -0.3,-1.22 2.68,-3.06 8.07,-2.37 0,0 -3.84,-8.38 -1.7,-9.25 2.15,-0.87 4.76,7.05 4.76,7.05z"/>
   <path class="fil0" d="M1090.82 910.5c-0.57,2.88 -3.54,5.15 -7.17,5.27 -3.63,0.12 -6.7,-1.94 -7.44,-4.77l14.6 -0.5z"/>
   <path class="fil13" d="M1080.97 933.06l-4.75 1.09 0 0.18c1.98,0.26 3.99,0.41 6.04,0.41 2.39,0 4.75,-0.19 7.06,-0.55l0 -0.03 -0.75 -0.66 -7.59 -0.44z"/>
   <path class="fil11" d="M1059.68 850.59l-5.51 -13.43 2.21 -0.05 2.77 6.98c1.02,2.6 1.44,3.83 1.69,4.61l0.03 0c0.17,-0.7 0.61,-1.94 1.45,-4.51l2.57 -7.29 2.16 -0.06 -5.06 13.69 -2.31 0.06z"/>
   <path class="fil11" d="M1070.08 843.45c0.06,2.83 1.6,5.29 4.47,5.22 2.85,-0.07 4.2,-2.57 4.15,-5.34 -0.06,-2.71 -1.57,-5.19 -4.47,-5.12 -2.73,0.07 -4.2,2.52 -4.15,5.24zm10.75 -0.22c0.07,3.81 -2.17,7.17 -6.33,7.27 -3.96,0.09 -6.46,-2.98 -6.54,-6.95 -0.08,-3.76 2.37,-7.09 6.33,-7.19 3.98,-0.1 6.47,3.12 6.55,6.87z"/>
   <polygon class="fil11" points="1086.28,838.22 1081.72,838.33 1081.69,836.47 1092.81,836.19 1092.85,838.06 1088.3,838.17 1088.54,849.87 1086.51,849.91 "/>
   <polygon class="fil11" points="1104.15,843.3 1096.97,843.48 1097.06,847.79 1105,847.59 1104.77,849.46 1095.08,849.7 1094.81,836.14 1104.38,835.9 1104.42,837.76 1096.86,837.95 1096.94,841.62 1104.12,841.44 "/>
   <path class="fil11" d="M1195.61 892.72l0.55 12.47 -29.16 -7.03c0,0 -3.19,2.84 -3.67,2.78 -0.48,-0.07 -4.19,-1.63 -4.05,-2.16 0.15,-0.53 10.26,-13.96 10.26,-13.96 0,0 9.67,2.19 10.53,2.42 0.86,0.23 15.54,5.48 15.54,5.48z"/>
   <path class="fil9" d="M1195.62 912.23c0,0 -14.8,-13.07 -39.39,-7.75 0,0 -0.03,-0.1 -0.07,-0.28 -0.69,-3.56 1.54,-7.01 5.04,-7.95 5.63,-1.54 17.87,-2.75 33.71,7.94 2.6,1.76 3.12,5.48 0.98,7.79 -0.08,0.08 -0.17,0.17 -0.26,0.26z"/>
   <polygon class="fil13" points="1357.77,973.17 1344.9,974.88 1340.76,943.71 1353.63,942 "/>
   <path class="fil13" d="M1370.31 912.52c-1.42,-0.49 -2.96,-0.16 -4.27,0.74 -1.2,-12.72 -12.94,-22 -25.92,-19.82 -13.08,1.28 -22.01,13.29 -19.84,25.89 -1.5,-0.53 -3.07,-0.44 -4.33,0.4 -2.4,1.61 -2.72,5.34 -0.72,8.35 2.02,3 5.59,4.13 8,2.52 0.33,-0.23 0.61,-0.5 0.87,-0.79 2.86,10.27 12.65,16.95 22.88,15.45 10.28,-1.22 18,-10.22 18.07,-20.88 0.32,0.22 0.67,0.41 1.04,0.54 2.75,0.93 5.91,-1.1 7.07,-4.52 1.15,-3.42 -0.12,-6.94 -2.87,-7.87z"/>
   <path class="fil16" d="M1337.97 921.56c0.2,1.05 -0.49,2.07 -1.55,2.27 -1.05,0.2 -2.07,-0.5 -2.26,-1.55 -0.2,-1.05 0.49,-2.07 1.55,-2.26 1.06,-0.2 2.06,0.5 2.26,1.54z"/>
   <path class="fil16" d="M1354.57 919.54c0.2,1.06 -0.49,2.07 -1.55,2.27 -1.05,0.2 -2.07,-0.49 -2.28,-1.55 -0.19,-1.05 0.5,-2.06 1.56,-2.26 1.06,-0.2 2.06,0.5 2.26,1.54z"/>
   <path class="fil16" d="M1339.57 917.35c-1.01,-0.2 -1.95,-0.35 -2.89,-0.39 -0.93,-0.04 -1.84,0.03 -2.71,0.24 -0.85,0.22 -1.72,0.52 -2.5,1.01l-0.31 0.16c-0.11,0.06 -0.2,0.14 -0.29,0.2l-0.61 0.4c-0.4,0.27 -0.77,0.6 -1.22,0.88 0.2,-0.47 0.44,-0.94 0.73,-1.37 0.33,-0.39 0.62,-0.85 1.04,-1.17 0.77,-0.73 1.79,-1.22 2.85,-1.48 1.06,-0.26 2.18,-0.23 3.2,0.04 1.02,0.28 1.98,0.75 2.72,1.48z"/>
   <path class="fil16" d="M1347.32 916.29c0.52,-0.9 1.32,-1.61 2.23,-2.15 0.92,-0.54 1.98,-0.86 3.07,-0.89 1.09,-0.04 2.2,0.17 3.14,0.67 0.5,0.2 0.9,0.56 1.32,0.85 0.39,0.34 0.74,0.72 1.07,1.12 -0.52,-0.14 -0.95,-0.36 -1.41,-0.52l-0.7 -0.22c-0.11,-0.03 -0.21,-0.08 -0.32,-0.11l-0.35 -0.08c-0.9,-0.26 -1.8,-0.31 -2.69,-0.3 -0.89,0.02 -1.78,0.2 -2.67,0.49 -0.89,0.29 -1.77,0.68 -2.69,1.15z"/>
   <path class="fil40" d="M1364.76 888.19c-4.7,-7.5 -21.58,-11.55 -31.69,-8.79 0,0 0.31,2.61 1.35,3.94 -1.21,-1.19 -5.86,-4.68 -15.83,-0.89 0,0 1.83,3.19 2.76,4.36 0,0 -3.6,0.46 -6.72,-0.57 0,0 -2.53,5.95 0.73,10.94l-3.68 -0.93c0,0 2.74,11.96 5.13,19.2 0.44,2.22 0.83,3.63 0.83,3.63 0.19,-0.02 2.19,-0.57 5.3,1.83 0.17,-0.11 0.33,-0.23 0.54,-0.37 2.14,-1.47 1.23,-11.9 4.34,-16.55 5.94,-3.5 19.78,-5.8 24.91,-4.85 5.97,1.09 8,15.07 10.87,16.08 0.22,0.08 0.44,0.15 0.61,0.22 1.83,-3.28 4.45,-3.1 4.64,-3.13 0,0 0.59,-16.62 -4.1,-24.11z"/>
   <path class="fil15" d="M1343.43 915.11c0.8,0.98 1.51,2.02 2.17,3.09 0.66,1.07 1.26,2.19 1.77,3.35 0.25,0.59 0.47,1.2 0.61,1.86 0.02,0.17 0.04,0.34 0.06,0.53 0,0.09 -0.01,0.19 -0.02,0.29 -0.02,0.11 -0.04,0.21 -0.1,0.32l-0.09 0.17 -0.09 0.09c-0.06,0.07 -0.11,0.13 -0.17,0.19 -0.13,0.11 -0.25,0.22 -0.38,0.33 -0.5,0.41 -1.07,0.73 -1.64,1.02 -0.57,0.28 -1.14,0.53 -1.75,0.72 1.06,-0.69 2.11,-1.37 2.99,-2.2 0.1,-0.1 0.2,-0.21 0.29,-0.32l0.13 -0.17 0.07 -0.08 0.01 -0.05c0.07,-0.13 0.04,-0.44 -0.03,-0.7 -0.13,-0.57 -0.36,-1.14 -0.59,-1.7 -0.48,-1.13 -1.04,-2.24 -1.59,-3.36 -0.56,-1.12 -1.12,-2.24 -1.65,-3.39z"/>
   <path class="fil0" d="M1351.28 930.7c-0.21,1.98 -2.25,3.75 -4.95,4.14 -2.7,0.39 -5.16,-0.73 -5.93,-2.57l10.89 -1.56z"/>
   <path class="fil13" d="M1332.33 952l31.67 -4.2 -6.72 15.25c0,0 -14.1,2.54 -15.49,2.06 -1.39,-0.48 -9.46,-13.11 -9.46,-13.11z"/>
   <path class="fil18" d="M1324.5 1050.08c0,0 -14,124.88 -11.74,168.4l24.73 2.95 25.76 -144.48 3.25 0.12 16.6 145.32 22.46 0c0,0 3.7,-145.06 -8.41,-185.93 -12.11,-40.88 -72.65,13.62 -72.65,13.62z"/>
   <path class="fil13" d="M1333.2 1227.79l-0.52 18.08 -11.99 8.71c0,0 -4.56,-8.69 -4.45,-9.75 0.11,-1.06 0,-21.8 0,-21.8l16.96 4.76z"/>
   <path class="fil13" d="M1387.28 1227.79l0.52 18.08 12.01 8.71c0,0 3.93,-8.69 3.82,-9.75 -0.12,-1.06 0.63,-21.8 0.63,-21.8l-16.97 4.76z"/>
   <path class="fil41" d="M1312.06 1216.86l26.02 3.1c0.72,0.08 1.21,0.76 1.07,1.47l-1.76 9.17c-0.12,0.65 -0.74,1.09 -1.39,1l-24.38 -3.36c-0.62,-0.09 -1.07,-0.62 -1.07,-1.25l0.1 -8.91c0.02,-0.74 0.67,-1.31 1.4,-1.22z"/>
   <path class="fil13" d="M1296.57 976.81l8.04 -23.55 -6.68 -1.49c-14.16,-0.43 -27.51,-7.04 -29.67,-9.29 -4.57,-4.76 11.58,-36.67 11.58,-36.67l-12.5 -2.53c0,0 -28.75,38.53 -16.49,51.7 12.26,13.17 42.31,21.51 42.31,21.51l3.42 0.31z"/>
   <path class="fil13" d="M1404.93 962.43l-13.9 -20.64 6.07 -3.18c13.55,-4.11 24.73,-13.97 26.22,-16.7 3.19,-5.79 -20.73,-32.38 -20.73,-32.38l11.4 -5.7c0,0 37.8,29.71 29.39,45.61 -8.41,15.91 -35.24,31.8 -35.24,31.8l-3.22 1.19z"/>
   <path class="fil41" d="M1407.74 1217.56l-26.02 3.1c-0.72,0.08 -1.21,0.77 -1.06,1.47l1.76 9.17c0.12,0.65 0.73,1.09 1.39,1l24.37 -3.37c0.62,-0.09 1.09,-0.62 1.07,-1.25l-0.1 -8.91c-0.01,-0.74 -0.66,-1.31 -1.4,-1.22z"/>
   <path class="fil23" d="M1410.64 962.22l-13.36 -25.18c-8.22,3.73 -21.06,7.08 -27.62,8.67 -2.72,0.67 -5.31,1.76 -7.69,3.24 -0.09,0.06 -0.18,0.11 -0.27,0.16 -8.02,4.98 -17.76,6.27 -26.8,3.56 -0.1,-0.02 -0.2,-0.06 -0.3,-0.09 -2.67,-0.81 -5.47,-1.19 -8.26,-1.12 -6.76,0.18 -20.04,0.29 -28.94,-1.17l-6.34 27.8c13.63,2.92 25.95,2.31 25.95,2.31l4.04 80.01c27.61,2.55 55.43,-1.09 81.46,-10.65l0.64 -0.24 -16.96 -78.29c0,0 12.06,-2.63 24.45,-9z"/>
   <path class="fil0" d="M1434.56 881.12l-193.58 25.68c-4,0.53 -7.68,-2.28 -8.2,-6.28l-13.65 -102.84c-0.52,-4 2.29,-7.68 6.28,-8.2l193.58 -25.68c4.01,-0.53 7.68,2.28 8.2,6.28l13.65 102.84c0.52,4 -2.28,7.68 -6.28,8.2z"/>
   <path class="fil13" d="M1280.9 901.48c0,0 3.59,-1.43 3.69,-4.4 0.1,-2.98 2.09,-1.59 2.26,-0.3 0.17,1.29 2.26,7.18 -7.02,9.03 -9.29,1.85 -12.5,-2.53 -12.5,-2.53l13.57 -1.8z"/>
   <path class="fil13" d="M1400.43 885.63c0,0 -3.84,-0.44 -4.7,-3.29 -0.88,-2.84 -2.44,-0.99 -2.27,0.3 0.17,1.29 -0.31,7.52 9.13,6.89 9.45,-0.64 11.41,-5.7 11.41,-5.7l-13.57 1.8z"/>
   <polygon class="fil10" points="1416.63,791.78 1235.56,815.8 1234.63,808.85 1415.71,784.83 "/>
   <polygon class="fil10" points="1419.45,813.07 1238.38,837.09 1237.45,830.14 1418.53,806.12 "/>
   <polygon class="fil10" points="1422.28,834.35 1241.19,858.37 1240.28,851.42 1421.36,827.4 "/>
   <polygon class="fil10" points="1395.92,859.5 1273.2,875.78 1272.28,868.83 1395,852.56 "/>
   <path class="fil42" d="M1569.58 1275.88l-1401.47 0c-4.03,0 -7.3,-3.27 -7.3,-7.3 0,-4.03 3.27,-7.3 7.3,-7.3l1401.47 0c4.02,0 7.29,3.26 7.29,7.3 0,4.03 -3.26,7.3 -7.29,7.3z"/>
   <path class="fil13" d="M382.93 931.16l0.65 9.19c0,0 14.44,4.07 14.74,3.95 0.3,-0.12 3.48,-2 3.48,-2l-0.38 -4.03c0,0 -0.17,-3.81 0.04,-4.66 0.2,-0.86 -16.11,-4.17 -16.11,-4.17l-2.41 1.72z"/>
   <path class="fil43" d="M403.05 942.74c0,0 39.55,11.52 57.29,47.17 1.72,3.45 1.28,7.59 -1.17,10.57 -5.39,6.56 -17.36,18.03 -39.81,25.86 0,0 -4.2,-1.4 -4.73,-6.83 0,0 21.37,-19.44 26.79,-23.99l-29.94 -23.46 -8.43 -29.33z"/>
   <path class="fil13" d="M413.27 1023.75l6.94 -4.68 3.43 5.69c0,0 -4.79,17.78 -5.27,22.7 0,0 -1.75,0.56 -1.99,-0.46 -0.24,-1.02 -3.11,-23.26 -3.11,-23.26z"/>
   <path class="fil11" d="M369.91 908.93c0,0 -4.48,-18.39 6.19,-25.28 10.68,-6.88 21.99,-6.12 29.7,-1.99 7.71,4.13 12.32,18.52 8.87,26.73l-25.58 -7.85 -19.18 8.39z"/>
   <polygon class="fil13" points="412.68,1249.45 408.08,1233.86 423.02,1232.27 423.93,1233.3 426.44,1247.37 419.38,1254.48 "/>
   <polygon class="fil13" points="319.15,1230.04 326.91,1215.76 338.6,1225.2 338.52,1226.57 330.35,1238.3 320.32,1238.33 "/>
   <path class="fil13" d="M302.99 910.44c-0.2,0.35 -0.72,0.35 -0.9,-0.02 -1.43,-2.8 -5.98,-11.61 -6.77,-11.41 -0.95,0.24 2.93,8.21 2.29,8.85 -0.64,0.65 -4.22,-7.22 -5.19,-6.8 -0.97,0.42 2.53,7.48 2.19,7.8 -0.35,0.32 -4.43,-6.09 -5.15,-6.19 -0.72,-0.09 2.81,7.27 2.5,7.78 -0.31,0.51 -4.44,-3.77 -4.85,-3.46 -0.41,0.31 -0.73,0.45 5.8,12.74l2.78 4.73 4.35 2.64 4.89 -3.68c0,0 2.8,-17.69 2.26,-18.19 -0.52,-0.48 -1.07,-0.24 -4.18,5.19z"/>
   <path class="fil18" d="M369.32 1029.25c0,0 -21.26,27.41 -16.22,71.06 5.04,43.64 3.92,59.3 3.92,59.3 0,0 -27.41,25.18 -35.81,61.55 0,0 12.03,8.39 20.14,9.79 0,0 40.28,-61.54 43.36,-68.81 3.08,-7.27 10.35,-131.76 10.35,-131.76l-25.74 -1.12z"/>
   <path class="fil18" d="M388.83 1047.89l4.55 83.94c0,0 6.71,88.77 15.29,107.43l19.02 0 -9.32 -208.5 -28.35 0 -1.19 17.14z"/>
   <path class="fil23" d="M423.32 976.99c-1.39,-12.9 -7.84,-24.63 -17.78,-32.75 -1.2,-0.98 -2.63,-1.68 -4.14,-2.04 -4.12,-0.98 -9.49,-1.17 -12.12,-1.2l-8.65 0c0,0 -13.9,0.77 -20.07,2.7 -6.18,1.94 -30.5,12.74 -33.2,11.19 -2.7,-1.54 -21.61,-35.89 -21.61,-35.89l-10.43 5.4c0,0 6.56,48.08 24.7,51.64 18.14,3.56 35.9,-1.07 35.9,-1.07 0,0 3.48,48.25 12.35,56.74 0,0 35.06,2.38 48.09,0.87 2.36,-0.27 4.25,-2.09 4.63,-4.44 1.38,-8.61 4.46,-31.3 2.33,-51.15z"/>
   <path class="fil13" d="M412.12 950.74c-1.97,-2.35 -4.17,-4.53 -6.57,-6.49 -1.21,-0.99 -2.63,-1.69 -4.15,-2.06 -4.11,-0.98 -9.49,-1.17 -12.12,-1.2l-8.65 0c0,0 -2.37,0.14 -5.58,0.43 6.99,5.33 20.07,12.54 37.07,9.33z"/>
   <path class="fil15" d="M382.6 928.19c0,0 0.44,3.38 0.72,7.48 3.7,2.99 8.47,4.52 13.45,3.88 1.64,-0.21 3.19,-0.65 4.65,-1.27 -0.11,-2.67 -0.07,-5.15 0.34,-6.33 1.13,-3.26 -19.16,-3.76 -19.16,-3.76z"/>
   <path class="fil15" d="M411.34 911.65c-0.91,2.47 -0.04,5.06 1.93,5.8 1.98,0.72 4.32,-0.69 5.23,-3.17 0.91,-2.48 0.05,-5.07 -1.93,-5.8 -1.98,-0.72 -4.32,0.69 -5.23,3.17z"/>
   <path class="fil13" d="M411.13 925.94c0.57,-1.07 1.05,-2.21 1.42,-3.39 1.06,-3.17 1.54,-6.53 1.72,-9.44 0.04,-0.63 0.11,-1.24 0.2,-1.87 0.35,-2.51 0.25,-5.15 -0.43,-7.84 -2.18,-8.68 -9.96,-15.01 -18.9,-15.37 -12.05,-0.48 -21.65,9.35 -21.25,21.08 -1.3,-0.67 -2.74,-0.79 -3.98,-0.18 -2.38,1.17 -3.13,4.52 -1.68,7.5 1.46,2.98 4.56,4.45 6.94,3.29 0.33,-0.17 0.63,-0.37 0.9,-0.61 1.36,9.94 9.8,17.37 19.6,16.87 4.79,-0.24 9.07,-2.35 12.23,-5.59 0.21,-0.19 0.44,-0.42 0.67,-0.67 1.02,-1.13 1.86,-2.41 2.56,-3.76z"/>
   <path class="fil16" d="M392.79 911.9c0.05,1.06 -0.76,1.96 -1.82,2.01 -1.06,0.05 -1.96,-0.76 -2.01,-1.81 -0.06,-1.06 0.76,-1.96 1.81,-2.01 1.06,-0.06 1.96,0.76 2.01,1.81z"/>
   <path class="fil16" d="M409.8 911.9c0.05,1.06 -0.76,1.96 -1.82,2.01 -1.06,0.05 -1.96,-0.76 -2.01,-1.81 -0.05,-1.06 0.76,-1.96 1.82,-2.01 1.06,-0.06 1.96,0.76 2.01,1.81z"/>
   <path class="fil11" d="M394.4 908.7c-0.87,-0.46 -1.78,-0.8 -2.7,-1.04 -0.93,-0.22 -1.87,-0.3 -2.8,-0.21 -0.46,0.04 -0.92,0.13 -1.37,0.26 -0.23,0.06 -0.44,0.15 -0.67,0.22 -0.11,0.04 -0.22,0.09 -0.33,0.14 -0.11,0.04 -0.22,0.09 -0.32,0.14 -0.85,0.41 -1.66,0.94 -2.45,1.54 0.59,-0.8 1.33,-1.48 2.2,-2.01 0.43,-0.26 0.89,-0.48 1.38,-0.64 0.48,-0.16 0.99,-0.28 1.5,-0.32 1.02,-0.09 2.06,0.05 3.01,0.39 0.48,0.17 0.93,0.39 1.37,0.65 0.43,0.26 0.83,0.54 1.18,0.9z"/>
   <path class="fil11" d="M402.12 908.7c0.35,-0.35 0.76,-0.64 1.19,-0.9 0.43,-0.26 0.89,-0.48 1.36,-0.65 0.95,-0.34 1.99,-0.48 3.01,-0.39 0.51,0.05 1.02,0.16 1.5,0.32 0.49,0.16 0.95,0.38 1.38,0.64 0.86,0.53 1.61,1.22 2.2,2.01 -0.79,-0.59 -1.59,-1.13 -2.45,-1.54 -0.1,-0.05 -0.21,-0.1 -0.32,-0.14 -0.11,-0.05 -0.22,-0.1 -0.33,-0.14 -0.22,-0.07 -0.44,-0.16 -0.67,-0.22 -0.45,-0.12 -0.91,-0.22 -1.37,-0.26 -0.93,-0.09 -1.87,-0.01 -2.8,0.21 -0.92,0.23 -1.83,0.57 -2.7,1.04z"/>
   <path class="fil0" d="M356.2 974.65c0.49,-0.51 0.95,-1.09 1.38,-1.67 0.42,-0.59 0.82,-1.2 1.17,-1.84 0.36,-0.63 0.69,-1.29 0.96,-1.97 0.29,-0.67 0.51,-1.37 0.73,-2.09 -0.09,0.74 -0.24,1.47 -0.47,2.19 -0.1,0.36 -0.24,0.7 -0.37,1.05 -0.15,0.34 -0.29,0.7 -0.46,1.02 -0.34,0.67 -0.72,1.32 -1.15,1.94 -0.35,0.49 -0.72,0.96 -1.13,1.41 0.37,0.07 0.77,0.12 1.15,0.14 0.54,0.02 1.07,0 1.61,-0.07 0.27,-0.03 0.53,-0.1 0.8,-0.15 0.26,-0.08 0.52,-0.14 0.78,-0.24 0.52,-0.17 1,-0.44 1.48,-0.71 -0.43,0.35 -0.88,0.68 -1.39,0.92 -0.5,0.25 -1.04,0.43 -1.59,0.55 -0.56,0.12 -1.12,0.19 -1.69,0.17 -0.57,-0.01 -1.13,-0.06 -1.7,-0.22l-0.41 -0.1 0.3 -0.32z"/>
   <path class="fil36" d="M400.59 1074.16l0.57 -0.78c0.94,-1.29 1.91,-2.56 2.91,-3.81 1,-1.24 2.02,-2.48 3.06,-3.69 1.05,-1.2 2.13,-2.38 3.23,-3.54 0.56,-0.57 1.12,-1.14 1.7,-1.69 0.57,-0.56 1.17,-1.09 1.76,-1.63 -1.15,1.12 -2.25,2.26 -3.33,3.44 -1.07,1.18 -2.12,2.38 -3.15,3.6 -1.03,1.21 -2.04,2.45 -3.03,3.7 -0.79,1.02 -1.59,2.03 -2.37,3.06 0.63,-0.42 1.27,-0.81 1.93,-1.19 0.93,-0.52 1.88,-0.98 2.85,-1.4 0.97,-0.43 1.96,-0.79 2.98,-1.09l0.76 -0.22 0.77 -0.17 0.39 -0.09 0.39 -0.06 0.78 -0.13 -0.78 0.17 -0.39 0.08 -0.38 0.1 -0.76 0.2 -0.75 0.24c-0.25,0.08 -0.5,0.17 -0.74,0.26 -0.24,0.09 -0.5,0.17 -0.74,0.27l-0.73 0.3c-0.24,0.1 -0.48,0.21 -0.72,0.32 -0.95,0.44 -1.89,0.93 -2.8,1.44 -0.91,0.53 -1.8,1.09 -2.64,1.7l-0.78 0.57z"/>
   <path class="fil36" d="M387.76 1074.16l-1.01 -0.72c-1.09,-0.79 -2.24,-1.51 -3.42,-2.18 -1.18,-0.67 -2.38,-1.28 -3.62,-1.84 -0.31,-0.13 -0.62,-0.28 -0.93,-0.41l-0.94 -0.38c-0.31,-0.13 -0.64,-0.23 -0.96,-0.35 -0.32,-0.12 -0.63,-0.23 -0.96,-0.33l-0.97 -0.31 -0.98 -0.26 -0.49 -0.13 -0.5 -0.1 -1 -0.21 1.01 0.16 0.5 0.08 0.5 0.11 1 0.22 0.98 0.27c1.31,0.37 2.6,0.84 3.85,1.37 1.26,0.54 2.49,1.13 3.69,1.79 0.85,0.48 1.68,0.98 2.5,1.51 -1.01,-1.33 -2.05,-2.62 -3.08,-3.93 -1.28,-1.61 -2.59,-3.19 -3.93,-4.75 -1.33,-1.56 -2.69,-3.1 -4.09,-4.61 -1.4,-1.5 -2.83,-2.98 -4.32,-4.41 0.77,0.68 1.54,1.36 2.28,2.08 0.75,0.7 1.48,1.44 2.2,2.17 1.43,1.48 2.83,2.99 4.19,4.54 1.35,1.56 2.68,3.13 3.98,4.73 1.3,1.6 2.56,3.23 3.79,4.89l0.74 0.99z"/>
   <path class="fil44" d="M398.97 926.76c-0.11,0 -0.24,-0 -0.36,-0.01 -3.76,-0.23 -3.86,-3.69 -3.86,-3.69 0,0 0.65,-0.24 1.58,-0.24 0.8,0 1.81,0.17 2.79,0.82 0,0 1.05,-0.66 2.28,-0.66 0.59,0 1.22,0.15 1.8,0.59 0,0 -0.78,3.19 -4.24,3.19z"/>
   <path class="fil15" d="M392.79 921.84c0.43,0.34 0.87,0.66 1.33,0.94 0.46,0.28 0.94,0.54 1.43,0.76 0.98,0.43 2.02,0.73 3.08,0.82 1.06,0.09 2.13,-0.04 3.15,-0.35 1.02,-0.33 1.99,-0.84 2.9,-1.44 -0.41,0.37 -0.84,0.7 -1.31,1 -0.46,0.3 -0.97,0.53 -1.48,0.74 -0.52,0.2 -1.06,0.34 -1.62,0.42 -0.56,0.07 -1.12,0.08 -1.68,0.04 -1.12,-0.1 -2.2,-0.44 -3.19,-0.95 -0.98,-0.51 -1.89,-1.17 -2.63,-1.98z"/>
   <path class="fil15" d="M399.87 911.02c0.54,0.87 1,1.78 1.41,2.71 0.42,0.93 0.78,1.89 1.07,2.89 0.13,0.49 0.25,1 0.28,1.56 0.01,0.13 0,0.28 -0.01,0.43 -0.01,0.07 -0.03,0.15 -0.05,0.23 -0.03,0.09 -0.05,0.17 -0.11,0.25l-0.09 0.12 -0.08 0.07 -0.16 0.13c-0.11,0.07 -0.22,0.16 -0.34,0.22 -0.45,0.28 -0.93,0.48 -1.42,0.65 -0.49,0.16 -0.98,0.3 -1.49,0.39 0.92,-0.44 1.85,-0.87 2.64,-1.44 0.1,-0.07 0.19,-0.15 0.28,-0.22l0.13 -0.12 0.06 -0.06 0.02 -0.03c0.06,-0.1 0.07,-0.35 0.04,-0.57 -0.05,-0.47 -0.16,-0.95 -0.3,-1.44 -0.26,-0.96 -0.59,-1.91 -0.92,-2.87 -0.33,-0.96 -0.66,-1.92 -0.96,-2.89z"/>
   <path class="fil11" d="M371.77 905.03l1.62 -1.48 0.71 -4.8 4.74 -11.24 23.63 -3.63c0,0 -0.3,1.85 -0.6,3.87 2.75,1.15 6.91,2.85 6.91,2.85 0,0 -13.63,15.42 -34.9,18.51 0,0 -1.88,-1.13 -3.98,-0.18l1.87 -3.9z"/>
   <path class="fil11" d="M385.68 880.76c0,0 -2.57,-23.63 -21.29,-25.5 -18.71,-1.87 -27.13,6.78 -38.6,1.87 0,0 -1.63,25.03 21.29,20.35 22.93,-4.67 34.39,7.96 34.39,7.96l4.21 -4.68z"/>
   <path class="fil3" d="M1332.15 508.46l-109.22 0c0.36,-15.65 0.64,-31.64 0.78,-47.43 4.26,-1.67 8.89,-2.58 13.73,-2.58 13.71,0 25.72,7.32 32.33,18.26 2.87,-0.89 5.93,-1.38 9.11,-1.38 12.26,0 22.86,7.23 27.74,17.66 1.68,-0.44 3.44,-0.67 5.26,-0.67 9.88,0 18.15,6.89 20.27,16.13z"/>
   <path class="fil45" d="M1222.92 508.46l-59.34 0c-0.08,-0.83 -0.12,-1.67 -0.12,-2.51 0,-14.31 11.59,-25.9 25.9,-25.9 4.57,0 8.87,1.19 12.59,3.27 3.71,-10.19 11.68,-18.34 21.76,-22.28 -0.15,15.79 -0.43,31.78 -0.78,47.43z"/>
   <path class="fil3" d="M451.49 439.67l-118.94 0c-0.11,-1.14 -0.17,-2.3 -0.17,-3.47 0,-19.75 16.01,-35.76 35.75,-35.76 6.31,0 12.24,1.64 17.38,4.51 7.27,-20.02 26.46,-34.31 48.98,-34.31 18.93,0 35.51,10.1 44.63,25.2 3.97,-1.24 8.2,-1.91 12.58,-1.91 16.94,0 31.56,9.98 38.3,24.38 2.31,-0.6 4.74,-0.93 7.25,-0.93 3.98,0 7.78,0.81 11.22,2.28l-96.98 19.99z"/>
   <path class="fil46" d="M565.23 439.67l-113.74 0 96.98 -19.99c8.36,3.56 14.69,10.96 16.76,19.99z"/>
   <polygon class="fil47" points="814.6,1132.77 975.7,1132.77 975.7,1121.83 814.6,1121.83 "/>
   <polygon class="fil47" points="814.6,1163.04 975.7,1163.04 975.7,1152.09 814.6,1152.09 "/>
   <polygon class="fil23" points="274.92,860.68 244.54,846.48 249.13,836.65 279.51,850.85 "/>
   <polygon class="fil23" points="610.66,360.94 580.28,346.74 584.87,336.91 615.26,351.11 "/>
   <polygon class="fil23" points="1457.5,644.94 1427.12,630.74 1431.72,620.91 1462.09,635.11 "/>
   <polygon class="fil23" points="1400.17,312.34 1369.79,298.13 1374.39,288.3 1404.76,302.51 "/>
   <polygon class="fil23" points="987.41,382.66 957.04,368.46 961.63,358.63 992.01,372.83 "/>
   <polygon class="fil23" points="896.41,137.54 866.02,123.34 870.62,113.52 901,127.72 "/>
   <polygon class="fil31" points="762.36,238 734.8,218.89 740.98,209.97 768.54,229.09 "/>
   <polygon class="fil31" points="244.26,497.47 216.7,478.35 222.88,469.44 250.44,488.56 "/>
   <polygon class="fil31" points="1422.77,534.6 1395.21,515.48 1401.4,506.57 1428.96,525.69 "/>
   <polygon class="fil31" points="1169.52,625.27 1141.95,606.15 1148.14,597.24 1175.7,616.35 "/>
   <polygon class="fil31" points="1267.33,89.1 1239.78,69.99 1245.96,61.08 1273.51,80.19 "/>
   <polygon class="fil31" points="474.49,181.29 446.94,162.17 453.12,153.26 480.68,172.37 "/>
   <polygon class="fil31" points="138.43,833.85 110.88,814.73 117.06,805.81 144.62,824.93 "/>
   <polygon class="fil9" points="284.63,700.7 286.92,734.16 276.09,734.9 273.81,701.44 "/>
   <polygon class="fil9" points="1559.74,726.43 1562.02,759.9 1551.2,760.64 1548.92,727.17 "/>
   <polygon class="fil9" points="1041.52,206.89 1043.8,240.35 1032.98,241.09 1030.7,207.63 "/>
   <polygon class="fil9" points="431.96,361.21 434.24,394.67 423.42,395.41 421.14,361.95 "/>
   <polygon class="fil9" points="126.21,973.6 128.49,1007.06 117.67,1007.8 115.39,974.33 "/>
   <polygon class="fil11" points="180.63,634.81 211.25,621.13 215.68,631.04 185.06,644.72 "/>
   <polygon class="fil11" points="29.68,913.36 60.3,899.68 64.72,909.59 34.1,923.27 "/>
   <polygon class="fil11" points="345.15,567.25 375.77,553.57 380.19,563.47 349.57,577.15 "/>
   <polygon class="fil11" points="314.85,282.42 345.47,268.74 349.9,278.65 319.28,292.33 "/>
   <polygon class="fil11" points="586.94,242 617.57,228.31 621.99,238.22 591.37,251.9 "/>
   <polygon class="fil11" points="721.65,59.93 752.27,46.26 756.69,56.16 726.07,69.84 "/>
   <polygon class="fil11" points="1056.87,37.97 1087.49,24.3 1091.91,34.19 1061.29,47.88 "/>
   <polygon class="fil11" points="1230.29,242 1260.9,228.31 1265.33,238.22 1234.7,251.9 "/>
   <polygon class="fil11" points="1506.26,495.37 1536.89,481.69 1541.32,491.6 1510.69,505.28 "/>
   <polygon class="fil11" points="1322.87,747.51 1353.5,733.83 1357.93,743.73 1327.3,757.41 "/>
   <polygon class="fil11" points="1410.64,173.29 1441.27,159.61 1445.69,169.51 1415.08,183.19 "/>
   <path class="fil0" d="M336.37 1260.93l-27.52 -19.94c-0.85,-0.61 -1.04,-1.8 -0.42,-2.65 0.61,-0.85 1.8,-1.04 2.65,-0.43l27.52 19.94c0.85,0.62 1.04,1.81 0.43,2.65 -0.62,0.85 -1.81,1.04 -2.66,0.43z"/>
   <path class="fil16" d="M317.72 1228.46l-7.22 7.83c-0.89,0.96 -1,2.35 -0.22,2.91l26.96 19.53c0.7,0.51 1.71,0.57 2.67,0.02 0.99,-0.57 1.98,-1.78 2.01,-4.36 0.06,-5.02 -6.87,-11.37 -8.88,-16.98 -0.11,-0.33 -0.33,-0.61 -0.61,-0.8l-12.11 -8.78c-0.7,-0.51 -1.81,-0.24 -2.61,0.64z"/>
   <path class="fil0" d="M327.38 1240.51l0 0c-0.11,-0.26 0.06,-0.63 0.35,-0.81 1.38,-0.79 5.11,-2.44 8.05,0.58 0.17,0.18 0.11,0.53 -0.11,0.77l-0 0c-0.22,0.24 -0.52,0.28 -0.68,0.11 -2.65,-2.7 -5.88,-1.2 -7.02,-0.53 -0.24,0.14 -0.49,0.09 -0.58,-0.13z"/>
   <path class="fil0" d="M329.38 1243.65l0 0c-0.11,-0.26 0.06,-0.64 0.35,-0.81 1.38,-0.79 5.1,-2.44 8.04,0.58 0.17,0.17 0.11,0.53 -0.11,0.77l-0.01 0c-0.22,0.24 -0.52,0.28 -0.68,0.11 -2.65,-2.7 -5.87,-1.2 -7.02,-0.53 -0.24,0.14 -0.49,0.09 -0.58,-0.13z"/>
   <path class="fil0" d="M331.24 1246.56l0 0c-0.11,-0.26 0.06,-0.64 0.35,-0.81 1.38,-0.79 5.1,-2.45 8.04,0.58 0.17,0.17 0.12,0.53 -0.11,0.77l-0.01 0.01c-0.22,0.23 -0.52,0.28 -0.68,0.11 -2.65,-2.7 -5.87,-1.2 -7.02,-0.54 -0.24,0.15 -0.49,0.09 -0.58,-0.12z"/>
   <path class="fil0" d="M443.96 1261.59l-33.98 -0.02c-1.05,0 -1.9,-0.85 -1.9,-1.9 0,-1.06 0.85,-1.9 1.9,-1.9l33.98 0.02c1.05,0 1.9,0.85 1.9,1.9 0,1.06 -0.85,1.9 -1.9,1.9z"/>
   <path class="fil16" d="M409.81 1246.21l-1.26 10.58c-0.16,1.3 0.57,2.49 1.53,2.49l33.29 0.02c0.87,0 1.72,-0.53 2.18,-1.55 0.46,-1.04 0.56,-2.61 -0.93,-4.72 -2.89,-4.09 -12.22,-5.19 -17.14,-8.55 -0.28,-0.19 -0.62,-0.3 -0.96,-0.3l-14.96 -0.01c-0.87,0 -1.61,0.87 -1.75,2.04z"/>
   <path class="fil0" d="M424.71 1250.32l0 0c-0.24,-0.15 -0.33,-0.56 -0.19,-0.86 0.65,-1.44 2.7,-4.98 6.85,-4.25 0.24,0.04 0.41,0.36 0.36,0.69l0 0c-0.04,0.32 -0.26,0.53 -0.49,0.49 -3.72,-0.64 -5.46,2.47 -6,3.68 -0.11,0.26 -0.34,0.36 -0.54,0.24z"/>
   <path class="fil0" d="M428.17 1251.68l0 0c-0.24,-0.15 -0.33,-0.55 -0.19,-0.86 0.65,-1.44 2.7,-4.98 6.86,-4.25 0.24,0.04 0.4,0.36 0.36,0.69l0 0.01c-0.04,0.32 -0.26,0.53 -0.49,0.49 -3.72,-0.64 -5.46,2.47 -5.99,3.69 -0.11,0.26 -0.35,0.36 -0.55,0.24z"/>
   <path class="fil0" d="M431.38 1252.95l0 0c-0.24,-0.15 -0.33,-0.55 -0.19,-0.86 0.66,-1.45 2.7,-4.98 6.86,-4.25 0.24,0.05 0.4,0.36 0.36,0.69l0 0.01c-0.04,0.32 -0.26,0.53 -0.49,0.49 -3.72,-0.63 -5.46,2.47 -5.99,3.69 -0.11,0.26 -0.35,0.36 -0.55,0.24z"/>
   <path class="fil0" d="M560.28 1261.29l30.3 -0.02c0.91,0 1.65,-0.74 1.65,-1.65l0 -0.08c0,-0.91 -0.74,-1.65 -1.65,-1.65l-30.3 0.02c-0.91,0 -1.65,0.74 -1.65,1.65l0 0.09c0,0.91 0.74,1.65 1.65,1.65z"/>
   <path class="fil16" d="M590.69 1247.61l1.12 9.41c0.14,1.16 -0.51,2.21 -1.36,2.21l-29.61 0.02c-0.77,0 -1.53,-0.48 -1.93,-1.38 -0.41,-0.93 -0.5,-2.31 0.83,-4.19 2.57,-3.65 10.87,-4.61 15.25,-7.61 0.25,-0.17 0.55,-0.26 0.85,-0.26l13.3 -0c0.77,0 1.43,0.76 1.56,1.81z"/>
   <path class="fil0" d="M630.09 1261.29l30.3 -0.02c0.91,0 1.65,-0.74 1.65,-1.65l0 -0.08c0,-0.91 -0.74,-1.65 -1.65,-1.65l-30.3 0.02c-0.91,0 -1.65,0.74 -1.65,1.65l0 0.09c0,0.91 0.74,1.65 1.65,1.65z"/>
   <path class="fil16" d="M660.5 1247.61l1.12 9.41c0.14,1.16 -0.51,2.21 -1.36,2.21l-29.61 0.02c-0.77,0 -1.53,-0.48 -1.93,-1.38 -0.41,-0.93 -0.5,-2.31 0.83,-4.19 2.57,-3.65 10.87,-4.61 15.25,-7.61 0.25,-0.17 0.55,-0.26 0.85,-0.26l13.31 -0c0.77,0 1.43,0.76 1.55,1.81z"/>
   <path class="fil0" d="M1179.89 1261.31l33.98 -0.02c1.06,0 1.89,-0.85 1.89,-1.9 0,-1.05 -0.84,-1.9 -1.89,-1.9l-33.98 0.02c-1.05,0 -1.91,0.85 -1.91,1.9 0,1.05 0.87,1.9 1.91,1.9z"/>
   <path class="fil16" d="M1214.03 1245.94l1.27 10.57c0.15,1.31 -0.57,2.5 -1.54,2.5l-33.29 0.02c-0.87,0 -1.72,-0.54 -2.18,-1.56 -0.47,-1.04 -0.56,-2.61 0.93,-4.71 2.91,-4.1 12.23,-5.19 17.14,-8.55 0.29,-0.2 0.62,-0.3 0.96,-0.3l14.96 -0.01c0.87,0 1.61,0.86 1.74,2.05z"/>
   <path class="fil0" d="M1199.14 1250.04l0 0c0.24,-0.15 0.33,-0.56 0.19,-0.86 -0.66,-1.45 -2.7,-4.97 -6.86,-4.24 -0.24,0.04 -0.4,0.36 -0.36,0.69l0 0.01c0.04,0.31 0.26,0.53 0.48,0.48 3.72,-0.63 5.47,2.48 6,3.69 0.11,0.26 0.35,0.36 0.55,0.24z"/>
   <path class="fil0" d="M1195.69 1251.41l0 0c0.24,-0.15 0.33,-0.56 0.18,-0.86 -0.65,-1.44 -2.7,-4.97 -6.86,-4.24 -0.23,0.04 -0.39,0.36 -0.36,0.69l0 0.01c0.05,0.31 0.26,0.53 0.5,0.48 3.72,-0.64 5.46,2.47 6,3.68 0.11,0.26 0.33,0.37 0.55,0.24z"/>
   <path class="fil0" d="M1192.46 1252.68l0 0c0.25,-0.15 0.34,-0.55 0.2,-0.86 -0.66,-1.44 -2.7,-4.98 -6.86,-4.24 -0.25,0.04 -0.41,0.36 -0.37,0.69l0 0.01c0.04,0.32 0.26,0.52 0.49,0.48 3.73,-0.64 5.47,2.48 6,3.69 0.11,0.26 0.35,0.36 0.54,0.24z"/>
   <path class="fil41" d="M1299.24 1261.31l33.98 -0.02c1.06,0 1.91,-0.85 1.91,-1.9 0,-1.05 -0.85,-1.9 -1.91,-1.9l-33.98 0.02c-1.04,0 -1.89,0.85 -1.89,1.9 0,1.05 0.85,1.9 1.89,1.9z"/>
   <path class="fil23" d="M1333.39 1245.94l1.26 10.57c0.15,1.31 -0.57,2.5 -1.53,2.5l-33.3 0.02c-0.86,0 -1.72,-0.54 -2.17,-1.56 -0.47,-1.04 -0.56,-2.61 0.93,-4.71 2.89,-4.1 12.23,-5.19 17.14,-8.55 0.29,-0.2 0.62,-0.3 0.96,-0.3l14.95 -0.01c0.88,0 1.62,0.86 1.75,2.05z"/>
   <path class="fil0" d="M1318.5 1250.04l0 0c0.24,-0.15 0.33,-0.56 0.18,-0.86 -0.65,-1.45 -2.7,-4.97 -6.86,-4.24 -0.24,0.04 -0.39,0.36 -0.36,0.69l0 0.01c0.04,0.31 0.26,0.53 0.49,0.48 3.72,-0.63 5.46,2.48 6,3.69 0.11,0.26 0.33,0.36 0.55,0.24z"/>
   <path class="fil0" d="M1315.04 1251.41l0 0c0.24,-0.15 0.33,-0.56 0.19,-0.86 -0.66,-1.44 -2.7,-4.97 -6.86,-4.24 -0.24,0.04 -0.4,0.36 -0.36,0.69l0 0.01c0.04,0.31 0.26,0.53 0.49,0.48 3.72,-0.64 5.46,2.47 5.99,3.68 0.12,0.26 0.35,0.37 0.55,0.24z"/>
   <path class="fil0" d="M1311.82 1252.68l0 0c0.24,-0.15 0.34,-0.55 0.19,-0.86 -0.66,-1.44 -2.7,-4.98 -6.85,-4.24 -0.25,0.04 -0.42,0.36 -0.37,0.69l0 0.01c0.04,0.32 0.26,0.52 0.49,0.48 3.72,-0.64 5.47,2.48 6,3.69 0.11,0.26 0.34,0.36 0.54,0.24z"/>
   <path class="fil41" d="M1420.37 1261.31l-33.98 -0.02c-1.04,0 -1.91,-0.85 -1.89,-1.9 0,-1.05 0.85,-1.9 1.89,-1.9l33.98 0.02c1.06,0 1.91,0.85 1.91,1.9 0,1.05 -0.85,1.9 -1.91,1.9z"/>
   <path class="fil23" d="M1386.24 1245.94l-1.27 10.57c-0.15,1.31 0.58,2.5 1.54,2.5l33.3 0.02c0.86,0 1.72,-0.54 2.17,-1.56 0.47,-1.04 0.56,-2.61 -0.93,-4.71 -2.89,-4.1 -12.22,-5.19 -17.14,-8.55 -0.28,-0.2 -0.61,-0.3 -0.96,-0.3l-14.96 -0.01c-0.86,0 -1.59,0.86 -1.74,2.05z"/>
   <path class="fil0" d="M1401.13 1250.04l0 0c-0.25,-0.15 -0.34,-0.56 -0.2,-0.86 0.66,-1.45 2.7,-4.97 6.86,-4.24 0.25,0.04 0.42,0.36 0.36,0.69l0 0.01c-0.03,0.31 -0.24,0.53 -0.48,0.48 -3.73,-0.63 -5.47,2.48 -6,3.69 -0.11,0.26 -0.35,0.36 -0.54,0.24z"/>
   <path class="fil0" d="M1404.59 1251.41l0 0c-0.25,-0.15 -0.34,-0.56 -0.19,-0.86 0.65,-1.44 2.7,-4.97 6.86,-4.24 0.24,0.04 0.39,0.36 0.36,0.69l0 0.01c-0.04,0.31 -0.26,0.53 -0.49,0.48 -3.72,-0.64 -5.46,2.47 -6,3.68 -0.1,0.26 -0.34,0.37 -0.54,0.24z"/>
   <path class="fil0" d="M1407.79 1252.68l0 0c-0.24,-0.15 -0.32,-0.55 -0.18,-0.86 0.65,-1.44 2.7,-4.98 6.86,-4.24 0.24,0.04 0.39,0.36 0.36,0.69l0 0.01c-0.04,0.32 -0.26,0.52 -0.49,0.48 -3.72,-0.64 -5.46,2.48 -6,3.69 -0.11,0.26 -0.34,0.36 -0.55,0.24z"/>
   <path class="fil0" d="M1130.47 1261.31l33.97 -0.02c1.05,0 1.91,-0.85 1.91,-1.9 0,-1.05 -0.85,-1.9 -1.91,-1.9l-33.97 0.02c-1.07,0 -1.91,0.85 -1.91,1.9 0,1.05 0.85,1.9 1.91,1.9z"/>
   <path class="fil16" d="M1164.6 1245.94l1.26 10.57c0.16,1.31 -0.57,2.5 -1.52,2.5l-33.3 0.02c-0.86,0 -1.72,-0.54 -2.17,-1.56 -0.47,-1.04 -0.56,-2.61 0.92,-4.71 2.91,-4.1 12.23,-5.19 17.15,-8.55 0.28,-0.2 0.61,-0.3 0.96,-0.3l14.95 -0.01c0.86,0 1.6,0.86 1.75,2.05z"/>
   <path class="fil0" d="M1149.7 1250.04l0 0c0.25,-0.15 0.33,-0.56 0.19,-0.86 -0.65,-1.45 -2.7,-4.97 -6.86,-4.24 -0.24,0.04 -0.39,0.36 -0.36,0.69l0 0.01c0.04,0.31 0.26,0.53 0.49,0.48 3.72,-0.63 5.46,2.48 5.99,3.69 0.12,0.26 0.35,0.36 0.55,0.24z"/>
   <path class="fil0" d="M1146.25 1251.41l0 0c0.24,-0.15 0.33,-0.56 0.19,-0.86 -0.66,-1.44 -2.7,-4.97 -6.86,-4.24 -0.24,0.04 -0.41,0.36 -0.36,0.69l0 0.01c0.04,0.31 0.26,0.53 0.48,0.48 3.73,-0.64 5.47,2.47 6,3.68 0.11,0.26 0.35,0.37 0.55,0.24z"/>
   <path class="fil0" d="M1143.04 1252.68l0 0c0.25,-0.15 0.33,-0.55 0.19,-0.86 -0.66,-1.44 -2.7,-4.98 -6.86,-4.24 -0.24,0.04 -0.41,0.36 -0.36,0.69l0 0.01c0.04,0.32 0.26,0.52 0.48,0.48 3.73,-0.64 5.47,2.48 6.01,3.69 0.1,0.26 0.34,0.36 0.54,0.24z"/>
  </g>
 </g>
</svg>
