<?xml version="1.0" encoding="UTF-8"?>
<!DOCTYPE svg PUBLIC "-//W3C//DTD SVG 1.1//EN" "http://www.w3.org/Graphics/SVG/1.1/DTD/svg11.dtd">
<!-- Creator: CorelDRAW 2018 (64-Bit) -->
<svg xmlns="http://www.w3.org/2000/svg" xml:space="preserve" width="6.6037in" height="6.57429in" version="1.1" style="shape-rendering:geometricPrecision; text-rendering:geometricPrecision; image-rendering:optimizeQuality; fill-rule:evenodd; clip-rule:evenodd"
viewBox="0 0 6603.7 6574.29"
 xmlns:xlink="http://www.w3.org/1999/xlink"
 data-name="Layer 1">
 <defs>
  <style type="text/css">
   <![CDATA[
    .fil93 {fill:#2F2E41}
    .fil91 {fill:#3F3D56}
    .fil90 {fill:#6C63FF}
    .fil94 {fill:#CBCBCB}
    .fil96 {fill:#E9EFFD}
    .fil89 {fill:#F1F1F1}
    .fil92 {fill:#FFB7B7}
    .fil27 {fill:#7D97F4;fill-rule:nonzero}
    .fil2 {fill:#91B3FA;fill-rule:nonzero}
    .fil12 {fill:#BACFFC;fill-rule:nonzero}
    .fil4 {fill:#BDD0FB;fill-rule:nonzero}
    .fil43 {fill:#E5ECFD;fill-rule:nonzero}
    .fil44 {fill:white;fill-rule:nonzero}
    .fil51 {fill:url(#id0)}
    .fil52 {fill:url(#id1)}
    .fil61 {fill:url(#id2)}
    .fil45 {fill:url(#id3)}
    .fil60 {fill:url(#id4)}
    .fil67 {fill:url(#id5)}
    .fil50 {fill:url(#id6)}
    .fil17 {fill:url(#id7)}
    .fil25 {fill:url(#id8)}
    .fil58 {fill:url(#id9)}
    .fil56 {fill:url(#id10)}
    .fil18 {fill:url(#id11)}
    .fil48 {fill:url(#id12)}
    .fil54 {fill:url(#id13)}
    .fil68 {fill:url(#id14)}
    .fil65 {fill:url(#id15)}
    .fil46 {fill:url(#id16)}
    .fil20 {fill:url(#id17)}
    .fil62 {fill:url(#id18)}
    .fil16 {fill:url(#id19)}
    .fil47 {fill:url(#id20)}
    .fil49 {fill:url(#id21)}
    .fil77 {fill:url(#id22)}
    .fil85 {fill:url(#id23)}
    .fil21 {fill:url(#id24)}
    .fil41 {fill:url(#id25)}
    .fil70 {fill:url(#id26)}
    .fil13 {fill:url(#id27)}
    .fil59 {fill:url(#id28)}
    .fil5 {fill:url(#id29)}
    .fil55 {fill:url(#id30)}
    .fil78 {fill:url(#id31)}
    .fil66 {fill:url(#id32)}
    .fil57 {fill:url(#id33)}
    .fil69 {fill:url(#id34)}
    .fil71 {fill:url(#id35)}
    .fil75 {fill:url(#id36)}
    .fil28 {fill:url(#id37)}
    .fil1 {fill:url(#id38)}
    .fil64 {fill:url(#id39)}
    .fil87 {fill:url(#id40)}
    .fil30 {fill:url(#id41)}
    .fil3 {fill:url(#id42)}
    .fil14 {fill:url(#id43)}
    .fil6 {fill:url(#id44)}
    .fil63 {fill:url(#id45)}
    .fil39 {fill:url(#id46)}
    .fil31 {fill:url(#id47)}
    .fil11 {fill:url(#id48)}
    .fil88 {fill:url(#id49)}
    .fil84 {fill:url(#id50)}
    .fil29 {fill:url(#id51)}
    .fil24 {fill:url(#id52)}
    .fil73 {fill:url(#id53)}
    .fil22 {fill:url(#id54)}
    .fil53 {fill:url(#id55)}
    .fil37 {fill:url(#id56)}
    .fil0 {fill:url(#id57)}
    .fil33 {fill:url(#id58)}
    .fil8 {fill:url(#id59)}
    .fil40 {fill:url(#id60)}
    .fil10 {fill:url(#id61)}
    .fil9 {fill:url(#id62)}
    .fil42 {fill:url(#id63)}
    .fil81 {fill:url(#id64)}
    .fil86 {fill:url(#id65)}
    .fil34 {fill:url(#id66)}
    .fil36 {fill:url(#id67)}
    .fil7 {fill:url(#id68)}
    .fil35 {fill:url(#id69)}
    .fil76 {fill:url(#id70)}
    .fil19 {fill:url(#id71)}
    .fil79 {fill:url(#id72)}
    .fil83 {fill:url(#id73)}
    .fil82 {fill:url(#id74)}
    .fil80 {fill:url(#id75)}
    .fil74 {fill:url(#id76)}
    .fil72 {fill:url(#id77)}
    .fil23 {fill:url(#id78)}
    .fil15 {fill:url(#id79)}
    .fil26 {fill:url(#id80)}
    .fil95 {fill:url(#id81)}
    .fil38 {fill:url(#id82)}
    .fil32 {fill:url(#id83)}
   ]]>
  </style>
  <linearGradient id="id0" gradientUnits="userSpaceOnUse" x1="1402.99" y1="1240.85" x2="2950.22" y2="1240.85">
   <stop offset="0" style="stop-opacity:1; stop-color:#FF928E"/>
   <stop offset="1" style="stop-opacity:1; stop-color:#FE7062"/>
  </linearGradient>
  <linearGradient id="id1" gradientUnits="userSpaceOnUse" x1="1411.65" y1="1240.85" x2="2941.57" y2="1240.85">
   <stop offset="0" style="stop-opacity:1; stop-color:#FFDEDD"/>
   <stop offset="1" style="stop-opacity:1; stop-color:#FFD4D0"/>
  </linearGradient>
  <linearGradient id="id2" gradientUnits="userSpaceOnUse" xlink:href="#id1" x1="2973.78" y1="1959.74" x2="3676.63" y2="1959.74">
  </linearGradient>
  <linearGradient id="id3" gradientUnits="userSpaceOnUse" x1="1148.61" y1="1317.4" x2="1170.11" y2="1317.4">
   <stop offset="0" style="stop-opacity:1; stop-color:#FEBBBA"/>
   <stop offset="1" style="stop-opacity:1; stop-color:#FF928E"/>
  </linearGradient>
  <linearGradient id="id4" gradientUnits="userSpaceOnUse" xlink:href="#id0" x1="2962.72" y1="1959.74" x2="3687.68" y2="1959.74">
  </linearGradient>
  <linearGradient id="id5" gradientUnits="userSpaceOnUse" x1="521.22" y1="4002.9" x2="683.33" y2="4002.9">
   <stop offset="0" style="stop-opacity:1; stop-color:#09005D"/>
   <stop offset="1" style="stop-opacity:1; stop-color:#1A0F91"/>
  </linearGradient>
  <linearGradient id="id6" gradientUnits="userSpaceOnUse" xlink:href="#id3" x1="1400.54" y1="1933.09" x2="1443.59" y2="1933.09">
  </linearGradient>
  <linearGradient id="id7" gradientUnits="userSpaceOnUse" x1="5833.67" y1="5264.32" x2="5833.67" y2="5932.57">
   <stop offset="0" style="stop-opacity:1; stop-color:#4F52FF"/>
   <stop offset="1" style="stop-opacity:1; stop-color:#4042E2"/>
  </linearGradient>
  <linearGradient id="id8" gradientUnits="userSpaceOnUse" xlink:href="#id3" x1="5726.91" y1="3632.63" x2="5684.58" y2="3381.26">
  </linearGradient>
  <linearGradient id="id9" gradientUnits="userSpaceOnUse" xlink:href="#id3" x1="2845.11" y1="2117.45" x2="3310.87" y2="2117.45">
  </linearGradient>
  <linearGradient id="id10" gradientUnits="userSpaceOnUse" xlink:href="#id3" x1="3710.52" y1="2198.58" x2="3739.04" y2="2198.58">
  </linearGradient>
  <linearGradient id="id11" gradientUnits="userSpaceOnUse" xlink:href="#id5" x1="6603.59" y1="5923.17" x2="6444.51" y2="5923.17">
  </linearGradient>
  <linearGradient id="id12" gradientUnits="userSpaceOnUse" xlink:href="#id3" x1="3181.69" y1="1265.72" x2="3201.53" y2="1265.72">
  </linearGradient>
  <linearGradient id="id13" gradientUnits="userSpaceOnUse" xlink:href="#id3" x1="3165.03" y1="1510.97" x2="3207.19" y2="1510.97">
  </linearGradient>
  <linearGradient id="id14" gradientUnits="userSpaceOnUse" xlink:href="#id7" x1="542.75" y1="3469.61" x2="616.05" y2="4227.45">
  </linearGradient>
  <linearGradient id="id15" gradientUnits="userSpaceOnUse" xlink:href="#id5" x1="1132.82" y1="3995.51" x2="1481.04" y2="3995.51">
  </linearGradient>
  <linearGradient id="id16" gradientUnits="userSpaceOnUse" xlink:href="#id3" x1="1150.75" y1="700.07" x2="2790.25" y2="700.07">
  </linearGradient>
  <linearGradient id="id17" gradientUnits="userSpaceOnUse" xlink:href="#id3" x1="6534.62" y1="5816.87" x2="6432.17" y2="5816.87">
  </linearGradient>
  <linearGradient id="id18" gradientUnits="userSpaceOnUse" xlink:href="#id1" x1="2969.44" y1="1959.74" x2="3682.26" y2="1959.74">
  </linearGradient>
  <linearGradient id="id19" gradientUnits="userSpaceOnUse" xlink:href="#id5" x1="6003.28" y1="5915.89" x2="5661.49" y2="5915.89">
  </linearGradient>
  <linearGradient id="id20" gradientUnits="userSpaceOnUse" xlink:href="#id3" x1="2871.96" y1="530.03" x2="2916.72" y2="530.03">
  </linearGradient>
  <linearGradient id="id21" gradientUnits="userSpaceOnUse" xlink:href="#id3" x1="1519.61" y1="1839.22" x2="3187.5" y2="1839.22">
  </linearGradient>
  <linearGradient id="id22" gradientUnits="userSpaceOnUse" xlink:href="#id3" x1="1491.31" y1="1229.13" x2="1283.33" y2="1409.61">
  </linearGradient>
  <linearGradient id="id23" gradientUnits="userSpaceOnUse" xlink:href="#id3" x1="957.62" y1="2299.37" x2="661.81" y2="2830.67">
  </linearGradient>
  <linearGradient id="id24" gradientUnits="userSpaceOnUse" xlink:href="#id3" x1="5982.64" y1="5800.47" x2="5899.36" y2="5800.47">
  </linearGradient>
  <linearGradient id="id25" gradientUnits="userSpaceOnUse" xlink:href="#id5" x1="5289.43" y1="4985.61" x2="5239.41" y2="5221.39">
  </linearGradient>
  <linearGradient id="id26" gradientUnits="userSpaceOnUse" xlink:href="#id3" x1="1153.9" y1="3877.91" x2="1238.71" y2="3877.91">
  </linearGradient>
  <linearGradient id="id27" gradientUnits="userSpaceOnUse" xlink:href="#id7" x1="4630.54" y1="3602.19" x2="5296.52" y2="3602.19">
  </linearGradient>
  <linearGradient id="id28" gradientUnits="userSpaceOnUse" xlink:href="#id3" x1="2914.87" y1="1702.16" x2="2944.57" y2="1702.16">
  </linearGradient>
  <linearGradient id="id29" gradientUnits="userSpaceOnUse" x1="4155.92" y1="1979.84" x2="4480.24" y2="1979.84">
   <stop offset="0" style="stop-opacity:1; stop-color:#DAE3FE"/>
   <stop offset="1" style="stop-opacity:1; stop-color:#E9EFFD"/>
  </linearGradient>
  <linearGradient id="id30" gradientUnits="userSpaceOnUse" xlink:href="#id3" x1="3294.15" y1="1790.4" x2="3796.62" y2="1790.4">
  </linearGradient>
  <linearGradient id="id31" gradientUnits="userSpaceOnUse" xlink:href="#id29" x1="138.33" y1="2474.86" x2="2415.56" y2="2474.86">
  </linearGradient>
  <linearGradient id="id32" gradientUnits="userSpaceOnUse" xlink:href="#id7" x1="1305.63" y1="3331.72" x2="1305.63" y2="4012.48">
  </linearGradient>
  <linearGradient id="id33" gradientUnits="userSpaceOnUse" xlink:href="#id3" x1="3396.85" y1="2418.49" x2="3440.02" y2="2418.49">
  </linearGradient>
  <linearGradient id="id34" gradientUnits="userSpaceOnUse" xlink:href="#id3" x1="591.5" y1="3894.62" x2="695.88" y2="3894.62">
  </linearGradient>
  <linearGradient id="id35" gradientUnits="userSpaceOnUse" xlink:href="#id7" x1="1560.87" y1="1722.48" x2="900.58" y2="3850.69">
  </linearGradient>
  <linearGradient id="id36" gradientUnits="userSpaceOnUse" xlink:href="#id3" x1="1340.44" y1="1413.36" x2="1082.27" y2="1621.35">
  </linearGradient>
  <linearGradient id="id37" gradientUnits="userSpaceOnUse" xlink:href="#id5" x1="5441.28" y1="3652.39" x2="6433.12" y2="2282.97">
  </linearGradient>
  <linearGradient id="id38" gradientUnits="userSpaceOnUse" xlink:href="#id5" x1="2744.82" y1="5201.34" x2="4192.44" y2="857.31">
  </linearGradient>
  <linearGradient id="id39" gradientUnits="userSpaceOnUse" xlink:href="#id7" x1="1412.97" y1="989.22" x2="1532.18" y2="1799.85">
  </linearGradient>
  <linearGradient id="id40" gradientUnits="userSpaceOnUse" xlink:href="#id0" x1="4285.29" y1="6303.07" x2="4476.02" y2="4818.52">
  </linearGradient>
  <linearGradient id="id41" gradientUnits="userSpaceOnUse" xlink:href="#id5" x1="5392.06" y1="3536.54" x2="6263.98" y2="2281.41">
  </linearGradient>
  <linearGradient id="id42" gradientUnits="userSpaceOnUse" xlink:href="#id5" x1="3540.67" y1="3051.2" x2="3240.26" y2="6343.67">
  </linearGradient>
  <linearGradient id="id43" gradientUnits="userSpaceOnUse" xlink:href="#id3" x1="5380.57" y1="3983.01" x2="5670.87" y2="4608.47">
  </linearGradient>
  <linearGradient id="id44" gradientUnits="userSpaceOnUse" xlink:href="#id29" x1="4152.27" y1="1980.31" x2="4485.36" y2="1980.31">
  </linearGradient>
  <linearGradient id="id45" gradientUnits="userSpaceOnUse" xlink:href="#id3" x1="1825.13" y1="2150.22" x2="1474.4" y2="3079.65">
  </linearGradient>
  <linearGradient id="id46" gradientUnits="userSpaceOnUse" xlink:href="#id7" x1="5407.17" y1="4396.11" x2="5360.82" y2="4680.41">
  </linearGradient>
  <linearGradient id="id47" gradientUnits="userSpaceOnUse" xlink:href="#id3" x1="5390.84" y1="3903.67" x2="5086.24" y2="4706.75">
  </linearGradient>
  <linearGradient id="id48" gradientUnits="userSpaceOnUse" xlink:href="#id29" x1="4157.45" y1="1980.34" x2="4490.13" y2="1980.34">
  </linearGradient>
  <linearGradient id="id49" gradientUnits="userSpaceOnUse" x1="4064.62" y1="5120.44" x2="3953.36" y2="5921.39">
   <stop offset="0" style="stop-opacity:1; stop-color:#E1473D"/>
   <stop offset="1" style="stop-opacity:1; stop-color:#E9605A"/>
  </linearGradient>
  <linearGradient id="id50" gradientUnits="userSpaceOnUse" xlink:href="#id3" x1="2063.7" y1="2268.09" x2="1731.25" y2="3071.94">
  </linearGradient>
  <linearGradient id="id51" gradientUnits="userSpaceOnUse" xlink:href="#id5" x1="5283.24" y1="3578.68" x2="6155.07" y2="2323.59">
  </linearGradient>
  <linearGradient id="id52" gradientUnits="userSpaceOnUse" xlink:href="#id0" x1="5414.53" y1="4000.73" x2="6090.33" y2="4039.73">
  </linearGradient>
  <linearGradient id="id53" gradientUnits="userSpaceOnUse" xlink:href="#id7" x1="2022.59" y1="1557.53" x2="993.54" y2="2259.78">
  </linearGradient>
  <linearGradient id="id54" gradientUnits="userSpaceOnUse" xlink:href="#id7" x1="6266.46" y1="4755.5" x2="6985.66" y2="2442.02">
  </linearGradient>
  <linearGradient id="id55" gradientUnits="userSpaceOnUse" xlink:href="#id1" x1="1416.07" y1="1240.85" x2="2928.85" y2="1240.85">
  </linearGradient>
  <linearGradient id="id56" gradientUnits="userSpaceOnUse" xlink:href="#id3" x1="5614.9" y1="3338.26" x2="5823.52" y2="3250.59">
  </linearGradient>
  <linearGradient id="id57" gradientUnits="userSpaceOnUse" xlink:href="#id29" x1="6897.13" y1="7429.06" x2="2149.56" y2="2214.47">
  </linearGradient>
  <linearGradient id="id58" gradientUnits="userSpaceOnUse" xlink:href="#id0" x1="5407.59" y1="3692.39" x2="6106.77" y2="3731.94">
  </linearGradient>
  <linearGradient id="id59" gradientUnits="userSpaceOnUse" xlink:href="#id29" x1="4149.5" y1="1979.05" x2="4482.17" y2="1979.05">
  </linearGradient>
  <linearGradient id="id60" gradientUnits="userSpaceOnUse" xlink:href="#id7" x1="5405.8" y1="4315.79" x2="5358.12" y2="4625.74">
  </linearGradient>
  <linearGradient id="id61" gradientUnits="userSpaceOnUse" xlink:href="#id29" x1="4157.45" y1="1978.33" x2="4490.1" y2="1978.33">
  </linearGradient>
  <linearGradient id="id62" gradientUnits="userSpaceOnUse" xlink:href="#id29" x1="4153.93" y1="1982.07" x2="4486.61" y2="1982.07">
  </linearGradient>
  <linearGradient id="id63" gradientUnits="userSpaceOnUse" xlink:href="#id5" x1="5288.57" y1="4985.7" x2="5238.57" y2="5221.45">
  </linearGradient>
  <linearGradient id="id64" gradientUnits="userSpaceOnUse" xlink:href="#id5" x1="-47228.95" y1="20411.33" x2="-44562.24" y2="19423.85">
  </linearGradient>
  <linearGradient id="id65" gradientUnits="userSpaceOnUse" xlink:href="#id0" x1="3882.39" y1="6433.96" x2="4224.12" y2="5004.89">
  </linearGradient>
  <linearGradient id="id66" gradientUnits="userSpaceOnUse" xlink:href="#id3" x1="6166.78" y1="3853.8" x2="5556.26" y2="4532.24">
  </linearGradient>
  <linearGradient id="id67" gradientUnits="userSpaceOnUse" xlink:href="#id5" x1="5917.1" y1="3048.05" x2="5614.82" y2="3262.34">
  </linearGradient>
  <linearGradient id="id68" gradientUnits="userSpaceOnUse" xlink:href="#id29" x1="4153.93" y1="1979.04" x2="4486.59" y2="1979.04">
  </linearGradient>
  <linearGradient id="id69" gradientUnits="userSpaceOnUse" xlink:href="#id3" x1="5555.45" y1="3294.29" x2="5790.4" y2="3154.48">
  </linearGradient>
  <linearGradient id="id70" gradientUnits="userSpaceOnUse" xlink:href="#id5" x1="1360.31" y1="1081.46" x2="1597.11" y2="1405.78">
  </linearGradient>
  <linearGradient id="id71" gradientUnits="userSpaceOnUse" xlink:href="#id7" x1="6582.47" y1="5399.09" x2="6510.53" y2="6143.74">
  </linearGradient>
  <linearGradient id="id72" gradientUnits="userSpaceOnUse" xlink:href="#id29" x1="2294.57" y1="2076.64" x2="3183" y2="2076.64">
  </linearGradient>
  <linearGradient id="id73" gradientUnits="userSpaceOnUse" xlink:href="#id7" x1="1860.66" y1="1261.44" x2="796.28" y2="1973.54">
  </linearGradient>
  <linearGradient id="id74" gradientUnits="userSpaceOnUse" xlink:href="#id3" x1="824.87" y1="2193.93" x2="468.15" y2="2753.13">
  </linearGradient>
  <linearGradient id="id75" gradientUnits="userSpaceOnUse" xlink:href="#id5" x1="-44851.95" y1="21437.17" x2="-42847.43" y2="20623.52">
  </linearGradient>
  <linearGradient id="id76" gradientUnits="userSpaceOnUse" xlink:href="#id3" x1="1283.33" y1="1627.62" x2="1669.96" y2="1202.15">
  </linearGradient>
  <linearGradient id="id77" gradientUnits="userSpaceOnUse" xlink:href="#id5" x1="1366.56" y1="2524.68" x2="1011.54" y2="2987.51">
  </linearGradient>
  <linearGradient id="id78" gradientUnits="userSpaceOnUse" xlink:href="#id7" x1="5965.92" y1="4726.55" x2="6079.33" y2="4087.94">
  </linearGradient>
  <linearGradient id="id79" gradientUnits="userSpaceOnUse" xlink:href="#id0" x1="7316.32" y1="-452.39" x2="6760" y2="946.34">
  </linearGradient>
  <linearGradient id="id80" gradientUnits="userSpaceOnUse" xlink:href="#id5" x1="5536.07" y1="2196.8" x2="4116.74" y2="3442.52">
  </linearGradient>
  <linearGradient id="id81" gradientUnits="userSpaceOnUse" xlink:href="#id0" x1="6630.73" y1="-722.27" x2="6074.41" y2="675.77">
  </linearGradient>
  <linearGradient id="id82" gradientUnits="userSpaceOnUse" xlink:href="#id7" x1="5281.9" y1="5473.84" x2="5389.19" y2="4716.26">
  </linearGradient>
  <linearGradient id="id83" gradientUnits="userSpaceOnUse" xlink:href="#id3" x1="6061.4" y1="3791.26" x2="5538.65" y2="4491.42">
  </linearGradient>
 </defs>
 <g id="Layer_x0020_1">
  <metadata id="CorelCorpID_0Corel-Layer"/>
  <g id="_2300617944576">
   <path class="fil0" d="M2836.09 6574.3c-102.99,0 -204.4,-4.13 -303.94,-12.37 -371.11,-30.72 -1113.98,-92.18 -1700.21,-633.7l982.6 0c54.5,0 98.77,-44.03 99.05,-98.53l2.48 -300.96 3651.99 0c-752.15,706.87 -1800.78,1045.56 -2731.96,1045.56zm3491.38 -2131.53l55.1 -2536.38c305.48,792.35 279.45,1743.51 -55.1,2536.38zm-6278 -355.73c-29.7,-509.34 44.74,-1044.69 212.45,-1548.29l20.41 1534.53 -183.54 0.47c-17.97,0.05 -34.81,4.89 -49.32,13.29zm662.78 -2486.79c70.68,-107.87 146.69,-211.63 227.7,-310.13 138.5,-168.41 1091.76,-1290.13 2578.56,-1290.13 9.94,0 19.91,0.06 29.92,0.18 780.85,7.88 1396.62,322.97 1722.21,533.22 -49.85,4.48 -97.9,34.56 -134.38,96.71 -86.86,-43.76 -164.71,-63.28 -225.06,-63.28 -99.47,0 -151.45,52.95 -117.96,137.31 10.79,27.22 31.52,45.49 58.59,57.13 -38.81,40.35 -38.67,90.2 10.26,135.39 20.02,18.51 44.51,26.27 71.61,26.27 46.39,0 100.35,-22.86 152.29,-53.96 6.57,53.96 27.46,98.02 64.77,115.69 12,5.67 25.07,8.36 38.81,8.36 34.15,0 72.41,-16.48 108.83,-43.16 12.06,102.98 44.54,200.88 123.1,211.93 7.7,1.07 15.04,1.61 21.97,1.61 53.01,0 83.94,-30.74 89.49,-80.53 20.72,13.13 42.33,20.83 64.41,20.83 9.61,0 19.34,-1.49 29.19,-4.6 97.67,-31.04 95.34,-121.01 3.76,-208.05 54.74,31.34 105.67,62.8 151.99,94.44 2.75,1.91 5.67,2.75 8.48,2.75 4.66,0 9.02,-2.27 11.82,-5.79 104.29,113.01 220.05,255.57 330.25,427.85 8.83,13.79 17.49,27.58 26.03,41.55 -14.09,-2.51 -28.42,-3.7 -42.86,-3.7 -2.33,0 -4.66,0 -6.98,0.06l-3205.26 90.32 46.9 -151.87c1.54,-4.96 -0.26,-10.39 -4.46,-13.43l-119.84 -87.7c4.95,-71.22 -2.01,-141.66 -19.57,-208.82l101.6 -108.41c3.56,-3.82 4.31,-9.43 1.89,-14.03l-83.23 -157.66c-2.13,-4 -6.3,-6.51 -10.79,-6.51 -0.61,0 -1.25,0.06 -1.87,0.18l-146.85 22.75c-45.53,-52.36 -99.75,-97.85 -161.39,-133.91l-4.84 -148.47c-0.17,-5.19 -3.61,-9.67 -8.59,-11.22l-170.32 -52.59c-1.17,-0.42 -2.38,-0.6 -3.59,-0.6 -3.82,0 -7.5,1.85 -9.87,5.02l-87.67 119.87c-14.99,-1.07 -29.93,-1.56 -44.8,-1.56 -55.93,0 -111,7.22 -164.01,21.13l-108.42 -101.61c-2.31,-2.21 -5.33,-3.34 -8.36,-3.34 -1.94,0 -3.9,0.48 -5.71,1.43l-157.61 83.22c-4.61,2.44 -7.16,7.52 -6.35,12.65l22.76 146.86c-52.36,45.55 -97.85,99.76 -133.91,161.43l-148.43 4.83c-5.22,0.12 -9.72,3.58 -11.26,8.59l-52.62 170.26c-1.54,5.02 0.26,10.39 4.46,13.49l119.85 87.7c-4.96,71.22 2.03,141.66 19.57,208.82l-101.6 108.41c-3.57,3.76 -4.32,9.43 -1.89,14.03l27.14 51.46 -757.83 21.31zm4789.06 -901.74c-11.22,-0.36 -22.56,-0.54 -33.91,-0.54 -5.91,0 -11.88,0.06 -17.73,0.12 0.42,-15.22 -1.02,-29.55 -4.12,-42.98 23.7,17.85 42.39,32.59 55.76,43.4z"/>
   <path class="fil1" d="M6199.3 5528.74l-4283.24 0 0.99 -117.96 4182.31 0c55.76,0 101.31,-49.66 101.31,-110.35l80.71 -3502.63c1.26,-56.54 -18.93,-111.21 -55.7,-151.15 -35.58,-38.69 -83.76,-60.3 -133.84,-60.3 -1.73,0 -3.41,0 -5.07,0.06 -445.23,13.02 -1567.94,45.79 -2677.2,78.2l-16.21 -58.33c-0.64,-2.33 -2.67,-4 -5.08,-4.12l-82 -5.02c-0.11,0 -0.24,0 -0.35,0 -2.27,0 -4.31,1.31 -5.19,3.46l-26.22 63.22c-8.57,1.43 -17.02,3.28 -25.35,5.49 -35.53,1.02 -71.17,2.03 -106.58,3.1l-19.12 -10.8c-0.85,-0.48 -1.81,-0.72 -2.76,-0.72 -1.35,0 -2.67,0.48 -3.73,1.37l-12.7 11.22c-153.04,4.54 -304.76,8.96 -452.97,13.26 32.95,-34.98 62.25,-73.91 87.08,-116.35l148.43 -4.83c5.22,-0.18 9.75,-3.58 11.28,-8.59l5.69 -18.45 3205.26 -90.32c2.33,-0.06 4.66,-0.06 6.98,-0.06 14.44,0 28.78,1.19 42.86,3.7 55.58,9.73 107.4,38.15 147.87,82.09 52.3,56.83 80.95,134.5 79.22,214.9l-3.4 157.57 -55.1 2536.38 -21.01 969.44c0,64.09 -48.24,116.52 -107.16,116.52zm-5916.98 -1455.46l-20.41 -1534.53 -9.99 -751.23c0,-61.8 64.46,-180.34 182.96,-180.34 4.41,0 8.89,0.18 13.45,0.54l263.9 -7.46 757.83 -21.31 56.09 106.2c2.13,4 6.32,6.45 10.79,6.45 0.61,0 1.25,-0.06 1.86,-0.12l146.85 -22.74c13.62,15.64 28,30.65 43.11,45 -630.36,18.41 -1067.26,31.18 -1067.26,31.18 -2.68,-0.11 -5.39,-0.19 -8.15,-0.19 -97.18,0 -248.06,72.61 -253.27,265.16l28.51 2062.99 -146.3 0.41z"/>
   <path class="fil2" d="M6200.67 5300.42c0,60.69 -45.55,110.35 -101.31,110.35l-5552.44 0c-55.74,0 -101.33,-49.66 -101.33,-110.35l-45.48 -3290.54c5.35,-198 164.77,-269.17 261.41,-264.98 0,0 4424.35,-129.25 5425.25,-158.5 51.88,-1.49 102.08,20.3 138.92,60.24 36.77,39.94 56.95,94.61 55.7,151.15l-80.71 3502.63z"/>
   <path class="fil3" d="M6566.91 5829.63l-6530.48 0c-9.74,0 -17.71,-7.98 -17.71,-17.7l0 -283.06c0,-9.75 7.97,-17.73 17.71,-17.73l6530.48 0c9.79,0 17.73,7.98 17.73,17.73l0 283.06c0,9.72 -7.94,17.7 -17.73,17.7z"/>
   <path class="fil4" d="M622.71 1940.04l3864.15 -90.56c62.84,-1.49 114.87,35.91 114.87,82.52l0 42.96c0,44.78 -48.16,81.42 -108.52,82.55l-3862.49 72.57c-60.44,1.13 -111.05,-33.71 -114.04,-78.49l-1.66 -24.95c-3.07,-46.13 45.46,-85.15 107.7,-86.61z"/>
   <path class="fil5" d="M4359.08 2024.12c-47.09,-5.9 -80.38,-49.55 -74.36,-97.49 6,-47.94 49.03,-82.03 96.12,-76.13 47.07,5.9 80.38,49.55 74.36,97.49 -6.02,47.94 -49.05,82.03 -96.12,76.13zm127.26 -72.23c8.19,-65.44 -37.25,-125.04 -101.53,-133.09 -64.28,-8.05 -123.04,38.48 -131.22,103.93 -4.3,34.21 6.09,66.78 26.13,91.26l-119.66 92.07c-7.56,6.07 -8.33,17.3 -1.68,24.38l1.08 1.16c5.91,6.26 15.75,6.51 21.96,0.59l108.7 -107.06c17.33,16.36 39.68,27.52 64.96,30.69 64.28,8.05 123.04,-38.48 131.25,-103.93z"/>
   <path class="fil6" d="M549.94 3614.17l64.44 1558.98c2.17,52.56 75.55,94.26 164.53,93.56l1891.8 -15.39c88.95,-0.74 160.33,-43.6 160.11,-96.13l-6.58 -1573.62c-0.22,-53.84 -75.44,-97.04 -166.56,-95.63l-1949.67 30c-89.53,1.37 -160.26,45.32 -158.07,98.22z"/>
   <path class="fil7" d="M3194.59 2234.49l1185.95 -14.42c121.38,-1.49 222.04,37.93 223.05,87.34l20.14 980.04c1.02,49.38 -97.89,89.46 -219.22,88.85l-1234.65 -6.16c-69.45,-0.33 -125.77,-23 -127.42,-51.28l-57.88 -994.2c-2.83,-48.44 91,-88.74 210.04,-90.18z"/>
   <path class="fil8" d="M847.6 2212.04l1687.63 -14.85c172.75,-1.53 315.96,39.1 317.43,90.04l28.66 1009.99c1.44,50.92 -139.3,92.23 -312,91.59l-1756.91 -6.34c-98.85,-0.36 -179,-23.7 -181.34,-52.83l-82.38 -1024.63c-4.02,-49.95 129.52,-91.47 298.91,-92.96z"/>
   <path class="fil9" d="M3191.78 3496.48l1185.93 -22.9c121.4,-2.34 222.04,60.22 223.05,138.64l20.16 1555.31c0.99,78.37 -97.89,141.98 -219.25,141.02l-1234.62 -9.78c-69.48,-0.57 -125.8,-36.52 -127.43,-81.37l-57.91 -1577.81c-2.81,-76.88 91.03,-140.83 210.07,-143.11z"/>
   <path class="fil10" d="M4932.8 1805.76l925.2 -14.9c94.74,-1.53 173.24,39.19 174.02,90.25l15.7 1012.26c0.83,51.01 -76.35,92.42 -171.04,91.8l-963.23 -6.37c-54.15,-0.35 -98.11,-23.77 -99.38,-52.95l-45.16 -1026.94c-2.22,-50.04 70.99,-91.66 163.88,-93.15z"/>
   <path class="fil11" d="M4955.55 3121.09l925.2 -11.68c94.68,-1.21 173.24,30.73 174.02,70.79l15.7 794.26c0.78,40.01 -76.35,72.52 -171.03,72.02l-963.23 -5.01c-54.17,-0.28 -98.12,-18.65 -99.4,-41.54l-45.18 -805.76c-2.2,-39.26 71,-71.93 163.92,-73.08z"/>
   <path class="fil12" d="M5945.7 5289.18c-0.72,0 -1.43,0 -2.15,-0.02l-963.17 -5.73c-54.21,-0.33 -98.18,-21.48 -99.45,-47.83l-45.16 -927.56c-2.19,-45.18 71,-82.79 163.89,-84.13l925.2 -13.45c1.73,-0.03 3.46,-0.06 5.13,-0.06 92.41,0 168.11,36.29 168.89,81.56l15.7 914.3c0.78,45.72 -75.22,82.92 -168.89,82.92z"/>
   <path class="fil13" d="M4672.35 5385.78l-42.26 -2695.56c-0.44,-29.57 28.07,-53.74 63.41,-53.74 57.17,0 103.51,-38.79 103.51,-86.63l0 -658.41c0,-41.93 41.47,-75.51 91.54,-74.12l228 6.33c56.11,1.56 100.95,39.63 101.96,86.61l77.96 3475.53 -624.13 0z"/>
   <path class="fil14" d="M5304.66 4029.67l0.96 29.51c90.74,126.29 173.24,94.06 230.02,56.18 -34.15,-85.07 -40.24,-94.47 -67.52,-124.02 -102.56,74.59 -163.46,38.33 -163.46,38.33z"/>
   <path class="fil15" d="M5718.07 3891.09l-159.63 -249.6c-10.51,140.78 -35.46,272.64 -90.32,349.86 27.28,29.55 33.37,38.95 67.52,124.02 141.84,-94.59 182.44,-224.28 182.44,-224.28z"/>
   <path class="fil16" d="M5874.78 5985.69c-79.58,3.65 -156.59,1.34 -208.05,-1.3 46.8,-33.33 154.74,-105.85 245,-134.71l61.97 -3.71c0,0 21.01,31.94 28.54,105.02 -10.33,12.81 -40.3,30.69 -127.46,34.7z"/>
   <path class="fil17" d="M5666.07 5984.86l0.66 -0.47c51.46,2.65 128.47,4.96 208.05,1.3 87.16,-4.02 117.13,-21.89 127.46,-34.7 0.3,3.37 0.65,6.7 0.95,10.24 1.31,16.05 -10.63,30.12 -26.63,31.35 -65.25,4.93 -226.85,16.07 -304.76,11.99 -10.27,-0.54 -14.09,-13.74 -5.73,-19.71z"/>
   <path class="fil18" d="M6444.06 5964.37c5.79,-37.35 15.17,-91.38 22.39,-105.19 11.28,-21.67 50.08,0 50.08,0 0,0 27.28,12.7 39.76,33.87 8,13.48 30.09,51.87 45.07,77.93 1.73,2.97 2.44,6.19 2.33,9.28l-155.28 5.43c-3.82,-6.09 -5.61,-13.53 -4.36,-21.32z"/>
   <path class="fil19" d="M6603.69 5980.26c-0.24,8.85 -7.28,16.9 -17.19,17.19l-110.62 3.04c-11.7,0.3 -21.85,-5.76 -27.46,-14.8l155.28 -5.43z"/>
   <path class="fil20" d="M6432.18 5735c1.37,4.48 21.43,101.77 30.2,144.47 2.39,11.8 13.02,20.09 25.07,19.48 6.57,-0.33 14.21,-0.92 22.21,-1.96 14.27,-1.84 25.07,-13.72 25.61,-28.04 1.43,-37.4 2.15,-109.2 -11.58,-137.03 -18.98,-38.39 -91.52,3.09 -91.52,3.09z"/>
   <path class="fil21" d="M5985.93 5762.85c-8.66,-0.26 3.4,44.44 -9.61,88.38 -2.93,9.92 -10.39,17.71 -20.72,17.83 -6.69,0.09 -14.63,-0.02 -22.69,-0.69 -12.12,-0.97 -21.85,-10.37 -22.98,-22.47l-10.57 -113.99 86.56 30.94z"/>
   <path class="fil22" d="M5745.17 4551.24c3.88,18.7 139.39,809.54 147.63,1218.76 0.18,6.85 5.2,12.61 12,13.55 17.25,2.41 50.74,5.5 83.28,-0.54 4.42,-0.83 7.76,-4.48 8.06,-9 4.72,-76.27 42.8,-721.03 -3.82,-1024.56 0,0 385.47,811.35 443.91,1035.09 1.43,5.45 6.44,9.11 12.06,8.8 16.48,-0.88 50.86,-3.85 78.08,-13.88 9.79,-3.59 15.34,-13.85 12.9,-23.99 -32.66,-133.89 -261.48,-1056.35 -416.81,-1259.57l-377.29 55.33z"/>
   <path class="fil23" d="M5992.32 4754.51c1.25,0 2.5,-0.47 3.52,-1.44 2.03,-1.96 2.03,-5.15 0.06,-7.15l-51.58 -52.79c-1.97,-2 -5.19,-2.03 -7.16,-0.09 -2.03,1.96 -2.03,5.17 -0.12,7.17l51.64 52.78c1.01,1.02 2.33,1.51 3.64,1.51z"/>
   <path class="fil24" d="M5524.83 3561.13c98.98,-25.94 281.65,-66.99 427.08,-57.91 47.46,2.97 56.48,47.71 58.39,81.11 21.97,387.25 55.64,711.61 112.17,911.57 -127.04,50.28 -253,73.59 -377.29,55.33 -93.07,-199.42 -174.5,-429.62 -244.05,-691.06 0,0 -40.78,-208.5 -1.13,-278 6.15,-10.83 14.27,-18.29 24.83,-21.06z"/>
   <path class="fil25" d="M5763.02 3289.85c0,0 24.96,149.16 32.42,218.16 1.25,11.21 -4.66,21.81 -14.69,26.96 -27.28,14.06 -85.67,36.72 -149.19,15.93 -10.51,-3.43 -17.37,-13.55 -17.13,-24.56l4.36 -199.16 144.23 -37.34z"/>
   <path class="fil26" d="M5161.74 2503.31c3.52,-2.01 4.78,-6.49 2.8,-10.03l-10.15 -17.98 -0.78 0.42 -59.76 -96.9c-2.15,-3.47 -6.69,-4.53 -10.15,-2.41l-11.28 6.98c-3.46,2.13 -4.59,6.66 -2.44,10.13l55.16 89.44c2.21,3.56 1.01,8.24 -2.63,10.29l-433.44 244.42c-3.54,1.98 -4.79,6.49 -2.78,10.03l10.15 17.99 0.15 -0.07 140.83 249.74c2,3.54 6.5,4.8 10.04,2.79l11.59 -6.52c3.54,-2.01 4.8,-6.5 2.79,-10.04l-137.22 -243.35c-1.98,-3.55 -0.73,-8.03 2.81,-10.04l434.32 -244.91z"/>
   <polygon class="fil27" points="4984.74,2168.06 5099.96,2372.33 4201.67,2878.88 4086.48,2674.59 "/>
   <path class="fil28" d="M5768.39 4747.76l-66.44 33.64c-1.73,0.88 -3.88,0.19 -4.72,-1.56l-901.43 -1780.69c-0.9,-1.72 -0.19,-3.85 1.56,-4.74l66.43 -33.64c1.75,-0.87 3.87,-0.17 4.74,1.56l901.41 1780.7c0.9,1.74 0.18,3.87 -1.55,4.74z"/>
   <path class="fil29" d="M4181.82 2754.48c32.06,56.84 40.95,112.55 19.87,124.45 -21.1,11.87 -64.16,-24.55 -96.22,-81.39 -32.06,-56.84 -40.93,-112.55 -19.85,-124.42 21.07,-11.9 64.15,24.52 96.19,81.37z"/>
   <path class="fil30" d="M5074.22 2252.22c32.06,56.84 40.89,112.55 19.82,124.44 -21.07,11.87 -64.11,-24.55 -96.17,-81.39 -32.06,-56.84 -40.95,-112.55 -19.88,-124.43 21.07,-11.89 64.18,24.55 96.23,81.37z"/>
   <path class="fil31" d="M5290.15 4034.21c-6.27,-9.52 -7.88,-21.3 -4.48,-32.18 6.5,-21.13 20.18,-52.15 42.92,-45.28 33.97,10.2 38.5,94.09 38.5,94.09l-9.01 53.85 11.34 26.83c-22.45,-10.83 -50.03,-49.61 -79.28,-97.32z"/>
   <path class="fil32" d="M6075.96 4223.72c13.91,-19.45 27.82,-40.77 41.55,-64.28 135.81,-232.64 -113.31,-588.89 -113.31,-588.89l-75.94 226c112.29,125.18 65.13,245.95 26.98,346.18 -50.03,131.2 -266.25,242.43 -266.25,242.43l41.19 50.83c0,0 222.32,-39.12 345.77,-212.26z"/>
   <path class="fil33" d="M6161.39 3925.74c-2.81,-180.63 -146.26,-372.5 -172.47,-406.25 -1.85,-2.39 -5.61,-1.91 -6.87,0.85l-53.79 276.21c22.87,53.39 18.21,86.96 41.02,135.05 61.67,-8.65 118.98,-9.09 179.81,4.11 6.39,1.39 12.36,-3.44 12.3,-9.96z"/>
   <path class="fil34" d="M5689 4385.15c-12.66,-6.39 -111.57,8.03 -96.41,21.65 26.57,23.84 27.76,41.93 -0.24,64.25 -13.79,11.03 -45.55,27.77 -54.2,2.04 -2.39,-7.24 -2.74,-16.64 -9.61,-19.93 -5.07,-2.43 -19.52,14.99 -20.36,20.56 -4.83,31.35 20.24,57.41 47.76,67.8 13.43,5.05 27.64,7.2 41.79,9.33 7.88,1.17 27.52,4.11 29.25,3.35 2.09,-0.89 3.28,-2.97 4.78,-4.65 6.45,-7.15 40.95,-36.21 48.48,-45.94 4.06,-5.26 55.81,-70.46 53.13,-76.72 0,0 -33.67,-36.33 -44.35,-41.74z"/>
   <path class="fil35" d="M5589.84 3130.92c0,0 -79.94,150.51 -69.67,211.31 10.21,60.81 109.31,56.44 195.87,7.06l60.47 -162.52 -186.67 -55.85z"/>
   <path class="fil36" d="M5712.22 3269.48c-3.52,-1.56 -4.83,-5.88 -2.74,-9.09 6.44,-9.79 18.44,-29.74 22.27,-47.23 0,0 14.39,-9.21 -36.59,-21.41 -50.93,-12.19 -126.92,-31.11 -142.92,-74.5 -15.58,-42.27 25.37,-148.64 90.62,-63.9 2.51,3.24 7.34,3.28 9.85,0.08 10.69,-13.93 38.8,-42.85 77.91,-25.33 36.54,16.41 40.65,43.2 40.11,56.7 -0.12,3.96 3.46,7.06 7.35,6.32 18.5,-3.54 62.86,-6.56 83.52,38.93 17.07,37.48 5.97,58.71 -4.12,69.07 -3.22,3.37 -1.85,8.89 2.63,10.27 12.18,3.73 27.88,14.02 26.33,42.49 -2.21,39.33 -46.21,35.86 -58.69,34.06 -2.09,-0.28 -4.18,0.43 -5.55,1.96 -10.74,11.87 -59.1,62.34 -111.46,68.41 -4.54,0.54 -8.06,-3.94 -6.57,-8.26l22.63 -65.86c1.07,-3.07 -0.42,-6.42 -3.34,-7.74l-11.22 -4.96z"/>
   <path class="fil37" d="M5703.08 3278.83c0,0 56.95,-39.07 61.07,-6.19 4.18,32.91 -51.22,47.66 -78.68,35.38l17.61 -29.2z"/>
   <path class="fil4" d="M5532.11 5990.91c-174.92,58.43 -344.82,58.47 -508.63,5.1 -41.43,-13.5 -69.49,-52.09 -69.49,-95.65l0 -802.45c201.36,44.31 412.39,46.57 634.71,0l0 814.87c0,35.55 -22.92,66.87 -56.59,78.13z"/>
   <path class="fil27" d="M5588.7 5091.5c0,35.22 -142.08,63.79 -317.35,63.79 -175.27,0 -317.35,-28.56 -317.35,-63.79 0,-35.21 142.08,-63.78 317.35,-63.78 175.28,0 317.35,28.57 317.35,63.78z"/>
   <path class="fil38" d="M5588.7 5715.78c-211.57,73.6 -423.14,73.6 -634.71,0l0 -320.11c213.48,52.64 425.11,55.31 634.71,0l0 320.11z"/>
   <path class="fil39" d="M4988.08 5170.85c6.8,25.43 35.76,42.54 61.31,36.26 17.91,-4.42 33.19,-18.44 51.64,-18.75 20.96,-0.35 37.67,16.93 49.85,33.92 22.21,30.93 39.1,65.63 49.67,102.17 3.52,12.15 6.69,25.07 15.22,34.44 18.27,20.02 52.83,13.6 73.19,-4.34 20.3,-17.96 31.34,-43.85 46.45,-66.38 15.1,-22.52 38.32,-43.52 65.37,-41.89 9.07,0.54 17.85,3.66 26.93,4.04 20.06,0.85 39.82,-13.39 45.37,-32.69 1.73,-5.93 2.27,-12.33 5.31,-17.66 9.19,-16.05 33.43,-17.59 45.96,-30.59 7.94,-8.26 10.63,-20.25 19.88,-28.35 3.46,-3.07 27.58,-13.03 28.06,-14.54 4.24,-12.93 -9.26,-24.62 -21.67,-30.17 -72.95,-32.48 -156.35,-0.09 -235.45,10.98 -77.72,10.88 -152.05,-6.85 -229.06,-6.16 -42.39,0.35 -113.85,10.57 -98.02,69.73z"/>
   <path class="fil40" d="M5592.41 5093.32c0,35.22 -142.08,63.78 -317.35,63.78 -175.28,0 -317.36,-28.56 -317.36,-63.78 0,-35.22 142.08,-63.78 317.36,-63.78 175.27,0 317.35,28.57 317.35,63.78z"/>
   <path class="fil41" d="M5527.81 5093.32c0,21.31 -116.95,38.57 -261.24,38.57 -144.29,0 -261.24,-17.26 -261.24,-38.57 0,-21.29 116.95,-38.57 261.24,-38.57 144.29,0 261.24,17.28 261.24,38.57z"/>
   <path class="fil42" d="M1814.53 5928.23l-1715.48 0c-54.71,0 -99.05,-44.33 -99.05,-99.05l0 -1656.38c0,-54.61 44.18,-98.89 98.78,-99.05l1729.2 -4.63c55,-0.17 99.62,44.57 99.31,99.57l-13.71 1661.01c-0.28,54.5 -44.55,98.53 -99.05,98.53z"/>
   <path class="fil4" d="M1730.47 4195.91l-1533.92 9.44c-55.45,0.33 -100.15,45.51 -99.89,100.96l10.7 1393.11c0.26,54.6 44.07,99.03 98.68,100.02l1490.39 27.19c55.66,1.02 101.55,-43.41 102.33,-99.07l32.81 -1429.74c0.8,-56.3 -44.8,-102.26 -101.1,-101.91z"/>
   <path class="fil43" d="M1638.03 4365.73l-1181.87 0c-16.6,0 -30.07,-13.46 -30.07,-30.05l0 -10.57c0,-16.62 13.46,-30.07 30.07,-30.07l1181.87 0c16.61,0 30.07,13.46 30.07,30.07l0 10.57c0,16.59 -13.46,30.05 -30.07,30.05z"/>
   <path class="fil43" d="M472.59 4505.38c-16.56,0 -30.06,-13.43 -30.06,-30.05l0 -2.45c0,-16.43 13.17,-29.81 29.59,-30.07l1033.62 -16.38c0.14,0 0.31,0 0.48,0 17.2,0 30.95,14.44 30.02,31.7 -0.87,15.72 -13.74,28.13 -29.48,28.42l-1033.62 18.83c-0.19,0 -0.37,0 -0.56,0z"/>
   <path class="fil44" d="M1746.66 4690.33l0.07 0 -0.07 0zm-1467 -85.59c-14.85,0 -28.87,5.66 -39.6,15.98 -11.02,10.59 -17.23,24.83 -17.52,40.1l-35.98 983.75c-0.29,15.08 5.44,29.6 16.11,40.62 10.69,11.02 25.02,17.19 40.37,17.37l1398.02 16.76c0.22,0.02 0.45,0.02 0.68,0.02 31.02,0 56.59,-25.04 57.15,-56.15l33.54 -973.22c0.47,-31.42 -24.62,-57.43 -56.07,-58.07l-1395.56 -27.14c-0.38,0 -0.76,-0.02 -1.14,-0.02zm1362.07 1143.1c-0.35,0 -0.68,0 -1.03,0l-1398.02 -16.78c-22.99,-0.28 -44.47,-9.52 -60.48,-26.04 -16,-16.5 -24.57,-38.24 -24.14,-61.23l35.98 -983.76c0.43,-22.64 9.75,-43.98 26.24,-59.84 16.5,-15.88 38.52,-24.31 61.07,-23.91l1395.57 27.15c47.15,0.92 84.82,40.04 83.99,87.17l0 0.24 -33.54 973.12c-0.82,46.36 -39.14,83.89 -85.64,83.89z"/>
   <path class="fil44" d="M1728.56 4794.53l-1522.54 0c-7.87,0 -14.25,-6.4 -14.25,-14.26 0,-7.89 6.38,-14.26 14.25,-14.26l1522.54 0c7.86,0 14.26,6.37 14.26,14.26 0,7.86 -6.39,14.26 -14.26,14.26z"/>
   <path class="fil45" d="M1167.13 1343.97c-1.51,1.37 -3.46,2.27 -5.64,2.45 -5.32,0.48 -10.02,-3.46 -10.48,-8.78 -1.13,-12.96 -2.01,-26.09 -2.64,-38.98 -0.27,-5.37 3.86,-9.91 9.2,-10.15 5.34,-0.3 9.88,3.88 10.14,9.19 0.62,12.66 1.49,25.55 2.6,38.27 0.26,3.17 -1,6.09 -3.18,8z"/>
   <path class="fil46" d="M1399.11 604.43c-3.54,3.22 -8.94,3.4 -12.7,0.24 -4.09,-3.41 -4.65,-9.49 -1.22,-13.61 17.09,-20.48 35.22,-40.59 53.87,-59.64 3.89,-3.76 9.87,-3.88 13.69,-0.18 3.83,3.76 3.9,9.91 0.17,13.73 -18.29,18.69 -36.07,38.39 -52.85,58.5 -0.29,0.36 -0.61,0.66 -0.95,0.96zm213.68 -192.53c-0.36,0.3 -0.71,0.6 -1.11,0.84 -21.69,14.57 -43.1,30.2 -63.64,46.5 -4.2,3.28 -10.3,2.63 -13.62,-1.61 -3.31,-4.18 -2.39,-10.27 1.58,-13.55 20.94,-16.59 42.77,-32.54 64.89,-47.4 4.44,-2.98 10.45,-1.85 13.43,2.63 2.72,4.06 1.98,9.37 -1.54,12.59zm184.03 -98.14c-0.8,0.72 -1.74,1.31 -2.83,1.73 -24.2,9.91 -48.34,20.89 -71.74,32.65 -4.79,2.39 -10.59,0.48 -13.01,-4.3 -2.41,-4.78 -0.46,-10.63 4.32,-13.01 23.84,-12 48.44,-23.17 73.11,-33.25 4.95,-2.03 10.6,0.36 12.63,5.31 1.58,3.88 0.47,8.18 -2.48,10.87zm-514.09 463.85c-2.94,2.63 -7.33,3.28 -11.02,1.31 -4.73,-2.5 -6.52,-8.36 -4.02,-13.07 12.54,-23.58 26.14,-46.93 40.47,-69.43 2.85,-4.48 8.85,-5.85 13.39,-2.98 4.51,2.86 5.83,8.89 2.95,13.37 -14.05,22.09 -27.4,45.01 -39.7,68.11 -0.54,1.02 -1.24,1.91 -2.06,2.69zm714.22 -522.54c-1.27,1.13 -2.91,1.97 -4.72,2.33 -25.63,4.72 -51.51,10.5 -76.89,17.31 -5.14,1.37 -10.45,-1.73 -11.85,-6.87 -1.37,-5.19 1.7,-10.5 6.87,-11.88 25.85,-6.87 52.22,-12.83 78.37,-17.61 5.24,-1.02 10.29,2.51 11.26,7.76 0.64,3.4 -0.61,6.74 -3.04,8.95zm-792.66 715.84c-2.42,2.15 -5.86,3.1 -9.2,2.09 -5.13,-1.49 -8.09,-6.87 -6.59,-12 7.48,-25.67 16.05,-51.34 25.44,-76.23 1.87,-5.02 7.48,-7.52 12.48,-5.61 5,1.91 7.53,7.46 5.64,12.48 -9.22,24.41 -17.62,49.61 -24.96,74.8 -0.52,1.79 -1.51,3.28 -2.8,4.48zm1000.53 -732.38c-1.77,1.61 -4.13,2.57 -6.73,2.51 -26.13,-0.66 -52.62,-0.24 -78.75,1.19 -5.33,0.3 -9.89,-3.82 -10.2,-9.13 -0.28,-5.37 3.83,-9.91 9.13,-10.21 26.65,-1.43 53.66,-1.85 80.31,-1.19 5.33,0.12 9.56,4.54 9.41,9.91 -0.05,2.75 -1.27,5.25 -3.18,6.93zm-1038.31 937.56c-1.9,1.73 -4.49,2.69 -7.26,2.45 -5.33,-0.42 -9.31,-5.07 -8.88,-10.39 2.12,-26.57 5.32,-53.43 9.52,-79.81 0.83,-5.26 5.78,-8.84 11.08,-8 5.28,0.83 8.88,5.79 8.04,11.04 -4.11,25.91 -7.26,52.24 -9.34,78.32 -0.2,2.57 -1.39,4.78 -3.17,6.39zm1245.21 -911.05c-2.29,2.03 -5.5,2.98 -8.71,2.27 -25.55,-5.97 -51.58,-11.04 -77.41,-14.98 -5.26,-0.78 -8.9,-5.73 -8.09,-11.04 0.8,-5.26 5.74,-8.9 11.02,-8.12 26.32,4.06 52.88,9.2 78.89,15.28 5.2,1.2 8.43,6.39 7.22,11.64 -0.47,1.97 -1.51,3.7 -2.93,4.96zm197.3 67.81c-2.79,2.51 -6.92,3.28 -10.56,1.61 -23.67,-10.99 -48.17,-21.19 -72.8,-30.27 -5,-1.91 -7.56,-7.46 -5.71,-12.48 1.84,-5.02 7.43,-7.58 12.44,-5.73 25.09,9.31 50.06,19.7 74.21,30.86 4.84,2.27 6.96,8 4.72,12.84 -0.56,1.25 -1.37,2.33 -2.31,3.16zm179.29 106.62c-3.36,3.04 -8.5,3.4 -12.25,0.59 -21.01,-15.64 -42.89,-30.62 -65.04,-44.53 -4.53,-2.87 -5.9,-8.83 -3.04,-13.37 2.79,-4.59 8.81,-5.91 13.34,-3.04 22.59,14.21 44.9,29.49 66.3,45.43 4.3,3.17 5.17,9.25 1.99,13.55 -0.41,0.48 -0.83,0.96 -1.3,1.37z"/>
   <path class="fil47" d="M2914.48 550.88c-3.84,3.46 -9.82,3.28 -13.45,-0.48 -8.81,-9.19 -17.89,-18.33 -27.05,-27.16 -3.85,-3.7 -3.96,-9.85 -0.24,-13.67 3.8,-3.76 9.85,-4 13.69,-0.24 9.33,9.02 18.6,18.33 27.57,27.64 3.69,3.88 3.57,10.03 -0.28,13.73l-0.24 0.18z"/>
   <path class="fil48" d="M3197.68 1292.27c-1.81,1.61 -4.22,2.57 -6.84,2.5 -5.33,-0.24 -9.52,-4.71 -9.32,-10.09 0.47,-12.78 0.7,-25.67 0.68,-38.33 0,-5.31 4.32,-9.67 9.65,-9.67 5.33,-0.06 9.68,4.3 9.7,9.67 0.02,12.83 -0.21,26.03 -0.69,39.04 -0.09,2.74 -1.32,5.19 -3.19,6.87z"/>
   <path class="fil49" d="M1596.93 2089.1c-3.28,2.95 -8.29,3.38 -12.04,0.73 -21.48,-15.06 -42.68,-31.16 -62.96,-47.85 -4.13,-3.41 -4.72,-9.52 -1.32,-13.65 3.39,-4.04 9.51,-4.72 13.61,-1.32 19.93,16.41 40.7,32.2 61.75,46.95 4.39,3.07 5.46,9.11 2.39,13.48 -0.43,0.63 -0.93,1.18 -1.44,1.65zm179.22 100.11c-2.71,2.45 -6.72,3.23 -10.31,1.7 -24.11,-10.41 -48.11,-21.91 -71.34,-34.14 -4.72,-2.5 -6.54,-8.38 -4.04,-13.1 2.48,-4.72 8.33,-6.54 13.08,-4.04 22.78,12.02 46.31,23.28 69.97,33.5 4.91,2.1 7.17,7.81 5.05,12.72 -0.57,1.33 -1.39,2.44 -2.41,3.36zm195.67 62.13c-2.22,2 -5.34,2.97 -8.5,2.29 -20.18,-4.25 -40.58,-9.18 -60.57,-14.69 -5.41,-1.46 -10.76,-3 -16.1,-4.56 -5.15,-1.48 -8.09,-6.87 -6.58,-11.99 1.48,-5.14 6.87,-8.09 11.99,-6.59 5.24,1.54 10.5,3.03 15.79,4.46 19.67,5.38 39.66,10.25 59.49,14.43 5.22,1.11 8.57,6.23 7.46,11.47 -0.43,2.07 -1.51,3.87 -2.97,5.17zm204.07 21.93c-1.72,1.56 -4.04,2.5 -6.54,2.48 -26.19,-0.12 -52.76,-1.3 -78.99,-3.47 -5.31,-0.45 -9.28,-5.12 -8.83,-10.46 0.43,-5.34 5.1,-9.3 10.43,-8.85 25.74,2.15 51.82,3.28 77.48,3.44 5.36,0.02 9.65,4.37 9.63,9.73 0,2.83 -1.25,5.38 -3.18,7.13zm993.56 -777.67c-2.28,2.09 -5.54,2.98 -8.78,2.21 -5.19,-1.26 -8.38,-6.51 -7.11,-11.7 6.07,-25.02 11.26,-50.63 15.44,-76 0.87,-5.31 5.83,-8.89 11.11,-8 5.26,0.83 8.85,5.85 7.98,11.1 -4.22,25.91 -9.54,51.94 -15.72,77.43 -0.5,1.97 -1.53,3.7 -2.93,4.96zm-789.33 757.96c-1.25,1.11 -2.78,1.93 -4.56,2.29 -25.7,5.15 -51.95,9.37 -78.04,12.53 -5.31,0.64 -10.13,-3.14 -10.76,-8.44 -0.67,-5.31 3.11,-10.13 8.44,-10.8 25.57,-3.09 51.32,-7.22 76.54,-12.27 5.26,-1.07 10.36,2.33 11.39,7.57 0.71,3.47 -0.56,6.89 -3.02,9.11zm721.18 -564.3c-2.81,2.51 -6.96,3.28 -10.6,1.56 -4.84,-2.27 -6.92,-8 -4.65,-12.9 10.91,-23.16 21.08,-47.22 30.24,-71.4 1.89,-5.02 7.49,-7.52 12.49,-5.61 5,1.85 7.53,7.46 5.61,12.48 -9.32,24.65 -19.71,49.13 -30.83,72.77 -0.54,1.19 -1.35,2.27 -2.27,3.1zm-525.01 503.82c-0.81,0.71 -1.7,1.3 -2.74,1.72 -24.22,10.24 -49.1,19.64 -73.94,27.95 -5.05,1.7 -10.55,-1.04 -12.25,-6.11 -1.7,-5.06 1.04,-10.58 6.11,-12.25 24.36,-8.15 48.78,-17.38 72.54,-27.41 4.94,-2.1 10.63,0.21 12.7,5.15 1.63,3.89 0.54,8.26 -2.43,10.95zm419.35 -327.81c-3.37,3.04 -8.52,3.37 -12.27,0.57 -4.3,-3.21 -5.17,-9.28 -1.96,-13.57 15.44,-20.63 30.26,-42.11 44.02,-63.83 2.86,-4.56 8.85,-5.88 13.37,-3.02 4.53,2.88 5.85,8.85 3,13.36 -14.05,22.17 -29.13,44.07 -44.87,65.11 -0.4,0.52 -0.82,0.99 -1.28,1.39zm-239.26 229.33c-0.31,0.28 -0.66,0.54 -1.01,0.8 -21.65,14.82 -44.14,29.01 -66.87,42.16 -4.63,2.67 -10.56,1.09 -13.22,-3.54 -2.69,-4.63 -1.06,-10.53 3.55,-13.24 22.3,-12.89 44.37,-26.82 65.59,-41.36 4.42,-3.02 10.44,-1.89 13.46,2.52 2.79,4.04 2.06,9.44 -1.49,12.66zm106.7 -84.09l-6.54 5.85c-4.01,3.55 -10.13,3.17 -13.67,-0.85 -3.52,-3.96 -3.17,-10.06 0.78,-13.6l0.07 -0.07 6.4 -5.71c16.97,-15.32 33.66,-31.44 49.59,-47.94 3.85,-3.75 9.86,-3.94 13.69,-0.24 3.85,3.73 3.97,9.84 0.24,13.69 -16.24,16.81 -33.26,33.26 -50.56,48.86z"/>
   <path class="fil50" d="M1441.37 1954.55c-3.9,3.52 -9.92,3.31 -13.53,-0.54 -8.85,-9.37 -17.69,-19.09 -26.28,-28.91 -3.52,-4.04 -2.67,-10.16 0.92,-13.67 4.01,-3.52 10.15,-3.11 13.67,0.93 8.4,9.63 17.09,19.17 25.76,28.37 3.68,3.9 3.49,10.04 -0.38,13.69l-0.16 0.14z"/>
   <path class="fil51" d="M2034.39 2015.48c-1.2,0 -2.41,-0.19 -3.58,-0.54l-170.32 -52.62c-4.98,-1.53 -8.43,-6.04 -8.59,-11.26l-1.3 -39.8 -3.52 -108.63c-43.22,-25.31 -82.81,-55.22 -118.31,-88.91 -15.11,-14.35 -29.48,-29.36 -43.11,-45l-146.85 22.74c-0.61,0.06 -1.25,0.12 -1.86,0.12 -4.46,0 -8.66,-2.45 -10.79,-6.45l-56.09 -106.2 -27.14 -51.46c-2.44,-4.6 -1.68,-10.27 1.89,-14.03l101.6 -108.41c-17.54,-67.16 -24.53,-137.6 -19.57,-208.82l-119.85 -87.7c-4.2,-3.11 -6,-8.48 -4.46,-13.49l52.62 -170.26c1.54,-5.02 6.04,-8.48 11.26,-8.59l148.43 -4.83c36.07,-61.67 81.55,-115.87 133.91,-161.43l-22.76 -146.86c-0.81,-5.13 1.74,-10.21 6.35,-12.65l157.61 -83.22c1.81,-0.96 3.78,-1.43 5.71,-1.43 3.02,0 6.04,1.13 8.36,3.34l108.42 101.61c53.02,-13.91 108.09,-21.13 164.01,-21.13 14.87,0 29.81,0.48 44.8,1.56l87.67 -119.87c2.37,-3.17 6.05,-5.02 9.87,-5.02 1.2,0 2.41,0.18 3.59,0.6l170.32 52.59c4.98,1.56 8.43,6.03 8.59,11.22l4.84 148.47c61.63,36.06 115.85,81.55 161.39,133.91l146.85 -22.75c0.61,-0.12 1.25,-0.18 1.87,-0.18 4.48,0 8.66,2.51 10.79,6.51l83.23 157.66c2.43,4.59 1.68,10.21 -1.89,14.03l-101.6 108.41c17.56,67.16 24.52,137.6 19.57,208.82l119.84 87.7c4.2,3.04 6,8.48 4.46,13.43l-46.9 151.87 -5.69 18.45c-1.54,5.01 -6.07,8.42 -11.28,8.59l-148.43 4.83c-24.83,42.44 -54.13,81.37 -87.08,116.35 -14.89,15.85 -30.52,30.87 -46.83,45.05l22.78 146.85c0.78,5.15 -1.77,10.22 -6.37,12.65l-3.76 1.98 -153.86 81.26c-1.8,0.94 -3.76,1.41 -5.71,1.41 -3.02,0 -6.02,-1.13 -8.33,-3.31l-78.53 -73.58 -29.92 -28.02c-53.01,13.86 -108.08,21.13 -164.01,21.13 -14.87,0 -29.81,-0.53 -44.8,-1.56l-10.43 14.28 -77.24 105.56c-2.33,3.21 -6.04,5 -9.87,5zm-58.56 -414.45l-14.23 25.31c27.43,15.4 56.69,27.94 86.98,37.31 43.55,13.43 87.63,19.82 130.99,19.82 111.11,0 217.54,-42.03 298.56,-115.1 57.41,-51.82 102.05,-119.22 126.48,-198.32 35.06,-113.48 23.82,-233.83 -31.63,-338.85 -17.59,-33.25 -38.93,-63.76 -63.5,-90.98 -52.97,-58.68 -120.96,-102.26 -198.46,-126.2 -43.55,-13.49 -87.59,-19.88 -130.96,-19.88 -189.88,0 -366.17,122.8 -425.09,313.47 -23.77,77.01 -26.25,158.86 -7.15,236.7l28.2 -6.87c-17.84,-72.77 -15.53,-149.3 6.7,-221.3 55.05,-178.26 219.81,-292.94 397.31,-292.94 40.53,0 81.72,5.97 122.39,18.51 72.44,22.39 135.99,63.16 185.52,118.02 22.96,25.43 42.91,53.91 59.35,85.01 51.83,98.2 62.31,210.68 29.57,316.7 -14.3,46.26 -36,88.29 -63.38,125.13 -0.21,0.24 -0.4,0.48 -0.59,0.78 -0.19,0.24 -0.37,0.48 -0.58,0.78 -78.14,104.06 -201.97,166.32 -332.72,166.32 -40.54,0 -81.75,-6.03 -122.45,-18.56 -28.33,-8.78 -55.69,-20.54 -81.32,-34.87zm200.67 -532.98c-91.17,0 -167.63,71.7 -172.44,163.81 -2.43,46.09 13.27,90.32 44.15,124.65 30.87,34.27 73.27,54.5 119.37,56.89 3.09,0.18 6.16,0.3 9.23,0.3 42.75,0 83.42,-15.58 115.43,-44.42l0.12 -0.12c34.22,-30.87 54.38,-73.25 56.81,-119.28 2.41,-46.09 -13.26,-90.32 -44.16,-124.65 -30.88,-34.33 -73.28,-54.5 -119.37,-56.95 -3.07,-0.12 -6.09,-0.24 -9.13,-0.24zm0.28 316.58c-2.55,0 -5.12,-0.06 -7.69,-0.18 -38.34,-2.03 -73.6,-18.87 -99.31,-47.4 -25.69,-28.54 -38.74,-65.31 -36.73,-103.7 2.03,-38.26 18.79,-73.55 47.26,-99.22l0.12 -0.06c26.63,-24 60.46,-36.95 96.03,-36.95 2.55,0 5.1,0.06 7.67,0.18 38.33,2.03 73.6,18.87 99.31,47.4 25.68,28.54 38.74,65.31 36.73,103.7 -2.01,38.26 -18.8,73.48 -47.26,99.22l-0.09 0.06c-26.63,24 -60.48,36.95 -96.03,36.95z"/>
   <path class="fil52" d="M2176.81 1413.7c-3.07,0 -6.14,-0.12 -9.23,-0.3 -46.1,-2.39 -88.5,-22.63 -119.37,-56.89 -30.88,-34.33 -46.58,-78.56 -44.15,-124.65 4.82,-92.11 81.28,-163.81 172.44,-163.81 3.05,0 6.07,0.12 9.13,0.24 46.1,2.45 88.5,22.63 119.37,56.95 30.9,34.33 46.57,78.56 44.16,124.65 -2.43,46.02 -22.59,88.41 -56.81,119.28l-0.12 0.12c-32.01,28.83 -72.68,44.42 -115.43,44.42zm-0.35 -316.58c-35.57,0 -69.41,12.95 -96.03,36.95l-0.12 0.06c-28.46,25.67 -45.23,60.95 -47.26,99.22 -2.01,38.39 11.05,75.16 36.73,103.7 25.7,28.54 60.97,45.37 99.31,47.4 2.57,0.12 5.15,0.18 7.69,0.18 35.55,0 69.4,-12.95 96.03,-36.95l0.09 -0.06c28.47,-25.73 45.25,-60.95 47.26,-99.22 2,-38.39 -11.05,-75.16 -36.73,-103.7 -25.71,-28.54 -60.98,-45.37 -99.31,-47.4 -2.57,-0.12 -5.12,-0.18 -7.67,-0.18z"/>
   <path class="fil53" d="M2179.57 1683.47c-43.37,0 -87.44,-6.39 -130.99,-19.82 -30.29,-9.37 -59.56,-21.91 -86.98,-37.31l14.23 -25.31c25.63,14.33 52.99,26.09 81.32,34.87 40.7,12.54 81.91,18.56 122.45,18.56 130.75,0 254.58,-62.26 332.72,-166.32 0.21,-0.3 0.4,-0.54 0.58,-0.78 0.19,-0.3 0.38,-0.54 0.59,-0.78 27.38,-36.83 49.07,-78.86 63.38,-125.13 32.74,-106.02 22.26,-218.5 -29.57,-316.7 -16.43,-31.1 -36.38,-59.58 -59.35,-85.01 -49.53,-54.86 -113.07,-95.64 -185.52,-118.02 -40.67,-12.54 -81.86,-18.51 -122.39,-18.51 -177.49,0 -342.26,114.68 -397.31,292.94 -22.24,72 -24.55,148.53 -6.7,221.3l-28.2 6.87c-19.1,-77.85 -16.62,-159.69 7.15,-236.7 58.92,-190.67 235.2,-313.47 425.09,-313.47 43.37,0 87.42,6.39 130.96,19.88 77.5,23.94 145.48,67.52 198.46,126.2 24.57,27.22 45.91,57.73 63.5,90.98 55.44,105.01 66.68,225.36 31.63,338.85 -24.43,79.1 -69.06,146.5 -126.48,198.32 -81.02,73.07 -187.45,115.1 -298.56,115.1z"/>
   <path class="fil54" d="M3167.42 1521.33c-1.33,-0.89 -2.36,-2.21 -2.9,-3.82 -1.33,-3.94 0.8,-8.24 4.74,-9.55 9.61,-3.22 19.46,-6.21 29.25,-8.84 4.01,-1.07 8.14,1.37 9.2,5.37 1.09,4 -1.33,8.12 -5.34,9.19 -9.46,2.51 -19,5.43 -28.33,8.54 -2.31,0.78 -4.74,0.36 -6.63,-0.9z"/>
   <path class="fil55" d="M3652.63 1638.04c-0.4,-0.3 -0.78,-0.59 -1.13,-0.95 -14.43,-14.75 -29.95,-28.66 -46.17,-41.31 -3.26,-2.57 -3.85,-7.28 -1.28,-10.57 2.55,-3.28 7.25,-3.7 10.56,-1.31 16.74,13.07 32.76,27.46 47.66,42.69 2.91,2.98 2.83,7.7 -0.14,10.63 -2.6,2.57 -6.59,2.81 -9.49,0.83zm-192.31 -118.92c-2.67,-1.85 -3.94,-5.31 -2.93,-8.54 1.28,-3.94 5.52,-6.15 9.46,-4.9 20.25,6.51 40.25,14.45 59.48,23.58 3.73,1.79 5.34,6.27 3.54,10.03 -1.77,3.76 -6.27,5.31 -10.03,3.58 -18.6,-8.89 -37.98,-16.54 -57.57,-22.86 -0.71,-0.24 -1.37,-0.54 -1.96,-0.9zm284.96 254.85c-1.11,-0.75 -2.03,-1.81 -2.62,-3.14 -8.45,-18.76 -18.22,-37.16 -29.13,-54.65 -2.17,-3.54 -1.11,-8.17 2.43,-10.37 3.54,-2.21 8.14,-1.11 10.36,2.41 11.24,18.08 21.34,37.06 30.05,56.44 1.7,3.8 0.02,8.24 -3.78,9.94 -2.48,1.11 -5.24,0.78 -7.32,-0.64zm-448.04 -276.7c-1.91,-1.31 -3.19,-3.46 -3.28,-5.91 -0.19,-4.18 3.04,-7.64 7.2,-7.82 11.33,-0.48 22.85,-0.54 34.3,-0.18 9.89,0.24 19.85,0.84 29.65,1.73 4.15,0.36 7.17,4.06 6.8,8.18 -0.38,4.18 -4.04,7.22 -8.17,6.81 -9.49,-0.83 -19.15,-1.43 -28.73,-1.73 -11.07,-0.3 -22.26,-0.24 -33.21,0.24 -1.7,0.06 -3.26,-0.42 -4.56,-1.31zm487.88 436.27c-1.85,-1.25 -3.11,-3.3 -3.28,-5.71 -1.39,-20.58 -4.2,-41.24 -8.33,-61.37 -0.83,-4.06 1.79,-8.05 5.85,-8.87 4.08,-0.83 8.05,1.79 8.9,5.86 4.24,20.79 7.15,42.11 8.59,63.37 0.28,4.13 -2.85,7.74 -6.99,8.01 -1.77,0.11 -3.43,-0.35 -4.74,-1.28zm-17.59 163.59c-2.62,-1.8 -3.92,-5.12 -2.97,-8.33 5.74,-19.74 10.2,-40.1 13.24,-60.5 0.61,-4.11 4.44,-6.94 8.54,-6.32 4.11,0.61 6.94,4.43 6.33,8.54 -3.14,21.08 -7.74,42.09 -13.67,62.49 -1.16,3.99 -5.33,6.3 -9.32,5.12 -0.78,-0.22 -1.51,-0.57 -2.15,-0.99z"/>
   <path class="fil56" d="M3712.85 2217.71c-3.32,-2.27 -4.29,-6.82 -2.1,-10.24 5.31,-8.31 10.39,-16.86 15.13,-25.45 1.98,-3.64 6.56,-4.98 10.2,-2.97 3.83,1.91 4.98,6.58 2.97,10.22 -4.88,8.87 -10.15,17.72 -15.6,26.3 -2.24,3.49 -6.89,4.51 -10.38,2.29l-0.22 -0.14z"/>
   <path class="fil57" d="M3399.57 2427.54c-1.63,-1.09 -2.8,-2.81 -3.19,-4.91 -0.7,-4.08 2.01,-7.97 6.12,-8.71 9.68,-1.7 19.43,-3.76 28.94,-6.09 4.04,-0.99 8.12,1.48 9.11,5.52 0.97,4.04 -1.49,8.09 -5.53,9.09 -9.84,2.41 -19.9,4.54 -29.91,6.3 -2.04,0.35 -3.99,-0.12 -5.55,-1.2z"/>
   <path class="fil58" d="M2857.76 1871.86c-2.43,-1.65 -3.78,-4.65 -3.14,-7.72 4.15,-20.51 9.75,-40.96 16.59,-60.69 1.34,-3.95 5.64,-6.02 9.56,-4.65 3.94,1.34 6.02,5.64 4.65,9.56 -6.64,19.15 -12.04,38.91 -16.07,58.78 -0.83,4.08 -4.8,6.7 -8.85,5.88 -1.02,-0.22 -1.93,-0.62 -2.74,-1.16zm-4.58 161.8c-1.68,-1.16 -2.9,-2.97 -3.21,-5.15 -3,-20.63 -4.65,-41.74 -4.91,-62.7 -0.05,-4.15 3.28,-7.58 7.43,-7.63 4.15,-0.04 7.56,3.28 7.62,7.44 0.24,20.3 1.85,40.74 4.75,60.74 0.59,4.11 -2.26,7.93 -6.37,8.52 -1.94,0.28 -3.8,-0.21 -5.31,-1.23zm50.68 153.67c-0.96,-0.66 -1.79,-1.53 -2.41,-2.64 -9.89,-18.46 -18.67,-37.72 -26.01,-57.27 -1.46,-3.9 0.49,-8.24 4.39,-9.7 3.9,-1.46 8.24,0.49 9.69,4.39 7.13,18.93 15.6,37.58 25.21,55.45 1.96,3.65 0.59,8.24 -3.07,10.2 -2.55,1.37 -5.56,1.11 -7.8,-0.43zm333.81 240.68c-2.33,-1.6 -3.68,-4.51 -3.16,-7.48 0.69,-4.11 4.58,-6.87 8.66,-6.16 19.94,3.4 40.35,5.52 60.64,6.3 4.16,0.12 7.39,3.64 7.22,7.78 -0.16,4.16 -3.66,7.39 -7.81,7.25 -20.94,-0.8 -41.99,-3 -62.57,-6.51 -1.09,-0.19 -2.1,-0.59 -2.98,-1.18zm-233.83 -113.4c-0.29,-0.19 -0.54,-0.4 -0.8,-0.61 -15.56,-14 -30.33,-29.16 -43.91,-45.07 -2.69,-3.17 -2.33,-7.9 0.83,-10.59 3.16,-2.72 7.93,-2.32 10.62,0.82 13.15,15.41 27.46,30.07 42.52,43.65 3.09,2.76 3.35,7.53 0.56,10.63 -2.55,2.83 -6.74,3.28 -9.81,1.18zm81.46 58.82c-3.21,-2.17 -4.25,-6.49 -2.29,-9.93 2.05,-3.61 6.66,-4.87 10.27,-2.81 17.59,10.06 36.02,19 54.81,26.6 3.87,1.59 5.69,5.98 4.13,9.82 -1.56,3.85 -5.95,5.69 -9.8,4.13 -19.4,-7.85 -38.45,-17.11 -56.6,-27.47l-0.52 -0.33z"/>
   <path class="fil59" d="M2917.22 1720.95c-3.31,-2.24 -4.27,-6.7 -2.17,-10.15 5.31,-8.64 10.98,-17.24 16.81,-25.54 2.36,-3.35 6.99,-4.18 10.39,-1.85l0.1 0.06c3.39,2.39 4.2,7.1 1.81,10.5 -5.67,8 -11.14,16.33 -16.29,24.7 -2.17,3.55 -6.8,4.65 -10.34,2.48l-0.31 -0.22z"/>
   <path class="fil60" d="M3344.48 2322.37c-0.12,0 -0.23,0 -0.35,-0.02l-82.01 -5.03c-2.41,-0.14 -4.44,-1.79 -5.07,-4.11l-18.31 -65.95c-31.54,-9.46 -60.78,-23.91 -86.87,-42.42l-63.31 26.18c-0.69,0.28 -1.42,0.43 -2.15,0.43 -1.58,0 -3.12,-0.66 -4.23,-1.91l-54.43 -61.54c-1.58,-1.79 -1.86,-4.41 -0.68,-6.49l33.7 -59.63c-3.04,-5.67 -5.9,-11.43 -8.59,-17.28 -10.69,-23.33 -18.47,-48.21 -22.9,-74.12l-63.22 -26.25c-2.22,-0.92 -3.61,-3.14 -3.46,-5.55l5.02 -82.01c0.15,-2.38 1.79,-4.44 4.11,-5.07l26.01 -7.22 39.94 -11.1c9.46,-31.53 23.93,-60.76 42.42,-86.87l-26.16 -63.31c-0.92,-2.22 -0.33,-4.77 1.46,-6.35l48.85 -43.25 12.7 -11.22c1.06,-0.9 2.38,-1.37 3.73,-1.37 0.94,0 1.91,0.24 2.76,0.72l19.12 10.8 40.54 22.93c20.72,-11.16 42.87,-20 66.04,-26.03 8.33,-2.21 16.79,-4.06 25.35,-5.49l26.22 -63.22c0.88,-2.15 2.93,-3.46 5.19,-3.46 0.12,0 0.24,0 0.35,0l82 5.02c2.41,0.12 4.44,1.79 5.08,4.12l16.21 58.33 2.1 7.64c31.54,9.43 60.78,23.91 86.89,42.42l63.29 -26.19c0.71,-0.3 1.42,-0.42 2.15,-0.42 1.58,0 3.14,0.66 4.22,1.91l54.43 61.54c1.58,1.79 1.87,4.39 0.69,6.49l-33.71 59.63c8.95,16.59 16.36,34.11 22.07,52.36 3.99,12.68 7.15,25.73 9.41,39.04l63.24 26.22c2.22,0.92 3.62,3.17 3.45,5.55l-5.03 82.01c-0.14,2.41 -1.8,4.44 -4.11,5.1l-65.95 18.32c-2.88,9.56 -6.21,18.91 -9.96,28.02 -8.64,20.93 -19.57,40.65 -32.46,58.85l26.18 63.28c0.92,2.22 0.31,4.8 -1.49,6.38l-61.54 54.43c-1.07,0.94 -2.39,1.41 -3.73,1.41 -0.94,0 -1.91,-0.23 -2.76,-0.73l-59.63 -33.71c-28.16,15.18 -58.97,25.97 -91.4,31.49l-26.25 63.24c-0.87,2.1 -2.93,3.47 -5.19,3.47zm-219.77 -418.22c-0.44,1.63 -0.89,3.26 -1.3,4.91 -3.26,12.72 -5.31,25.85 -6.12,39.09 -4.67,76.37 32.36,145.84 91.43,186.11 30.12,20.54 65.98,33.47 104.9,35.85 4.39,0.28 8.76,0.4 13.1,0.4 51.15,0 99.92,-18.41 138.57,-52.59 13.29,-11.76 24.87,-24.93 34.6,-39.2 20.99,-30.79 33.38,-66.78 35.72,-104.93 3.43,-55.87 -15.1,-109.74 -52.19,-151.66 -37.09,-41.93 -88.29,-66.91 -144.14,-70.33 -4.31,-0.26 -8.61,-0.4 -12.91,-0.4 -33.53,0 -66.59,8.02 -96.32,23.46l10.39 20.04c26.54,-13.79 56,-20.91 85.93,-20.91 3.82,0 7.66,0.12 11.52,0.35 49.85,3.04 95.53,25.33 128.63,62.75 33.07,37.41 49.62,85.45 46.57,135.31 -2.1,34.06 -13.15,66.16 -31.89,93.64 -8.69,12.75 -19,24.51 -30.85,34.98 -34.49,30.5 -78,46.93 -123.62,46.93 -3.9,0 -7.79,-0.12 -11.71,-0.35 -3.06,-0.19 -6.13,-0.45 -9.16,-0.78 -1.11,-0.14 -2.22,-0.26 -3.33,-0.4 -0.45,-0.07 -0.87,-0.12 -1.32,-0.19 -0.52,-0.06 -1.06,-0.13 -1.58,-0.21 -16.62,-2.41 -32.46,-6.96 -47.31,-13.38 -57.3,-24.76 -99.24,-77.26 -110.1,-139.54l-0.02 -0.21 -0.02 -0.12c-2.41,-13.98 -3.26,-28.46 -2.36,-43.25 0.83,-13.33 3.05,-26.53 6.61,-39.26l-21.72 -6.11zm200.54 -28.65c-5.17,0 -10.39,0.47 -15.63,1.46 -22.12,4.16 -41.29,16.69 -53.98,35.27 -12.68,18.58 -17.37,41 -13.22,63.12 4.15,22.09 16.69,41.29 35.27,53.96l0.07 0.05c14.13,9.65 30.49,14.66 47.26,14.66 5.24,0 10.53,-0.5 15.76,-1.46 22.12,-4.18 41.29,-16.69 53.99,-35.3 12.7,-18.55 17.4,-40.98 13.22,-63.09 -7.6,-40.41 -43.05,-68.67 -82.73,-68.67zm-0.17 145.96c-12.28,0 -24.27,-3.69 -34.63,-10.75l-0.05 -0.02c-13.59,-9.3 -22.76,-23.33 -25.83,-39.52 -3.04,-16.19 0.4,-32.6 9.71,-46.22 9.28,-13.6 23.31,-22.76 39.51,-25.8 3.82,-0.74 7.65,-1.09 11.43,-1.09 12.63,0 24.67,3.92 34.7,10.76 13.08,8.9 22.76,22.78 25.9,39.52 3.05,16.19 -0.4,32.59 -9.7,46.19 -9.28,13.62 -23.32,22.78 -39.51,25.83 -3.85,0.73 -7.7,1.09 -11.52,1.09z"/>
   <path class="fil61" d="M3325.01 2044.02c-16.76,0 -33.12,-5.01 -47.26,-14.66l-0.07 -0.05c-18.57,-12.67 -31.11,-31.87 -35.27,-53.96 -4.15,-22.12 0.54,-44.54 13.22,-63.12 12.7,-18.58 31.87,-31.11 53.98,-35.27 5.24,-0.99 10.46,-1.46 15.63,-1.46 39.68,0 75.13,28.26 82.73,68.67 4.18,22.12 -0.52,44.54 -13.22,63.09 -12.7,18.6 -31.87,31.11 -53.99,35.3 -5.23,0.96 -10.52,1.46 -15.76,1.46zm0.21 -145.95c-3.78,0 -7.6,0.35 -11.43,1.09 -16.2,3.04 -30.24,12.2 -39.51,25.8 -9.31,13.62 -12.75,30.03 -9.71,46.22 3.07,16.19 12.23,30.22 25.83,39.52l0.05 0.02c10.36,7.06 22.35,10.75 34.63,10.75 3.83,0 7.67,-0.36 11.52,-1.09 16.19,-3.05 30.24,-12.2 39.51,-25.83 9.3,-13.6 12.75,-30 9.7,-46.19 -3.14,-16.74 -12.81,-30.62 -25.9,-39.52 -10.03,-6.84 -22.07,-10.76 -34.7,-10.76z"/>
   <path class="fil62" d="M3326.73 2170.52c-4.35,0 -8.71,-0.12 -13.1,-0.4 -38.93,-2.38 -74.78,-15.32 -104.9,-35.85 -59.07,-40.27 -96.1,-109.74 -91.43,-186.11 0.81,-13.24 2.86,-26.37 6.12,-39.09 0.4,-1.65 0.85,-3.28 1.3,-4.91l21.72 6.11c-3.56,12.73 -5.78,25.92 -6.61,39.26 -0.9,14.78 -0.05,29.27 2.36,43.25l0.02 0.12 0.02 0.21c10.86,62.28 52.8,114.78 110.1,139.54 14.85,6.42 30.69,10.98 47.31,13.38 0.52,0.07 1.06,0.15 1.58,0.21 0.45,0.07 0.87,0.12 1.32,0.19 1.11,0.14 2.22,0.26 3.33,0.4 3.03,0.33 6.09,0.59 9.16,0.78 3.92,0.23 7.81,0.35 11.71,0.35 45.63,0 89.13,-16.43 123.62,-46.93 11.85,-10.48 22.17,-22.24 30.85,-34.98 18.74,-27.48 29.79,-59.58 31.89,-93.64 3.04,-49.85 -13.5,-97.89 -46.57,-135.31 -33.09,-37.42 -78.77,-59.7 -128.63,-62.75 -3.85,-0.23 -7.7,-0.35 -11.52,-0.35 -29.93,0 -59.39,7.13 -85.93,20.91l-10.39 -20.04c29.72,-15.44 62.79,-23.46 96.32,-23.46 4.29,0 8.59,0.14 12.91,0.4 55.85,3.42 107.06,28.4 144.14,70.33 37.08,41.92 55.61,95.79 52.19,151.66 -2.33,38.15 -14.72,74.15 -35.72,104.93 -9.72,14.28 -21.31,27.45 -34.6,39.2 -38.65,34.18 -87.42,52.59 -138.57,52.59z"/>
   <path class="fil2" d="M4373.78 844.59c-2.01,-1.26 -3.4,-3.4 -3.52,-5.91 -0.45,-9.73 -1.13,-19.52 -1.98,-29.02 -0.35,-4.06 2.62,-7.64 6.66,-8 4.06,-0.36 7.62,2.63 7.98,6.69 0.9,9.67 1.56,19.64 2.04,29.61 0.19,4.06 -2.93,7.52 -6.99,7.7 -1.54,0.06 -2.97,-0.36 -4.18,-1.07z"/>
   <path class="fil2" d="M4363.46 1001.48c-2.5,-1.49 -3.94,-4.48 -3.39,-7.52 3.49,-19.46 6.19,-39.28 8,-58.86 0.39,-4.06 3.97,-7.05 8.01,-6.63 4.06,0.36 7.01,3.94 6.63,8 -1.84,20 -4.6,40.18 -8.17,60.06 -0.71,4 -4.53,6.69 -8.52,5.97 -0.92,-0.18 -1.79,-0.54 -2.55,-1.02zm-44.76 150.8c-3.04,-1.85 -4.34,-5.73 -2.92,-9.13 7.67,-18.09 14.63,-36.83 20.77,-55.64 1.25,-3.88 5.41,-5.97 9.25,-4.72 3.85,1.31 5.98,5.43 4.72,9.26 -6.26,19.22 -13.39,38.33 -21.19,56.83 -1.58,3.76 -5.88,5.49 -9.64,3.94 -0.33,-0.18 -0.66,-0.36 -0.99,-0.54zm-77.02 137.06l-0.47 -0.3c-3.28,-2.39 -4.04,-6.93 -1.65,-10.27 10.17,-14.09 19.94,-28.78 29.03,-43.64 1.2,-1.97 2.41,-3.94 3.59,-5.97 2.07,-3.46 6.61,-4.6 10.07,-2.51l0.07 0.06c3.42,2.09 4.56,6.57 2.48,10.03 -1.23,2.03 -2.45,4.06 -3.69,6.09 -9.28,15.17 -19.24,30.15 -29.65,44.59 -2.27,3.11 -6.54,3.94 -9.8,1.91zm-105.76 116.47c-0.61,-0.42 -1.2,-0.89 -1.7,-1.49 -2.66,-3.04 -2.38,-7.64 0.66,-10.33 14.82,-13.02 29.25,-26.87 42.92,-41.07 2.81,-2.93 7.43,-3.04 10.38,-0.24 2.93,2.8 3.03,7.46 0.22,10.39 -13.93,14.57 -28.66,28.66 -43.79,41.97 -2.48,2.15 -6.02,2.39 -8.69,0.78zm-128.96 89.96c-1.06,-0.66 -1.96,-1.55 -2.61,-2.74 -1.94,-3.58 -0.62,-8 2.95,-9.97 17.35,-9.43 34.49,-19.7 50.92,-30.57 3.4,-2.21 7.95,-1.31 10.17,2.09 2.24,3.41 1.32,7.94 -2.08,10.21 -16.78,11.05 -34.27,21.55 -51.98,31.17 -2.41,1.31 -5.19,1.13 -7.37,-0.18zm-145.62 59.28c-1.51,-0.89 -2.71,-2.39 -3.23,-4.24 -1.11,-3.94 1.18,-8 5.07,-9.07 18.96,-5.37 37.94,-11.58 56.42,-18.57 3.8,-1.43 8.02,0.54 9.46,4.3 1.42,3.82 -0.49,8.06 -4.29,9.49 -18.86,7.1 -38.24,13.43 -57.6,18.93 -2.06,0.59 -4.15,0.24 -5.83,-0.84zm-155.11 25.43c-2.01,-1.19 -3.38,-3.4 -3.49,-5.91 -0.22,-4 2.9,-7.46 6.96,-7.7 19.67,-0.96 39.54,-2.81 59.11,-5.49 4.02,-0.54 7.72,2.27 8.28,6.27 0.54,4.06 -2.26,7.76 -6.3,8.3 -19.97,2.75 -40.3,4.66 -60.36,5.61 -1.54,0.06 -2.97,-0.3 -4.2,-1.07zm-156.91 -9.85c-2.5,-1.55 -3.94,-4.48 -3.39,-7.58 0.71,-4 4.53,-6.63 8.52,-5.91 19.45,3.4 39.25,6.03 58.84,7.82 4.04,0.35 7.04,3.94 6.66,8 -0.35,4 -3.94,6.98 -7.98,6.63 -19.99,-1.79 -40.22,-4.48 -60.07,-8 -0.94,-0.18 -1.8,-0.48 -2.58,-0.96zm-150.89 -44.35c-3.04,-1.85 -4.36,-5.73 -2.95,-9.07 1.58,-3.76 5.88,-5.55 9.63,-3.94 18.17,7.58 36.92,14.51 55.7,20.59 3.9,1.2 5.98,5.37 4.75,9.26 -1.25,3.88 -5.4,5.97 -9.26,4.72 -19.19,-6.15 -38.31,-13.26 -56.89,-21.02 -0.33,-0.18 -0.68,-0.36 -0.99,-0.54zm-94.74 -48.48c-14.64,-8.89 -29.11,-18.51 -42.99,-28.48 -3.31,-2.39 -4.06,-6.98 -1.7,-10.27 2.37,-3.28 6.92,-4.12 10.27,-1.67 15.98,11.46 32.72,22.33 49.69,32.47l0.1 0.06c3.42,2.09 4.53,6.57 2.48,10.03 -2.08,3.46 -6.59,4.6 -10.08,2.57 -2.6,-1.55 -5.19,-3.11 -7.76,-4.72z"/>
   <path class="fil2" d="M3185.83 1387.19c-0.45,-0.3 -0.87,-0.59 -1.25,-0.95 -7.22,-6.93 -14.3,-13.97 -21.03,-20.96 -2.83,-2.93 -2.74,-7.58 0.19,-10.39 2.93,-2.81 7.57,-2.69 10.39,0.18 6.61,6.87 13.55,13.73 20.61,20.48 2.95,2.81 3.04,7.46 0.23,10.45 -2.43,2.57 -6.25,2.93 -9.13,1.19z"/>
   <path class="fil2" d="M2967.59 881.13c-2.1,-1.31 -3.49,-3.64 -3.52,-6.27 -0.02,-9.79 0.14,-19.82 0.52,-29.67 0.14,-4.06 3.56,-7.22 7.62,-7.11 4.06,0.18 7.22,3.58 7.06,7.64 -0.35,9.67 -0.54,19.46 -0.5,29.07 0.02,4.06 -3.26,7.34 -7.32,7.4 -1.42,0 -2.74,-0.42 -3.87,-1.07z"/>
   <path class="fil2" d="M4108.27 326.77c-0.26,-0.18 -0.52,-0.35 -0.76,-0.54 -15.2,-12.06 -31.09,-23.64 -47.23,-34.39 -3.4,-2.21 -4.32,-6.81 -2.08,-10.15 2.26,-3.4 6.8,-4.42 10.2,-2.09 16.5,10.99 32.72,22.81 48.25,35.11 3.19,2.57 3.73,7.16 1.2,10.33 -2.34,2.98 -6.46,3.64 -9.58,1.73zm-185.35 -105.6c-2.95,-1.79 -4.29,-5.56 -3.02,-8.9 1.46,-3.76 5.71,-5.67 9.49,-4.24 18.57,7.1 37.01,15.04 54.79,23.64 3.66,1.79 5.2,6.15 3.44,9.79 -1.77,3.7 -6.16,5.19 -9.82,3.46 -17.42,-8.42 -35.48,-16.18 -53.66,-23.17 -0.42,-0.18 -0.85,-0.36 -1.23,-0.59zm-149.68 -39.17c-2.43,-1.49 -3.87,-4.35 -3.42,-7.34 0.59,-4.06 4.31,-6.8 8.33,-6.21 19.54,2.87 39.25,6.63 58.59,11.17 3.99,0.89 6.42,4.89 5.5,8.83 -0.94,3.94 -4.89,6.45 -8.85,5.49 -18.93,-4.42 -38.24,-8.12 -57.38,-10.98 -1.02,-0.12 -1.94,-0.48 -2.76,-0.96zm-154.59 -5.67c-1.93,-1.19 -3.31,-3.22 -3.49,-5.67 -0.3,-4.06 2.74,-7.58 6.78,-7.88 19.78,-1.49 39.84,-2.15 59.65,-1.97 4.04,0.06 7.3,3.4 7.27,7.46 -0.05,4.06 -3.38,7.28 -7.44,7.22 -19.38,-0.18 -39.02,0.48 -58.38,1.91 -1.6,0.12 -3.11,-0.3 -4.39,-1.07zm-152 28.54c-1.49,-0.89 -2.67,-2.33 -3.21,-4.12 -1.18,-3.88 1.02,-8 4.91,-9.19 18.95,-5.79 38.38,-10.81 57.72,-14.98 3.96,-0.84 7.88,1.67 8.73,5.67 0.85,3.94 -1.68,7.88 -5.64,8.72 -18.93,4.06 -37.96,9.02 -56.53,14.69 -2.1,0.6 -4.25,0.24 -5.98,-0.78zm-142.15 61.07c-1.04,-0.66 -1.93,-1.55 -2.55,-2.69 -2,-3.52 -0.78,-8 2.77,-9.97 17.23,-9.79 35.09,-18.92 53.09,-27.22 3.69,-1.73 8.05,-0.12 9.75,3.58 1.7,3.7 0.1,8.06 -3.59,9.73 -17.63,8.12 -35.13,17.13 -52.01,26.69 -2.41,1.37 -5.26,1.2 -7.46,-0.12zm-125.48 90.5c-0.59,-0.36 -1.13,-0.78 -1.61,-1.31 -2.74,-3.04 -2.5,-7.7 0.52,-10.39 14.68,-13.31 30.12,-26.09 45.91,-38.15 3.2,-2.44 7.83,-1.85 10.29,1.43 2.45,3.22 1.84,7.82 -1.4,10.27 -15.44,11.76 -30.56,24.36 -44.96,37.31 -2.46,2.27 -6.04,2.51 -8.76,0.84zm-102.67 115.75l-0.42 -0.24c-3.31,-2.33 -4.11,-6.93 -1.78,-10.27 11.43,-16.18 23.7,-32.06 36.45,-47.22 2.62,-3.1 7.25,-3.52 10.36,-0.89 3.11,2.63 3.52,7.28 0.89,10.39 -12.5,14.87 -24.5,30.39 -35.69,46.21 -2.24,3.22 -6.56,4.06 -9.82,2.03zm-74.71 135.57c-3.04,-1.85 -4.34,-5.73 -2.95,-9.07 7.6,-18.33 16.06,-36.54 25.14,-54.15 1.86,-3.58 6.3,-5.01 9.91,-3.17 3.65,1.91 5,6.33 3.14,9.91 -8.9,17.25 -17.17,35.04 -24.63,53.01 -1.54,3.76 -5.85,5.55 -9.61,4 -0.35,-0.18 -0.69,-0.36 -1.02,-0.54zm-43.31 148.59c-2.5,-1.56 -3.94,-4.54 -3.4,-7.58 3.42,-19.46 7.74,-39.04 12.82,-58.27 1.04,-3.94 5.05,-6.27 8.96,-5.25 3.93,1.07 6.28,5.07 5.24,9.02 -4.96,18.8 -9.18,38.03 -12.56,57.07 -0.71,4 -4.52,6.69 -8.53,5.97 -0.92,-0.18 -1.8,-0.54 -2.55,-0.95z"/>
   <path class="fil2" d="M4199.22 413.33c-0.61,-0.36 -1.19,-0.83 -1.67,-1.43 -6.42,-7.28 -13.03,-14.5 -19.64,-21.43 -2.81,-2.93 -2.69,-7.58 0.23,-10.39 2.93,-2.8 7.58,-2.69 10.39,0.24 6.75,7.04 13.5,14.45 20.06,21.91 2.67,3.04 2.36,7.7 -0.69,10.39 -2.48,2.15 -6,2.39 -8.69,0.72z"/>
   <path class="fil27" d="M4122.33 568.79c-1.67,-3.17 -5.19,-4.96 -8.76,-4.42l-101.48 16c-31.58,-36.12 -69.14,-67.46 -111.81,-92.35l-3.57 -102.56c-0.12,-3.64 -2.53,-6.74 -5.97,-7.82l-117.81 -36.06c-3.45,-1.07 -7.2,0.18 -9.3,3.1l-60.43 82.98c-49.26,-3.28 -97.94,1.61 -144.32,13.91l-75.14 -70.09c-2.65,-2.45 -6.54,-2.98 -9.72,-1.31l-108.85 57.85c-3.17,1.67 -4.93,5.2 -4.37,8.72l15.98 101.49c-36.13,31.58 -67.48,69.19 -92.32,111.81l-102.61 3.58c-3.61,0.12 -6.73,2.51 -7.79,5.97l-36.09 117.84c-1.04,3.46 0.19,7.17 3.11,9.31l83 60.41c-3.3,49.25 1.63,97.91 13.88,144.29l-70.08 75.16c-2.46,2.63 -2.98,6.57 -1.28,9.73l57.78 108.83c1.7,3.16 5.22,4.95 8.78,4.35l101.48 -15.94c31.59,36.12 69.14,67.46 111.8,92.29l3.58 102.62c0.12,3.58 2.53,6.75 5.98,7.76l117.81 36.12c3.45,1.07 7.18,-0.18 9.3,-3.1l60.43 -83.04c49.26,3.35 97.94,-1.61 144.33,-13.85l75.14 70.08c2.64,2.45 6.54,2.98 9.72,1.26l108.82 -57.79c3.19,-1.67 4.95,-5.2 4.39,-8.78l-15.98 -101.49c36.14,-31.58 67.49,-69.13 92.32,-111.81l102.61 -3.52c3.61,-0.18 6.73,-2.57 7.79,-5.97l36.1 -117.84c1.03,-3.46 -0.22,-7.17 -3.12,-9.31l-83 -60.41c3.3,-49.25 -1.63,-97.96 -13.88,-144.35l70.09 -75.1c2.45,-2.63 2.95,-6.57 1.27,-9.73l-57.81 -108.83z"/>
   <path class="fil2" d="M3678.83 767.7l0.05 0 -0.05 0zm45.8 25.25c-13.85,-8.48 -29.67,-13.43 -46.35,-14.27 -26.26,-1.31 -51.44,7.7 -70.92,25.31 -19.5,17.67 -30.95,41.79 -32.27,68.06 -1.3,26.27 7.67,51.46 25.31,70.92 17.63,19.52 41.8,30.98 68.06,32.3 26.24,1.31 51.44,-7.7 70.93,-25.31 19.5,-17.67 30.95,-41.85 32.27,-68.06 1.3,-26.27 -7.69,-51.46 -25.33,-70.98 -6.42,-7.11 -13.74,-13.13 -21.69,-17.97zm-114.01 186.91c-9.75,-5.97 -18.67,-13.37 -26.56,-22.09 -21.6,-23.88 -32.6,-54.69 -31,-86.8 1.61,-32.18 15.63,-61.73 39.5,-83.34 23.86,-21.55 54.69,-32.59 86.82,-30.98 32.13,1.61 61.73,15.64 83.3,39.52 21.61,23.82 32.6,54.69 30.97,86.8 -1.58,32.12 -15.6,61.73 -39.47,83.28 -23.87,21.61 -54.69,32.59 -86.82,30.98 -20.42,-1.01 -39.78,-7.04 -56.75,-17.37z"/>
   <path class="fil2" d="M3510.26 1141.53c-117.18,-71.7 -176,-216.22 -133.96,-353.47 7.74,-25.31 18.49,-48.89 31.7,-70.56 71.67,-117.19 216.2,-175.99 353.47,-133.96 2.45,0.72 4.93,1.55 7.36,2.33 16.52,5.55 32.5,12.42 47.73,20.54 1.78,0.9 3.54,1.91 5.29,2.87l-10.74 19.22c-17.65,-9.85 -36.54,-17.91 -56.11,-23.88l-0.54 -0.18c-150.82,-45.85 -310.91,39.34 -357.08,190.08 -46.25,150.98 38.94,311.39 189.93,357.65 127.44,39.04 261.65,-15.58 328.17,-124.41 12.3,-20.06 22.26,-41.97 29.46,-65.49 15.2,-49.67 16.69,-102.38 4.27,-152.47l21.39 -5.31c13.39,53.97 11.8,110.8 -4.58,164.23 -7.74,25.31 -18.48,48.95 -31.73,70.57 -71.65,117.19 -216.18,176.05 -353.45,133.96 -25.33,-7.76 -48.95,-18.51 -70.58,-31.7z"/>
   <path class="fil63" d="M1916.37 2311.19l-68.91 67.94c-97.82,-9.39 -173.22,-39.82 -231.12,-78.44 34.84,-86.66 70.25,-138.04 98.04,-168.17 91.09,128.08 201.99,178.67 201.99,178.67z"/>
   <path class="fil64" d="M1436.7 2056.88l162.64 -254.28c10.67,143.43 59.11,251.26 115.04,329.91 -27.79,30.13 -63.2,81.51 -98.04,168.17 -144.49,-96.34 -179.63,-243.8 -179.63,-243.8z"/>
   <path class="fil65" d="M1263.74 4066.6c81.09,3.72 159.58,1.39 211.98,-1.3 -47.73,-33.96 -157.64,-107.85 -249.62,-137.26l-63.14 -3.78c0,0 -21.4,32.55 -29.03,107 10.46,13.06 41.05,31.26 129.81,35.34z"/>
   <path class="fil66" d="M1476.35 4065.77l-0.64 -0.47c-52.4,2.69 -130.89,5.03 -211.98,1.3 -88.76,-4.08 -119.35,-22.29 -129.81,-35.34 -0.35,3.43 -0.72,6.85 -1,10.46 -1.31,16.33 10.81,30.69 27.16,31.91 66.41,5.03 231.06,16.38 310.46,12.23 10.48,-0.54 14.35,-14 5.81,-20.09z"/>
   <path class="fil67" d="M683.8 4044.91c-5.94,-38.05 -15.46,-93.11 -22.82,-107.17 -11.54,-22.07 -51.05,0 -51.05,0 0,0 -27.74,12.94 -40.51,34.51 -8.14,13.74 -30.64,52.83 -45.89,79.39 -1.76,3.04 -2.48,6.3 -2.39,9.44l158.2 5.53c3.87,-6.19 5.69,-13.77 4.46,-21.69z"/>
   <path class="fil68" d="M521.14 4061.07c0.26,9.04 7.42,17.23 17.53,17.52l112.71 3.09c11.91,0.33 22.22,-5.85 27.96,-15.08l-158.2 -5.53z"/>
   <path class="fil69" d="M695.88 3811.23c-1.37,4.55 -21.81,103.65 -30.76,147.16 -2.48,12.01 -13.3,20.46 -25.56,19.85 -6.7,-0.33 -14.49,-0.94 -22.65,-2.01 -14.49,-1.87 -25.53,-13.97 -26.08,-28.56 -1.45,-38.1 -2.17,-111.26 11.83,-139.61 19.3,-39.11 93.23,3.17 93.23,3.17z"/>
   <path class="fil70" d="M1150.54 3839.6c8.76,-0.28 -3.5,45.25 9.77,90.04 2.99,10.1 10.54,18.04 21.07,18.15 6.82,0.09 14.91,-0.05 23.12,-0.68 12.35,-0.99 22.28,-10.58 23.42,-22.93l10.79 -116.12 -88.17 31.54z"/>
   <path class="fil71" d="M1395.79 2605.21c-3.92,19.05 -142.05,824.74 -150.43,1241.66 -0.15,6.99 -5.29,12.84 -12.21,13.81 -17.54,2.44 -51.69,5.59 -84.8,-0.54 -4.54,-0.85 -7.95,-4.59 -8.24,-9.19 -4.83,-77.69 -43.66,-734.58 3.89,-1043.79 0,0 -392.75,826.6 -452.28,1054.53 -1.45,5.53 -6.54,9.28 -12.26,8.97 -16.82,-0.89 -51.81,-3.92 -79.58,-14.14 -9.96,-3.65 -15.63,-14.14 -13.11,-24.43 33.26,-136.42 266.37,-1076.2 424.64,-1283.25l384.38 56.37z"/>
   <path class="fil72" d="M1144 2812.31c-1.3,0 -2.59,-0.5 -3.6,-1.47 -2.03,-1.98 -2.07,-5.26 -0.08,-7.29l52.59 -53.77c1.99,-2.06 5.25,-2.08 7.29,-0.09 2.04,2 2.07,5.26 0.08,7.3l-52.6 53.77c-1,1.05 -2.35,1.57 -3.69,1.57z"/>
   <path class="fil73" d="M1620.3 1596.49c-100.89,-26.45 -286.97,-67.82 -435.13,-58.98 -34.02,2.03 -61.29,28.96 -63.22,62.98 -22.37,394.52 -52.96,744.64 -110.54,948.35 129.44,51.22 257.77,74.97 384.38,56.37 94.85,-203.15 177.78,-437.67 248.61,-704.04 0,0 41.57,-212.45 1.2,-283.26 -6.28,-10.98 -14.57,-18.63 -25.31,-21.43z"/>
   <path class="fil74" d="M1377.63 1320.15c0,0 -25.47,151.93 -33.07,222.26 -1.23,11.4 4.74,22.2 14.96,27.46 27.83,14.33 87.27,37.43 152.04,16.24 10.65,-3.46 17.66,-13.85 17.4,-25.01l-4.44 -202.91 -146.9 -38.03z"/>
   <path class="fil75" d="M1543.77 1151.74c0,0 49.17,112.89 52.45,172.17 3.31,59.28 16.07,97.72 -52.45,109.67 -68.5,11.94 -126.24,-22.21 -157.52,-81.25 0,0 -48.98,-90.98 -38,-128.23 11,-37.25 195.53,-72.35 195.53,-72.35z"/>
   <path class="fil76" d="M1409.67 1309.88l8.66 0c0,0 -35.69,-73.19 -4.31,-86.09 31.35,-12.83 155.58,-38.2 182.37,-82.26 25.85,-42.5 2.81,-97.37 -31.68,-112.77 -2.17,-0.96 -4.74,0.06 -5.85,2.21l-2.85 5.37c-1.96,3.7 -7.44,3.17 -8.59,-0.89 -1.11,-3.82 -6.26,-4.66 -8.36,-1.25 -8.19,13.19 -30.41,34.62 -90.01,45.61 -84.53,15.58 -140.43,49.85 -141.8,108.23 -0.09,3.7 -4.06,5.79 -7.22,3.82 -6.23,-3.76 -16.22,-5.55 -29.57,5.67 -23.21,19.52 -13.71,70.15 37.17,111.81 2.43,1.97 2.41,5.73 -0.21,7.46 -9.22,5.97 -22.97,20.3 12.66,39.34 36.47,19.46 58.04,17.37 66.16,15.28 2.2,-0.6 3.69,-2.57 3.55,-4.83l-3.21 -51.76c-0.17,-2.69 1.96,-4.95 4.65,-4.95l18.46 0z"/>
   <path class="fil77" d="M1411.79 1320.69c0,0 -18.74,-72.11 -51.08,-51.88 -32.34,20.24 16.79,80.83 42.78,83.52l8.31 -31.64z"/>
   <path class="fil78" d="M391.12 2585.32c85.76,-21.67 165.73,2.05 178.6,53.02 12.89,50.96 -46.2,109.84 -131.96,131.53 -85.76,21.67 -165.73,-2.07 -178.61,-53.02 -12.88,-50.96 46.2,-109.86 131.97,-131.53zm-28.59 -91.14l-66.38 16.78c-113.91,28.8 -190.52,114.39 -171.1,191.21l23.08 91.31c19.41,76.81 127.5,115.74 241.41,86.94l66.38 -16.78c4.39,-1.11 8.76,-2.31 13.11,-3.61l1946.53 -582.43 -50.28 -198.93 -1989.49 412.46c-4.44,0.92 -8.86,1.94 -13.26,3.05z"/>
   <path class="fil79" d="M3012.47 1808.36l-385.18 97.35c-27.43,6.94 -50.09,26.2 -61.33,52.17l-57.65 133.07c-16.43,37.98 -5.24,82.26 27.29,107.87l113.93 89.68c22.24,17.52 51.32,23.7 78.74,16.76l385.18 -97.35c58.11,-14.69 107.47,45.94 80.04,99.21 -65.62,127.48 -186.03,228.3 -339.28,267.03 -277.01,70.02 -522.16,-97.8 -589.5,-364.26 -67.35,-266.44 68.6,-530.6 345.61,-600.63 153.24,-38.69 307.11,-7.22 425.42,73.72 49.45,33.87 34.81,110.69 -23.28,125.37z"/>
   <path class="fil80" d="M3021.65 1844.67l-385.2 97.35c-27.43,6.94 -50.07,26.2 -61.3,52.17l-57.65 133.07c-16.45,37.98 -5.24,82.26 27.27,107.88l113.94 89.68c22.21,17.49 51.32,23.7 78.75,16.76l385.17 -97.37c58.09,-14.68 107.45,45.96 80.02,99.23 -65.62,127.48 -186.01,228.29 -339.28,267.03 -276.99,70.01 -522.13,-97.82 -589.48,-364.26 -67.35,-266.44 68.6,-530.59 345.61,-600.57 153.25,-38.74 307.12,-7.28 425.41,73.7 49.45,33.85 34.84,110.66 -23.25,125.35z"/>
   <path class="fil81" d="M398.44 2614.28c85.76,-21.7 165.73,2.05 178.6,53.02 12.89,50.94 -46.2,109.84 -131.96,131.51 -85.76,21.69 -165.73,-2.06 -178.61,-53.02 -12.88,-50.96 46.2,-109.84 131.97,-131.51zm-28.59 -91.14l-66.38 16.78c-113.91,28.8 -190.52,114.39 -171.1,191.21l23.08 91.31c19.41,76.81 127.5,115.71 241.41,86.94l66.38 -16.78c4.39,-1.11 8.77,-2.31 13.11,-3.61l1946.53 -582.43 -50.28 -198.95 -1989.49 412.49c-4.44,0.92 -8.86,1.93 -13.26,3.04z"/>
   <path class="fil82" d="M860.89 2121.96c-49.89,139.98 -21.8,290.05 -21.8,290.05l-65.76 17.53c0,0 -84.96,-101.05 -65.53,-325.26 60.71,-9.28 117.56,4.95 153.08,17.68z"/>
   <path class="fil83" d="M707.81 2104.28c2.18,-25.21 5.63,-51.91 10.72,-80.28 44.43,-247.29 361.47,-437.54 436.07,-479.15 6.94,-3.88 15.38,1.31 15.13,9.25l-10.59 336.19c-176.57,23.72 -260.14,124.76 -298.25,231.67 -35.52,-12.72 -92.37,-26.96 -153.08,-17.68z"/>
   <path class="fil84" d="M2055.09 2434.5c12.32,-3.41 22.33,-12.16 27.55,-23.85 10.1,-22.61 21.45,-58.85 -2.81,-69.89 -36.19,-16.43 -101.95,50.96 -101.95,50.96l-32.13 52.07 -29.38 14.3c26.93,7.41 78.84,-4.93 138.73,-23.6z"/>
   <path class="fil85" d="M834.71 2379.12l81.31 0c0,0 -65.96,39.57 -68.15,81.16 -2.19,41.61 26.19,127.78 39.46,151.24 14.51,25.63 -184.11,-38.22 -113.98,-232.4l61.37 0z"/>
   <path class="fil86" d="M4850.24 6364.11l0 69.71c0,17.82 -9.19,32.57 -21.29,34.18l-1087.26 98.53c-8.07,1.11 -16.17,0.92 -24.2,-0.47 -2.07,-0.4 -4.18,-0.85 -6.28,-1.37l-757.55 -142.78c-8.06,-2.08 -13.98,-12.63 -13.98,-24.86l0 -73.63 803.78 -99.64 103.46 -48.96 102.87 14.83 60.76 -11.64 138.85 40.39 700.83 145.72z"/>
   <path class="fil87" d="M4850.24 6364.11l0 69.71c0,17.82 -9.19,32.57 -21.29,34.18l-1087.21 98.53c-8.07,1.11 -18.13,0.85 -24.15,-0.5l0 -375.4 129.38 -15.82 102.85 14.83 60.74 -11.64 138.85 40.39 700.83 145.72z"/>
   <path class="fil88" d="M4010.56 6178l-1070.87 142.13 772.4 145.48c9.51,2.43 19.17,3 28.73,1.7l1109.42 -103.2 -839.68 -186.11z"/>
   <path class="fil89" d="M3755.68 4791.84l-1389.45 0c-23.1,-0.02 -41.83,-18.76 -41.85,-41.86l0 -468.72c0.02,-23.1 18.75,-41.83 41.85,-41.85l1389.45 0c23.1,0.02 41.83,18.76 41.85,41.85l0 468.73c-0.02,23.09 -18.76,41.83 -41.86,41.85l0 0z"/>
   <rect class="fil90" x="2542" y="4364.96" width="368.29" height="41.85"/>
   <circle class="fil90" cx="3395.76" cy="4390.07" r="25.11"/>
   <circle class="fil90" cx="3479.46" cy="4390.07" r="25.11"/>
   <circle class="fil90" cx="3563.16" cy="4390.07" r="25.11"/>
   <path class="fil89" d="M3755.68 5386.13l-1389.45 0c-23.1,-0.02 -41.83,-18.76 -41.85,-41.86l0 -468.72c0.02,-23.1 18.75,-41.83 41.85,-41.85l1389.45 0c23.1,0.02 41.83,18.75 41.85,41.85l0 468.73c-0.02,23.09 -18.75,41.83 -41.85,41.85l0 0z"/>
   <rect class="fil90" x="2542" y="4959.24" width="368.29" height="41.85"/>
   <circle class="fil90" cx="3395.76" cy="4984.36" r="25.11"/>
   <circle class="fil90" cx="3479.46" cy="4984.36" r="25.11"/>
   <circle class="fil90" cx="3563.16" cy="4984.36" r="25.11"/>
   <path class="fil89" d="M3755.68 5980.41l-1389.45 0c-23.1,-0.02 -41.83,-18.76 -41.85,-41.86l0 -468.73c0.02,-23.1 18.75,-41.83 41.85,-41.85l1389.45 0c23.1,0.02 41.83,18.75 41.85,41.85l0 468.73c-0.02,23.09 -18.75,41.83 -41.85,41.85l0 0z"/>
   <rect class="fil90" x="2542" y="5553.53" width="368.29" height="41.85"/>
   <circle class="fil90" cx="3395.76" cy="5578.64" r="25.11"/>
   <circle class="fil90" cx="3479.46" cy="5578.64" r="25.11"/>
   <circle class="fil90" cx="3563.16" cy="5578.64" r="25.11"/>
   <path class="fil91" d="M3231.87 3781.7l-1.54 -1.14 -0.04 -0.03c-3.24,-2.41 -7.17,-3.7 -11.21,-3.7 -5.94,0 -11.55,2.81 -15.09,7.59l-312.75 421.09 -34.41 0 0 -8.09c0,-4.15 -3.37,-7.52 -7.52,-7.52l-20.53 0c-4.15,0 -7.52,3.37 -7.52,7.52l0 8.09 -11.88 0 0 -8.09c-0,-4.15 -3.37,-7.52 -7.52,-7.52l-20.52 0c-4.15,0 -7.52,3.37 -7.52,7.52l0 8.09 -11.84 0 0 -8.09c0,-4.15 -3.37,-7.52 -7.52,-7.52l-20.53 0c-4.15,0 -7.52,3.37 -7.52,7.52l0 8.09 -11.88 0 0 -8.09c0,-4.15 -3.37,-7.52 -7.52,-7.52l-20.53 0c-4.15,0 -7.52,3.37 -7.52,7.52l0 8.09 -11.85 0 0 -8.09c0,-4.15 -3.37,-7.52 -7.52,-7.52l-20.53 0c0,0 0,0 0,0 -4.15,0 -7.52,3.37 -7.52,7.52 0,0 0,0 0,0l0 8.08 -11.88 0 0 -8.09c0,-4.15 -3.37,-7.52 -7.52,-7.52l-20.53 0c-4.15,0 -7.52,3.37 -7.52,7.52l0 8.09 -11.88 0 0 -8.09c0,-4.15 -3.37,-7.52 -7.52,-7.52l-20.53 0c-4.15,0 -7.52,3.37 -7.52,7.52l0 8.09 -11.84 0 0 -8.09c0,-4.15 -3.37,-7.52 -7.52,-7.52l-20.53 0c-4.15,0 -7.52,3.37 -7.52,7.52l0 8.09 -11.88 0 0 -8.09c0,-4.15 -3.37,-7.52 -7.52,-7.52l-20.53 0c-4.15,0 -7.52,3.37 -7.52,7.52l0 8.09 -11.85 0 0 -8.09c0,-4.15 -3.37,-7.52 -7.52,-7.52l-20.53 0c-4.15,0 -7.52,3.37 -7.52,7.52l0 8.09 -14.89 0c0,0 0,0 0,0 -10.38,0 -18.8,8.42 -18.8,18.8 0,0 0,0 0,0l-0 17.93c0,0 0,0 0,0 0,10.38 8.42,18.8 18.8,18.8 0,0 0,0 0,0l508.64 0c13.28,0 24.73,-9.33 27.43,-22.33l0.19 0.15 319.98 -430.82 0.03 -0.04c2.41,-3.24 3.71,-7.17 3.71,-11.21 0,-5.94 -2.82,-11.55 -7.59,-15.09l0 0z"/>
   <polygon class="fil92" points="1255.33,5820.73 1318.52,5853.07 1473.28,5624.76 1380.04,5577.04 "/>
   <path class="fil93" d="M1249.78 5791.86l124.42 63.67 0.01 0c29.76,15.23 48.49,45.86 48.49,79.29 0,14.11 -3.36,28.03 -9.78,40.57l-1.32 2.57 -203.72 -104.25 41.89 -81.86z"/>
   <polygon class="fil92" points="1985.02,5909.19 2056,5909.19 2089.76,5635.44 1985.02,5635.44 "/>
   <path class="fil93" d="M1966.92 5886.02l139.77 -0 0 0c49.19,-0 89.07,39.87 89.07,89.06l0 2.89 -228.84 0.01 -0 -91.96z"/>
   <path class="fil93" d="M1653.04 3676.28c0,0 -47.53,-36.41 -47.53,52.53l-7.5 293.91 83.8 277.65 48.78 -90.05 -20.01 -195.11 -57.53 -338.94z"/>
   <path class="fil93" d="M2161.44 4480.18c0,0 55.11,268.39 -14.69,488.65l-38.58 846.88 -141.45 -11.02 -49.6 -628.27 -47.76 -312.3 -99.2 284.74 -327 602.56 -150.64 -117.57c0,0 166.93,-455.48 290.26,-551.11l61.85 -704.45 516.82 101.89z"/>
   <circle class="fil92" transform="matrix(0.242054 -0.442796 0.442796 0.242054 1993.77 3156.15)" r="319.61"/>
   <path class="fil93" d="M1982.35 3190.36c19.33,2.52 33.92,-17.27 40.69,-35.56 6.76,-18.28 11.92,-39.57 28.73,-49.45 22.96,-13.5 52.35,2.74 78.61,-1.72 29.66,-5.03 48.94,-36.46 50.46,-66.5 1.51,-30.04 -10.44,-58.94 -22.18,-86.64l-4.09 34.43c0.05,-1.06 0.07,-2.13 0.07,-3.2 0,-22.61 -11.2,-43.77 -29.91,-56.47l5.28 50.51c-4.18,-25.96 -26.62,-45.07 -52.93,-45.07 -2.93,0 -5.87,0.25 -8.75,0.72l0.83 30.1c-34.26,-4.07 -68.81,-8.15 -103.17,-5.05 -34.36,3.1 -68.96,13.97 -95,36.6 -38.95,33.85 -53.18,89.58 -48.4,140.96 4.78,51.38 25.98,99.65 48.09,146.28 5.56,11.73 13.25,24.97 26.15,26.46 11.59,1.34 22.19,-8.35 25.8,-19.44 1.33,-5.46 2.01,-11.07 2.01,-16.69 0,-6.05 -0.78,-12.09 -2.31,-17.93 -3.26,-17.32 -7.37,-35.02 -4.3,-52.37 3.06,-17.35 15.55,-34.51 33.04,-36.63 17.5,-2.13 35.39,17.87 26.98,33.35l4.31 -6.69z"/>
   <polygon class="fil94" points="2171.42,4551.96 1633.04,4517.22 1673.56,4349.34 2165.63,4459.33 "/>
   <path class="fil93" d="M1839.4 3376.11l33.77 -46.89c0,0 37.74,12.83 138.83,63.14l7.14 43.93 175.46 1079.2 -318.93 -13.76 -86.85 -1.85 -28.42 -63.71 -35.04 62.36 -84.81 -1.8 -86.3 -50.03 85.05 -260.15 27.52 -237.63 -42.52 -223.87c0,0 -53.51,-205.58 152.59,-316.43l62.53 -32.52z"/>
   <path class="fil92" d="M2558.24 4193.07c-4.44,1.13 -9,1.7 -13.57,1.7 -28.89,0 -52.89,-22.32 -54.98,-51.14l-189.21 -50.68 76.11 -67.59 168.01 58.49c0.11,0 0.23,0 0.34,0 30.6,0 55.42,24.82 55.42,55.42 0,25.48 -17.38,47.69 -42.12,53.8l0 -0z"/>
   <path class="fil93" d="M2473.49 4164.46c-4.73,2.58 -10.05,3.93 -15.44,3.93 -3.67,0 -7.32,-0.63 -10.78,-1.85l-311.26 -118.14c-75.89,-26.91 -139.55,-80.56 -178.91,-150.79l-129.8 -231.55c-17.04,-19.03 -26.49,-43.74 -26.49,-69.31 0,-57.37 46.52,-103.9 103.9,-103.9 29.65,0 57.94,12.7 77.64,34.85l224.67 356.09 282.74 165.76c9.11,5.98 14.61,16.16 14.61,27.06 0,2.47 -0.29,4.95 -0.85,7.35l-14.06 59.58c-1.51,6.39 -4.93,12.17 -9.81,16.56 -1.87,1.68 -3.94,3.15 -6.15,4.35l0 0z"/>
   <path class="fil95" d="M4403.1 6306.37c0,51.01 -160.49,90.67 -382.03,100.94 -55.94,2.59 -115.71,3.3 -177.75,1.86 -304.94,-7.03 -549.96,-63.73 -549.96,-126.55 0,-1.42 0.19,-4.51 0.43,-4.51l-0.43 0 1.27 -3.02c0.29,-1.05 0.69,-1.98 1.13,-2.93l70.32 -183.84 84.93 -221.85 118.95 -310.91 91.02 -237.99 113.24 -295.94c14.17,-37.04 40.41,-60.08 68.79,-60.08 3.85,0 7.63,0.41 11.37,1.26 23.94,5.22 45.33,26.79 57.63,58.9l114.18 298.02 91.19 241.13 120.34 317.14 0 0.07 86.38 227.87 0 0.07 1.39 0.12 71.94 185.19c3.09,4.96 5.67,10.01 5.67,15.06z"/>
   <path class="fil44" d="M4325.49 6106.13c-69.45,23.2 -180.42,39.92 -313.3,46.13 -53.54,2.52 -110.19,3.35 -169.2,2.22 -204.9,-3.9 -382.53,-30.26 -477.07,-66.12l85.03 -221.85c99.45,22.38 238.11,37.46 392.19,39.78 49.82,0.75 98.38,0.11 144.62,-1.75 97.31,-3.85 183.09,-13.2 250.7,-26.46l85.64 227.87 0 0.07 1.39 0.12z"/>
   <path class="fil44" d="M4118.42 5560.86c-52.99,5.74 -111.25,9.61 -173.05,11.38 -33.1,0.99 -67.21,1.3 -102.05,0.97 -99.73,-0.97 -193,-7.34 -273.35,-17.64l91.02 -237.99c56.96,4.52 118.31,7.09 182.33,7.44 22.61,0.14 44.87,0 66.75,-0.45 40.11,-0.76 79.01,-2.37 116.12,-4.84l92.23 241.13z"/>
   <path class="fil96" d="M4588.74 193.98c0,0 919.98,265.43 1510.48,1164.89l-1037.19 -115.96 -373.04 -179 -100.24 -869.93z"/>
  </g>
 </g>
</svg>
